<svg xmlns="http://www.w3.org/2000/svg" xmlns:xlink="http://www.w3.org/1999/xlink" contentStyleType="text/css" data-diagram-type="STATE" height="791px" preserveAspectRatio="none" style="width:1199px;height:791px;background:#FFFFFF;" version="1.1" viewBox="0 0 1199 791" width="1199px" zoomAndPan="magnify"><defs/><g><g id="Angelegt"><rect fill="#F1F1F1" height="50.2656" rx="12.5" ry="12.5" style="stroke:#181818;stroke-width:0.5;" width="198.6816" x="390.77" y="87"/><line style="stroke:#181818;stroke-width:0.5;" x1="390.77" x2="589.4516" y1="113.2969" y2="113.2969"/><text fill="#000000" font-family="sans-serif" font-size="14" lengthAdjust="spacing" textLength="62.8291" x="458.6963" y="104.9951">Angelegt</text><text fill="#000000" font-family="sans-serif" font-size="12" lengthAdjust="spacing" textLength="178.6816" x="395.77" y="129.4355">entry / produkt_id_generieren</text></g><g id="Verfuegbar"><rect fill="#F1F1F1" height="78.2031" rx="12.5" ry="12.5" style="stroke:#181818;stroke-width:0.5;" width="227.0527" x="376.59" y="214.26"/><line style="stroke:#181818;stroke-width:0.5;" x1="376.59" x2="603.6427" y1="240.5569" y2="240.5569"/><text fill="#000000" font-family="sans-serif" font-size="14" lengthAdjust="spacing" textLength="78.4697" x="450.8815" y="232.2551">Verfuegbar</text><text fill="#000000" font-family="sans-serif" font-size="12" lengthAdjust="spacing" textLength="153.8203" x="381.59" y="256.6955">entry / im_shop_anzeigen</text><text fill="#000000" font-family="sans-serif" font-size="12" lengthAdjust="spacing" textLength="207.0527" x="381.59" y="270.6643">do / lagerbestand_synchronisieren</text><text fill="#000000" font-family="sans-serif" font-size="12" lengthAdjust="spacing" textLength="155.0508" x="381.59" y="284.633">exit / aus_shop_entfernen</text></g><g id="Reserviert"><rect fill="#F1F1F1" height="78.2031" rx="12.5" ry="12.5" style="stroke:#181818;stroke-width:0.5;" width="214.1445" x="184.04" y="369.47"/><line style="stroke:#181818;stroke-width:0.5;" x1="184.04" x2="398.1845" y1="395.7669" y2="395.7669"/><text fill="#000000" font-family="sans-serif" font-size="14" lengthAdjust="spacing" textLength="72.0371" x="255.0937" y="387.4651">Reserviert</text><text fill="#000000" font-family="sans-serif" font-size="12" lengthAdjust="spacing" textLength="174.1465" x="189.04" y="411.9055">entry / reservierung_anlegen</text><text fill="#000000" font-family="sans-serif" font-size="12" lengthAdjust="spacing" textLength="194.1445" x="189.04" y="425.8743">do / reservierungstimer_pruefen</text><text fill="#000000" font-family="sans-serif" font-size="12" lengthAdjust="spacing" textLength="173.4375" x="189.04" y="439.843">exit / reservierung_aufheben</text></g><g id="Ausverkauft"><rect fill="#F1F1F1" height="50.2656" rx="12.5" ry="12.5" style="stroke:#181818;stroke-width:0.5;" width="244.2383" x="525.99" y="524.67"/><line style="stroke:#181818;stroke-width:0.5;" x1="525.99" x2="770.2283" y1="550.9669" y2="550.9669"/><text fill="#000000" font-family="sans-serif" font-size="14" lengthAdjust="spacing" textLength="84.376" x="605.9212" y="542.6651">Ausverkauft</text><text fill="#000000" font-family="sans-serif" font-size="12" lengthAdjust="spacing" textLength="224.2383" x="530.99" y="567.1055">entry / benachrichtigung_vorbereiten</text></g><g id="Ausgelistet"><rect fill="#F1F1F1" height="50.2656" rx="12.5" ry="12.5" style="stroke:#181818;stroke-width:0.5;" width="130.9648" x="582.63" y="651.93"/><line style="stroke:#181818;stroke-width:0.5;" x1="582.63" x2="713.5948" y1="678.2269" y2="678.2269"/><text fill="#000000" font-family="sans-serif" font-size="14" lengthAdjust="spacing" textLength="77.9092" x="609.1578" y="669.9251">Ausgelistet</text><text fill="#000000" font-family="sans-serif" font-size="12" lengthAdjust="spacing" textLength="110.9648" x="587.63" y="694.3655">entry / archivieren</text></g><ellipse cx="490.11" cy="16" fill="#222222" rx="10" ry="10" style="stroke:#222222;stroke-width:1;"/><ellipse cx="648.11" cy="774.2" fill="none" rx="11" ry="11" style="stroke:#222222;stroke-width:1;"/><ellipse cx="648.11" cy="774.2" fill="#222222" rx="6" ry="6" style="stroke:#222222;stroke-width:1;"/><!--link *start* to Angelegt--><g class="link" data-entity-1=".start." data-entity-2="Angelegt" data-source-line="4" data-uid="lnk3" id="link_.start._Angelegt"><path d="M490.11,26.37 C490.11,40.32 490.11,61.02 490.11,80.74" fill="none" id="*start*-to-Angelegt" style="stroke:#181818;stroke-width:1;"/><polygon fill="#181818" points="490.11,86.74,494.11,77.74,490.11,81.74,486.11,77.74,490.11,86.74" style="stroke:#181818;stroke-width:1;"/></g><!--link Angelegt to Verfuegbar--><g class="link" data-entity-1="Angelegt" data-entity-2="Verfuegbar" data-source-line="26" data-uid="lnk4" id="link_Angelegt_Verfuegbar"><path d="M490.11,137.7 C490.11,158.78 490.11,183.51 490.11,207.86" fill="none" id="Angelegt-to-Verfuegbar" style="stroke:#181818;stroke-width:1;"/><polygon fill="#181818" points="490.11,213.86,494.11,204.86,490.11,208.86,486.11,204.86,490.11,213.86" style="stroke:#181818;stroke-width:1;"/><text fill="#000000" font-family="sans-serif" font-size="13" lengthAdjust="spacing" textLength="440.4766" x="491.11" y="180.3269">freigeben [qualitaetspruefung_ok] / stammdaten_vervollstaendigen</text></g><!--link Angelegt to Angelegt--><g class="link" data-entity-1="Angelegt" data-entity-2="Angelegt" data-source-line="27" data-uid="lnk5" id="link_Angelegt_Angelegt"><path d="M589.71,102.1 C609.96,103.19 624.45,106.53 624.45,112.13 C624.45,117.73 615.9513,120.7475 595.7013,121.8375" fill="none" id="Angelegt-to-Angelegt" style="stroke:#181818;stroke-width:1;"/><polygon fill="#181818" points="589.71,122.16,598.912,125.6705,594.7028,121.8913,598.482,117.682,589.71,122.16" style="stroke:#181818;stroke-width:1;"/><text fill="#000000" font-family="sans-serif" font-size="13" lengthAdjust="spacing" textLength="115.2798" x="630.45" y="116.6969">daten_korrigieren</text></g><!--link Verfuegbar to Verfuegbar--><g class="link" data-entity-1="Verfuegbar" data-entity-2="Verfuegbar" data-source-line="29" data-uid="lnk6" id="link_Verfuegbar_Verfuegbar"><path d="M604.07,239.67 C624.42,241.45 638.64,246.01 638.64,253.36 C638.64,260.71 630.3972,264.7572 610.0472,266.5372" fill="none" id="Verfuegbar-to-Verfuegbar" style="stroke:#181818;stroke-width:1;"/><polygon fill="#181818" points="604.07,267.06,613.3843,270.2606,609.051,266.6243,612.6872,262.291,604.07,267.06" style="stroke:#181818;stroke-width:1;"/><text fill="#000000" font-family="sans-serif" font-size="13" lengthAdjust="spacing" textLength="234.6665" x="644.64" y="257.9269">preis_anpassen / aenderung_loggen</text></g><!--link Verfuegbar to Reserviert--><g class="link" data-entity-1="Verfuegbar" data-entity-2="Reserviert" data-source-line="30" data-uid="lnk7" id="link_Verfuegbar_Reserviert"><path d="M376.2,255.79 C260.08,259.95 91.33,274.38 50.11,322.47 C6,373.93 94.3678,393.7033 177.6278,401.7433" fill="none" id="Verfuegbar-to-Reserviert" style="stroke:#181818;stroke-width:1;"/><polygon fill="#181818" points="183.6,402.32,175.0261,397.4735,178.6232,401.8394,174.2572,405.4364,183.6,402.32" style="stroke:#181818;stroke-width:1;"/><text fill="#000000" font-family="sans-serif" font-size="13" lengthAdjust="spacing" textLength="237.415" x="51.11" y="335.5369">kunde_reserviert [lagerbestand &gt; 0]</text></g><!--link Reserviert to Verfuegbar--><g class="link" data-entity-1="Reserviert" data-entity-2="Verfuegbar" data-source-line="33" data-uid="lnk9" id="link_Reserviert_Verfuegbar"><path d="M301.37,369.12 C307.28,353.03 316.17,335.15 329.11,322.47 C342.66,309.19 353.8378,301.0615 371.0878,292.2415" fill="none" id="Reserviert-to-Verfuegbar" style="stroke:#181818;stroke-width:1;"/><polygon fill="#181818" points="376.43,289.51,366.5957,290.0458,371.9782,291.7862,370.2377,297.1687,376.43,289.51" style="stroke:#181818;stroke-width:1;"/><text fill="#000000" font-family="sans-serif" font-size="13" lengthAdjust="spacing" textLength="291.0273" x="330.11" y="335.5369">reservierung_abgelaufen [timer_abgelaufen]</text></g><!--link Verfuegbar to Ausverkauft--><g class="link" data-entity-1="Verfuegbar" data-entity-2="Ausverkauft" data-source-line="31" data-uid="lnk8" id="link_Verfuegbar_Ausverkauft"><path d="M595.77,292.93 C607.52,301.07 618.12,310.82 626.11,322.47 C668.8,384.63 661.0009,474.0974 653.7909,518.5374" fill="none" id="Verfuegbar-to-Ausverkauft" style="stroke:#181818;stroke-width:1;"/><polygon fill="#181818" points="652.83,524.46,658.2197,516.2168,653.6307,519.5245,650.323,514.9356,652.83,524.46" style="stroke:#181818;stroke-width:1;"/><text fill="#000000" font-family="sans-serif" font-size="13" lengthAdjust="spacing" textLength="115.9526" x="659.11" y="413.1369">lagerbestand_null</text></g><!--link Ausverkauft to Verfuegbar--><g class="link" data-entity-1="Ausverkauft" data-entity-2="Verfuegbar" data-source-line="36" data-uid="lnk11" id="link_Ausverkauft_Verfuegbar"><path d="M701.31,524.36 C731.27,507.46 766.01,481.85 783.11,447.67 C798.67,416.59 802.69,398.19 783.11,369.47 C743.1,310.76 674.03,283.2787 609.96,269.1887" fill="none" id="Ausverkauft-to-Verfuegbar" style="stroke:#181818;stroke-width:1;"/><polygon fill="#181818" points="604.1,267.9,612.0308,273.7397,608.9833,268.9739,613.7491,265.9264,604.1,267.9" style="stroke:#181818;stroke-width:1;"/><text fill="#000000" font-family="sans-serif" font-size="13" lengthAdjust="spacing" textLength="394.1133" x="797.11" y="413.1369">nachlieferung [menge &gt; 0] / benachrichtigungen_versenden</text></g><!--link Reserviert to Ausverkauft--><g class="link" data-entity-1="Reserviert" data-entity-2="Ausverkauft" data-source-line="34" data-uid="lnk10" id="link_Reserviert_Ausverkauft"><path d="M279.08,448.14 C276.53,464.26 277.31,482.12 288.11,494.67 C318.58,530.05 427.7965,542.3498 519.7865,546.6498" fill="none" id="Reserviert-to-Ausverkauft" style="stroke:#181818;stroke-width:1;"/><polygon fill="#181818" points="525.78,546.93,516.9766,542.5141,520.7855,546.6965,516.603,550.5054,525.78,546.93" style="stroke:#181818;stroke-width:1;"/><text fill="#000000" font-family="sans-serif" font-size="13" lengthAdjust="spacing" textLength="332.6997" x="289.11" y="490.7369">bestellung_abschliessen / lagerbestand_reduzieren</text></g><!--link Ausverkauft to Ausgelistet--><g class="link" data-entity-1="Ausverkauft" data-entity-2="Ausgelistet" data-source-line="37" data-uid="lnk12" id="link_Ausverkauft_Ausgelistet"><path d="M648.11,575.25 C648.11,597.32 648.11,623.63 648.11,645.68" fill="none" id="Ausverkauft-to-Ausgelistet" style="stroke:#181818;stroke-width:1;"/><polygon fill="#181818" points="648.11,651.68,652.11,642.68,648.11,646.68,644.11,642.68,648.11,651.68" style="stroke:#181818;stroke-width:1;"/><text fill="#000000" font-family="sans-serif" font-size="13" lengthAdjust="spacing" textLength="180.6797" x="649.11" y="617.9969">dauerhaft_nicht_verfuegbar</text></g><!--link Ausgelistet to *end*--><g class="link" data-entity-1="Ausgelistet" data-entity-2=".end." data-source-line="43" data-uid="lnk14" id="link_Ausgelistet_.end."><path d="M648.11,702.57 C648.11,722.17 648.11,742.66 648.11,756.98" fill="none" id="Ausgelistet-to-*end*" style="stroke:#181818;stroke-width:1;"/><polygon fill="#181818" points="648.11,762.98,652.11,753.98,648.11,757.98,644.11,753.98,648.11,762.98" style="stroke:#181818;stroke-width:1;"/></g><!--SRC=[RLJ1Zfmm3Btp5T4UAwswvnvMccElhTJBQ8G2c10H4keaT6TM_VSw14Z2z89antxlsNx2ZbBF7Fd4hBihe2_Arlb9LJQz3BmpVwGMhEVAGlRIAcxjnL5FunryRut-AH_0tghhbnjxVNrd5or0WN1LPHrtm5xsn0lZzdXbdnLBmJS6sk6TVMKpciwFhfPTBK03Ia3GrTy3x1TWxq4q75Uu5Aw0MPWWvLJRmSmrrm-G17gkwmmLAIu06o0MtTNshji1ZPOsqf-1FwIZ5kvj12QY7b0NEd-01LoeFOwTmbLd5YQTk2Uz5YIM5hDI5xMhrhpGEZa1rZDww9_BDwKbiky7Q0gn5syNm95UjYEbEDufYvDUmk2q9jaEJeg0l1ZQ889q4VouRd15iS0Umo6edrr_Uwwau-3iEaA0CUEDq4dQD7KaJzV4lHYbA0EwMozOG6SkYlMZGPGYdgxAY9zqpAJ3qgfdiZI9ePCIGToICY8GdRgBvOwUYcjCgMjk8lREtcxd_dAHXUUqLwggCe8djUKL6ngQSC8EemLIvdQ6AMa38oWLKMmxA0dR-8KWXCu_jYNc04-wWWi8er-5iUi4T8zr-lzu95xJXZNh9rIAQGH9wk8jFU30UrVhq1xwDixSjtl3xji3OFDj1hZxbcCxoENuiUH5GGNzn_u1]--></g></svg>