<svg xmlns="http://www.w3.org/2000/svg" xmlns:xlink="http://www.w3.org/1999/xlink" contentStyleType="text/css" data-diagram-type="STATE" height="965px" preserveAspectRatio="none" style="width:1507px;height:965px;background:#FFFFFF;" version="1.1" viewBox="0 0 1507 965" width="1507px" zoomAndPan="magnify"><defs/><g><g id="Erstellt"><rect fill="#F1F1F1" height="64.2344" rx="12.5" ry="12.5" style="stroke:#181818;stroke-width:0.5;" width="225.875" x="842.04" y="87"/><line style="stroke:#181818;stroke-width:0.5;" x1="842.04" x2="1067.915" y1="113.2969" y2="113.2969"/><text fill="#000000" font-family="sans-serif" font-size="14" lengthAdjust="spacing" textLength="49.2666" x="930.3442" y="104.9951">Erstellt</text><text fill="#000000" font-family="sans-serif" font-size="12" lengthAdjust="spacing" textLength="205.875" x="847.04" y="129.4355">entry / bestellnummer_generieren</text><text fill="#000000" font-family="sans-serif" font-size="12" lengthAdjust="spacing" textLength="156.3281" x="847.04" y="143.4043">entry / kunde_informieren</text></g><g id="Bezahlt"><rect fill="#F1F1F1" height="50.2656" rx="12.5" ry="12.5" style="stroke:#181818;stroke-width:0.5;" width="188.1582" x="497.9" y="228.23"/><line style="stroke:#181818;stroke-width:0.5;" x1="497.9" x2="686.0582" y1="254.5269" y2="254.5269"/><text fill="#000000" font-family="sans-serif" font-size="14" lengthAdjust="spacing" textLength="52.3975" x="565.7804" y="246.2251">Bezahlt</text><text fill="#000000" font-family="sans-serif" font-size="12" lengthAdjust="spacing" textLength="168.1582" x="502.9" y="270.6655">entry / zahlung_bestaetigen</text></g><g id="InBearbeitung"><rect fill="#F1F1F1" height="78.2031" rx="12.5" ry="12.5" style="stroke:#181818;stroke-width:0.5;" width="222.6055" x="168.68" y="355.5"/><line style="stroke:#181818;stroke-width:0.5;" x1="168.68" x2="391.2855" y1="381.7969" y2="381.7969"/><text fill="#000000" font-family="sans-serif" font-size="14" lengthAdjust="spacing" textLength="99.0664" x="230.4495" y="373.4951">InBearbeitung</text><text fill="#000000" font-family="sans-serif" font-size="12" lengthAdjust="spacing" textLength="202.6055" x="173.68" y="397.9355">entry / kommissionierung_starten</text><text fill="#000000" font-family="sans-serif" font-size="12" lengthAdjust="spacing" textLength="176.4961" x="173.68" y="411.9043">do / artikel_zusammenstellen</text><text fill="#000000" font-family="sans-serif" font-size="12" lengthAdjust="spacing" textLength="143.9238" x="173.68" y="425.873">exit / paket_vorbereiten</text></g><g id="Versendet"><rect fill="#F1F1F1" height="64.2344" rx="12.5" ry="12.5" style="stroke:#181818;stroke-width:0.5;" width="197.6211" x="208.17" y="510.7"/><line style="stroke:#181818;stroke-width:0.5;" x1="208.17" x2="405.7911" y1="536.9969" y2="536.9969"/><text fill="#000000" font-family="sans-serif" font-size="14" lengthAdjust="spacing" textLength="71.7158" x="271.1226" y="528.6951">Versendet</text><text fill="#000000" font-family="sans-serif" font-size="12" lengthAdjust="spacing" textLength="158.5781" x="213.17" y="553.1355">entry / tracking_aktivieren</text><text fill="#000000" font-family="sans-serif" font-size="12" lengthAdjust="spacing" textLength="177.6211" x="213.17" y="567.1043">do / lieferstatus_aktualisieren</text></g><g id="InRuecksendung"><rect fill="#D4EDDA" height="64.2344" rx="12.5" ry="12.5" style="stroke:#181818;stroke-width:0.5;" width="202.625" x="205.67" y="651.94"/><line style="stroke:#181818;stroke-width:0.5;" x1="205.67" x2="408.295" y1="678.2369" y2="678.2369"/><text fill="#000000" font-family="sans-serif" font-size="14" lengthAdjust="spacing" textLength="116.3203" x="248.8223" y="669.9351">InRuecksendung</text><text fill="#000000" font-family="sans-serif" font-size="12" lengthAdjust="spacing" textLength="182.625" x="210.67" y="694.3755">entry / retourenlabel_erstellen</text><text fill="#000000" font-family="sans-serif" font-size="12" lengthAdjust="spacing" textLength="174.709" x="210.67" y="708.3443">do / ruecksendung_verfolgen</text></g><g id="Erstattet"><rect fill="#D4EDDA" height="50" rx="12.5" ry="12.5" style="stroke:#181818;stroke-width:0.5;" width="81.0449" x="138.46" y="826.17"/><line style="stroke:#181818;stroke-width:0.5;" x1="138.46" x2="219.5049" y1="852.4669" y2="852.4669"/><text fill="#000000" font-family="sans-serif" font-size="14" lengthAdjust="spacing" textLength="61.0449" x="148.46" y="844.1651">Erstattet</text></g><g id="Abgelehnt"><rect fill="#D4EDDA" height="50" rx="12.5" ry="12.5" style="stroke:#181818;stroke-width:0.5;" width="91.7021" x="366.13" y="826.17"/><line style="stroke:#181818;stroke-width:0.5;" x1="366.13" x2="457.8321" y1="852.4669" y2="852.4669"/><text fill="#000000" font-family="sans-serif" font-size="14" lengthAdjust="spacing" textLength="71.7021" x="376.13" y="844.1651">Abgelehnt</text></g><ellipse cx="954.98" cy="16" fill="#222222" rx="10" ry="10" style="stroke:#222222;stroke-width:1;"/><g id="Storniert"><rect fill="#F1F1F1" height="50" rx="12.5" ry="12.5" style="stroke:#181818;stroke-width:0.5;" width="81.3184" x="912.32" y="369.6"/><line style="stroke:#181818;stroke-width:0.5;" x1="912.32" x2="993.6384" y1="395.8969" y2="395.8969"/><text fill="#000000" font-family="sans-serif" font-size="14" lengthAdjust="spacing" textLength="61.3184" x="922.32" y="387.5951">Storniert</text></g><g id="Zugestellt"><rect fill="#F1F1F1" height="50" rx="12.5" ry="12.5" style="stroke:#181818;stroke-width:0.5;" width="90.6289" x="783.67" y="746.17"/><line style="stroke:#181818;stroke-width:0.5;" x1="783.67" x2="874.2989" y1="772.4669" y2="772.4669"/><text fill="#000000" font-family="sans-serif" font-size="14" lengthAdjust="spacing" textLength="70.6289" x="793.67" y="764.1651">Zugestellt</text></g><ellipse cx="723.98" cy="948.17" fill="none" rx="11" ry="11" style="stroke:#222222;stroke-width:1;"/><ellipse cx="723.98" cy="948.17" fill="#222222" rx="6" ry="6" style="stroke:#222222;stroke-width:1;"/><!--link *start* to Erstellt--><g class="link" data-entity-1=".start." data-entity-2="Erstellt" data-source-line="4" data-uid="lnk3" id="link_.start._Erstellt"><path d="M954.98,26.33 C954.98,39.92 954.98,59.81 954.98,80.64" fill="none" id="*start*-to-Erstellt" style="stroke:#181818;stroke-width:1;"/><polygon fill="#181818" points="954.98,86.64,958.98,77.64,954.98,81.64,950.98,77.64,954.98,86.64" style="stroke:#181818;stroke-width:1;"/></g><!--link Erstellt to Bezahlt--><g class="link" data-entity-1="Erstellt" data-entity-2="Bezahlt" data-source-line="34" data-uid="lnk4" id="link_Erstellt_Bezahlt"><path d="M841.55,126.11 C752.34,133.27 637.82,148.65 604.98,181.23 C592.86,193.26 589.9771,206.5801 589.9071,222.0601" fill="none" id="Erstellt-to-Bezahlt" style="stroke:#2E7D32;stroke-width:1;"/><polygon fill="#2E7D32" points="589.88,228.06,593.9207,219.0782,589.9026,223.0601,585.9207,219.042,589.88,228.06" style="stroke:#2E7D32;stroke-width:1;"/><text fill="#000000" font-family="sans-serif" font-size="13" lengthAdjust="spacing" textLength="322.8354" x="605.98" y="194.2969">zahlung_erfolgt [betrag &gt; 0] / rechnung_erstellen</text></g><!--link Erstellt to Storniert--><g class="link" data-entity-1="Erstellt" data-entity-2="Storniert" data-source-line="35" data-uid="lnk6" id="link_Erstellt_Storniert"><path d="M954.75,151.49 C954.35,206.63 953.5635,313.7702 953.2035,363.3802" fill="none" id="Erstellt-to-Storniert" style="stroke:#2E7D32;stroke-width:1;"/><polygon fill="#2E7D32" points="953.16,369.38,957.2252,360.4093,953.1963,364.3801,949.2254,360.3512,953.16,369.38" style="stroke:#2E7D32;stroke-width:1;"/><text fill="#000000" font-family="sans-serif" font-size="13" lengthAdjust="spacing" textLength="355.6084" x="955.98" y="257.9369">kunde_storniert [innerhalb_24h] / anzahlung_erstatten</text></g><!--link Erstellt to Storniert--><g class="link" data-entity-1="Erstellt" data-entity-2="Storniert" data-source-line="36" data-uid="lnk7" id="link_Erstellt_Storniert"><path d="M1068.37,128.99 C1199.99,143.88 1390.56,182.39 1319.98,278.5 C1280.7,331.98 1087.1218,370.7751 999.8518,385.9051" fill="none" id="Erstellt-to-Storniert-1" style="stroke:#2E7D32;stroke-width:1;"/><polygon fill="#2E7D32" points="993.94,386.93,1003.491,389.3338,998.8665,386.0759,1002.1244,381.4514,993.94,386.93" style="stroke:#2E7D32;stroke-width:1;"/><text fill="#000000" font-family="sans-serif" font-size="13" lengthAdjust="spacing" textLength="163.1475" x="1335.98" y="257.9369">zahlungsfrist_abgelaufen</text></g><!--link Bezahlt to InBearbeitung--><g class="link" data-entity-1="Bezahlt" data-entity-2="InBearbeitung" data-source-line="38" data-uid="lnk8" id="link_Bezahlt_InBearbeitung"><path d="M497.48,255.58 C405.01,259.02 273.44,270.65 240.98,308.5 C229.34,322.07 231.6541,334.6503 241.7841,350.3303" fill="none" id="Bezahlt-to-InBearbeitung" style="stroke:#2E7D32;stroke-width:1;"/><polygon fill="#2E7D32" points="245.04,355.37,243.516,345.6398,242.3267,351.1702,236.7963,349.981,245.04,355.37" style="stroke:#2E7D32;stroke-width:1;"/><text fill="#000000" font-family="sans-serif" font-size="13" lengthAdjust="spacing" textLength="306.0713" x="241.98" y="321.5669">kommissionierung_starten [artikel_verfuegbar]</text></g><!--link Bezahlt to Storniert--><g class="link" data-entity-1="Bezahlt" data-entity-2="Storniert" data-source-line="39" data-uid="lnk9" id="link_Bezahlt_Storniert"><path d="M583.38,278.75 C579.72,293.86 578.4,312.75 588.98,325.5 C629.69,374.53 819.6558,388.1968 905.9858,391.9868" fill="none" id="Bezahlt-to-Storniert" style="stroke:#2E7D32;stroke-width:1;"/><polygon fill="#2E7D32" points="911.98,392.25,903.1641,387.8591,906.9848,392.0307,902.8132,395.8514,911.98,392.25" style="stroke:#2E7D32;stroke-width:1;"/><text fill="#000000" font-family="sans-serif" font-size="13" lengthAdjust="spacing" textLength="338.0698" x="589.98" y="321.5669">artikel_nicht_verfuegbar / rueckerstattung_einleiten</text></g><!--link InBearbeitung to Versendet--><g class="link" data-entity-1="InBearbeitung" data-entity-2="Versendet" data-source-line="41" data-uid="lnk10" id="link_InBearbeitung_Versendet"><path d="M287.08,434.02 C291.48,457.88 295.9791,482.26 300.1191,504.65" fill="none" id="InBearbeitung-to-Versendet" style="stroke:#181818;stroke-width:1;"/><polygon fill="#181818" points="301.21,510.55,303.5069,500.9727,300.3009,505.6333,295.6403,502.4273,301.21,510.55" style="stroke:#181818;stroke-width:1;"/><text fill="#000000" font-family="sans-serif" font-size="13" lengthAdjust="spacing" textLength="270.9116" x="296.98" y="476.7669">versand_beauftragt / tracking_generieren</text></g><!--link Versendet to Zugestellt--><g class="link" data-entity-1="Versendet" data-entity-2="Zugestellt" data-source-line="42" data-uid="lnk12" id="link_Versendet_Zugestellt"><path d="M406.13,556.73 C459.69,565.94 526.11,581.04 581.98,604.94 C668.08,641.76 751.6189,705.6051 795.6489,741.8751" fill="none" id="Versendet-to-Zugestellt" style="stroke:#181818;stroke-width:1;"/><polygon fill="#181818" points="800.28,745.69,795.8766,736.8803,796.4208,742.5109,790.7902,743.0551,800.28,745.69" style="stroke:#181818;stroke-width:1;"/><text fill="#000000" font-family="sans-serif" font-size="13" lengthAdjust="spacing" textLength="304.313" x="614.98" y="618.0069">zustellung_bestaetigt / kunde_benachrichtigen</text></g><!--link Versendet to InRuecksendung--><g class="link" data-entity-1="Versendet" data-entity-2="InRuecksendung" data-source-line="43" data-uid="lnk13" id="link_Versendet_InRuecksendung"><path d="M306.98,575.41 C306.98,598.2 306.98,622.83 306.98,645.58" fill="none" id="Versendet-to-InRuecksendung" style="stroke:#2E7D32;stroke-width:1;"/><polygon fill="#2E7D32" points="306.98,651.58,310.98,642.58,306.98,646.58,302.98,642.58,306.98,651.58" style="stroke:#2E7D32;stroke-width:1;"/><text fill="#000000" font-family="sans-serif" font-size="13" lengthAdjust="spacing" textLength="267.1855" x="307.98" y="618.0069">retoure_angemeldet [innerhalb_14_tage]</text></g><!--link InRuecksendung to Erstattet--><g class="link" data-entity-1="InRuecksendung" data-entity-2="Erstattet" data-source-line="45" data-uid="lnk14" id="link_InRuecksendung_Erstattet"><path d="M205.38,693.33 C132.51,701.61 43.26,717.41 19.98,746.17 C6,763.44 7.04,778.11 19.98,796.17 C46.64,833.38 94.4276,844.685 132.0276,848.305" fill="none" id="InRuecksendung-to-Erstattet" style="stroke:#2E7D32;stroke-width:1;"/><polygon fill="#2E7D32" points="138,848.88,129.4248,844.0359,133.023,848.4008,128.6581,851.9991,138,848.88" style="stroke:#2E7D32;stroke-width:1;"/><text fill="#000000" font-family="sans-serif" font-size="13" lengthAdjust="spacing" textLength="303.5132" x="20.98" y="775.7369">ware_geprueft [zustand_ok] / betrag_erstatten</text></g><!--link InRuecksendung to Abgelehnt--><g class="link" data-entity-1="InRuecksendung" data-entity-2="Abgelehnt" data-source-line="46" data-uid="lnk15" id="link_InRuecksendung_Abgelehnt"><path d="M319.59,716.48 C331.04,744.33 347.55,782.63 356.98,796.17 C364.4,806.82 369.7521,813.0153 378.9321,821.7453" fill="none" id="InRuecksendung-to-Abgelehnt" style="stroke:#2E7D32;stroke-width:1;"/><polygon fill="#2E7D32" points="383.28,825.88,379.5147,816.7793,379.6568,822.4344,374.0017,822.5765,383.28,825.88" style="stroke:#2E7D32;stroke-width:1;"/><text fill="#000000" font-family="sans-serif" font-size="13" lengthAdjust="spacing" textLength="407.9702" x="357.98" y="775.7369">ware_geprueft [zustand_mangelhaft] / ablehnung_begruenden</text></g><!--link Zugestellt to *end*--><g class="link" data-entity-1="Zugestellt" data-entity-2=".end." data-source-line="48" data-uid="lnk17" id="link_Zugestellt_.end."><path d="M814.38,796.5 C790.71,835.95 748.1258,906.9143 732.4858,932.9943" fill="none" id="Zugestellt-to-*end*" style="stroke:#181818;stroke-width:1;"/><polygon fill="#181818" points="729.4,938.14,737.4592,932.4787,731.9715,933.852,730.5983,928.3643,729.4,938.14" style="stroke:#181818;stroke-width:1;"/></g><!--link Storniert to *end*--><g class="link" data-entity-1="Storniert" data-entity-2=".end." data-source-line="49" data-uid="lnk18" id="link_Storniert_.end."><path d="M952.71,419.92 C952.42,448.94 951.98,498.92 951.98,541.82 C951.98,541.82 951.98,541.82 951.98,852.17 C951.98,947.15 787.2878,949.0543 741.2878,947.7943" fill="none" id="Storniert-to-*end*" style="stroke:#181818;stroke-width:1;"/><polygon fill="#181818" points="735.29,947.63,744.1771,951.8749,740.2881,947.7669,744.3961,943.8779,735.29,947.63" style="stroke:#181818;stroke-width:1;"/></g><!--link Erstattet to *end*--><g class="link" data-entity-1="Erstattet" data-entity-2=".end." data-source-line="50" data-uid="lnk19" id="link_Erstattet_.end."><path d="M219.95,859.31 C333.82,879.16 644.0192,933.2294 707.0492,944.2194" fill="none" id="Erstattet-to-*end*" style="stroke:#181818;stroke-width:1;"/><polygon fill="#181818" points="712.96,945.25,704.7808,939.7635,708.0343,944.3912,703.4067,947.6446,712.96,945.25" style="stroke:#181818;stroke-width:1;"/></g><!--link Abgelehnt to *end*--><g class="link" data-entity-1="Abgelehnt" data-entity-2=".end." data-source-line="51" data-uid="lnk20" id="link_Abgelehnt_.end."><path d="M458.02,866.19 C532.09,888.74 667.7303,930.042 707.5603,942.172" fill="none" id="Abgelehnt-to-*end*" style="stroke:#181818;stroke-width:1;"/><polygon fill="#181818" points="713.3,943.92,705.8557,937.4715,708.5169,942.4633,703.5251,945.1245,713.3,943.92" style="stroke:#181818;stroke-width:1;"/></g><!--SRC=[ZLLDQzmm4BtxLuZaLWXDju523e44SiYrWHwwB6PiZsLXMGxIUDEazBzt95kMl6nABuiq7s_Up3nhNQ_C2rWOXACtZVnhLKtJe0kNF1qquwioKhIW7MQUMeDpzyGvrKJuL8_cMRsZk2xsdmxYwkfEF5f7g3KLXICW51VHS270hLxnkn3fSYlGa7qJdqM5mMIcOK1RIZHe5LeqvwFxoJHOAjEETfZ3_gnb7_0TkgNgSWv5upcX-FjaPEbh0vAI6vmdyu1WArJ4CG5jOmcOMql6Rnm6vPmQ3RFp9HZJKkZcDAKPEPwTgaTTlayEU00cD7ms77yfueGNw97AuyWUoxuDyHze7V9yvX6ijq0utH9Pib3pccK9FQbZd7eU6JXgXItRkCRaVEW4MhdJuJ-PxnFMlSzCKyjDuhAvmQQ1PNmRLw9aaSQ9aJLKF1Mq-JnEKW8tczdA8zfsrDjbFWRYX4cCuHRPnB3xIgB6pinXwsqDArOjNkqlT_Yj-RexiFIJjAAaPWeazXNoUAMu4zU7q5VTcTaVMpgF-4oZzThncBFOtMhPAyDVHmUwAdStdOS5a-hEdVqFxfBZMgiSbU2RXQdbr2BsiqazLU976XVxg6Q_Y0bb1VPm7Z9d4vECgZlAKkDsbyv2ayheMVJ5bfH_XdBTCee3q_07petvFL0kz-oHIKaUukSaSNro-9FqnyqxGUiJLA61khEUStW-Cg3jx4vKkmYy12DnGEqJihL-kIa991vyVvl43MXIyQru1GQJ-CAZQXdAa_QDZ_qXlAs-zqmR_q9DelyGTV2iTGSj1V5LFdoUZ-H8xfuNaytGZvJ_98gqxMX97KHBghvO_W80]--></g></svg>