<svg xmlns="http://www.w3.org/2000/svg" xmlns:xlink="http://www.w3.org/1999/xlink" contentStyleType="text/css" data-diagram-type="STATE" height="684px" preserveAspectRatio="none" style="width:492px;height:684px;background:#FFFFFF;" version="1.1" viewBox="0 0 492 684" width="492px" zoomAndPan="magnify"><defs/><g><g id="Erstellt"><rect fill="#F1F1F1" height="50.2656" rx="12.5" ry="12.5" style="stroke:#181818;stroke-width:0.5;" width="225.875" x="157.37" y="103"/><line style="stroke:#181818;stroke-width:0.5;" x1="157.37" x2="383.245" y1="129.2969" y2="129.2969"/><text fill="#000000" font-family="sans-serif" font-size="14" lengthAdjust="spacing" textLength="49.2666" x="245.6742" y="120.9951">Erstellt</text><text fill="#000000" font-family="sans-serif" font-size="12" lengthAdjust="spacing" textLength="205.875" x="162.37" y="145.4355">entry / bestellnummer_generieren</text></g><g id="InBearbeitung"><rect fill="#D4EDDA" height="78.2031" rx="12.5" ry="12.5" style="stroke:#181818;stroke-width:0.5;" width="222.6055" x="7" y="390.27"/><line style="stroke:#181818;stroke-width:0.5;" x1="7" x2="229.6055" y1="416.5669" y2="416.5669"/><text fill="#000000" font-family="sans-serif" font-size="14" lengthAdjust="spacing" textLength="99.0664" x="68.7695" y="408.2651">InBearbeitung</text><text fill="#000000" font-family="sans-serif" font-size="12" lengthAdjust="spacing" textLength="202.6055" x="12" y="432.7055">entry / kommissionierung_starten</text><text fill="#000000" font-family="sans-serif" font-size="12" lengthAdjust="spacing" textLength="176.4961" x="12" y="446.6743">do / artikel_zusammenstellen</text><text fill="#000000" font-family="sans-serif" font-size="12" lengthAdjust="spacing" textLength="143.9238" x="12" y="460.643">exit / paket_vorbereiten</text></g><ellipse cx="270.3" cy="16" fill="#222222" rx="10" ry="10" style="stroke:#222222;stroke-width:1;"/><g id="Bezahlt"><rect fill="#F1F1F1" height="50" rx="12.5" ry="12.5" style="stroke:#181818;stroke-width:0.5;" width="72.3975" x="93.1" y="230.27"/><line style="stroke:#181818;stroke-width:0.5;" x1="93.1" x2="165.4975" y1="256.5669" y2="256.5669"/><text fill="#000000" font-family="sans-serif" font-size="14" lengthAdjust="spacing" textLength="52.3975" x="103.1" y="248.2651">Bezahlt</text></g><g id="Storniert"><rect fill="#F1F1F1" height="50" rx="12.5" ry="12.5" style="stroke:#181818;stroke-width:0.5;" width="81.3184" x="370.64" y="310.27"/><line style="stroke:#181818;stroke-width:0.5;" x1="370.64" x2="451.9584" y1="336.5669" y2="336.5669"/><text fill="#000000" font-family="sans-serif" font-size="14" lengthAdjust="spacing" textLength="61.3184" x="380.64" y="328.2651">Storniert</text></g><g id="Versendet"><rect fill="#F1F1F1" height="50" rx="12.5" ry="12.5" style="stroke:#181818;stroke-width:0.5;" width="91.7158" x="168.44" y="545.47"/><line style="stroke:#181818;stroke-width:0.5;" x1="168.44" x2="260.1558" y1="571.7669" y2="571.7669"/><text fill="#000000" font-family="sans-serif" font-size="14" lengthAdjust="spacing" textLength="71.7158" x="178.44" y="563.4651">Versendet</text></g><ellipse cx="361.3" cy="667.47" fill="none" rx="11" ry="11" style="stroke:#222222;stroke-width:1;"/><ellipse cx="361.3" cy="667.47" fill="#222222" rx="6" ry="6" style="stroke:#222222;stroke-width:1;"/><!--link *start* to Erstellt--><g class="link" data-entity-1=".start." data-entity-2="Erstellt" data-source-line="4" data-uid="lnk3" id="link_.start._Erstellt"><path d="M270.3,26.39 C270.3,43.14 270.3,72.67 270.3,96.73" fill="none" id="*start*-to-Erstellt" style="stroke:#181818;stroke-width:1;"/><polygon fill="#181818" points="270.3,102.73,274.3,93.73,270.3,97.73,266.3,93.73,270.3,102.73" style="stroke:#181818;stroke-width:1;"/><text fill="#000000" font-family="sans-serif" font-size="13" lengthAdjust="spacing" textLength="163.5537" x="271.3" y="69.0669">Kunde legt Bestellung an</text></g><!--link Erstellt to Bezahlt--><g class="link" data-entity-1="Erstellt" data-entity-2="Bezahlt" data-source-line="16" data-uid="lnk5" id="link_Erstellt_Bezahlt"><path d="M161.35,153.65 C147.97,161.06 135.98,170.71 127.3,183.27 C118.05,196.66 117.6849,209.2382 120.6549,223.9782" fill="none" id="Erstellt-to-Bezahlt" style="stroke:#181818;stroke-width:1;"/><polygon fill="#181818" points="121.84,229.86,123.9835,220.2472,120.8524,224.9585,116.1411,221.8274,121.84,229.86" style="stroke:#181818;stroke-width:1;"/><text fill="#000000" font-family="sans-serif" font-size="13" lengthAdjust="spacing" textLength="238.2212" x="128.3" y="196.3369">zahlung_erfolgt / rechnung_erstellen</text></g><!--link Erstellt to Storniert--><g class="link" data-entity-1="Erstellt" data-entity-2="Storniert" data-source-line="17" data-uid="lnk7" id="link_Erstellt_Storniert"><path d="M335.19,153.74 C348.71,161.44 361.74,171.17 371.3,183.27 C400.82,220.61 408.2846,271.7318 410.3046,303.9518" fill="none" id="Erstellt-to-Storniert" style="stroke:#181818;stroke-width:1;"/><polygon fill="#181818" points="410.68,309.94,414.109,300.7074,410.3671,304.9498,406.1247,301.2079,410.68,309.94" style="stroke:#181818;stroke-width:1;"/><text fill="#000000" font-family="sans-serif" font-size="13" lengthAdjust="spacing" textLength="102.2163" x="382.3" y="196.3369">kunde_storniert</text></g><!--link Bezahlt to InBearbeitung--><g class="link" data-entity-1="Bezahlt" data-entity-2="InBearbeitung" data-source-line="19" data-uid="lnk8" id="link_Bezahlt_InBearbeitung"><path d="M127.75,280.56 C125.93,309.01 123.283,350.4922 121.143,383.9522" fill="none" id="Bezahlt-to-InBearbeitung" style="stroke:#2E7D32;stroke-width:1;"/><polygon fill="#2E7D32" points="120.76,389.94,125.3263,381.2137,121.0791,384.9502,117.3426,380.703,120.76,389.94" style="stroke:#2E7D32;stroke-width:1;"/><text fill="#000000" font-family="sans-serif" font-size="13" lengthAdjust="spacing" textLength="132.2661" x="127.3" y="339.8369">bearbeitung_starten</text></g><!--link InBearbeitung to Versendet--><g class="link" data-entity-1="InBearbeitung" data-entity-2="Versendet" data-source-line="20" data-uid="lnk10" id="link_InBearbeitung_Versendet"><path d="M107.05,468.64 C104.69,484.15 105.01,501.63 113.3,515.47 C125.31,535.51 142.0084,546.3035 162.5784,554.5235" fill="none" id="InBearbeitung-to-Versendet" style="stroke:#2E7D32;stroke-width:1;"/><polygon fill="#2E7D32" points="168.15,556.75,161.2769,549.6959,163.507,554.8946,158.3083,557.1247,168.15,556.75" style="stroke:#2E7D32;stroke-width:1;"/><text fill="#000000" font-family="sans-serif" font-size="13" lengthAdjust="spacing" textLength="270.9116" x="114.3" y="511.5369">versand_beauftragt / tracking_generieren</text></g><!--link Versendet to *end*--><g class="link" data-entity-1="Versendet" data-entity-2=".end." data-source-line="22" data-uid="lnk12" id="link_Versendet_.end."><path d="M252.16,595.93 C285.85,617.71 327.6709,644.7331 347.1809,657.3431" fill="none" id="Versendet-to-*end*" style="stroke:#181818;stroke-width:1;"/><polygon fill="#181818" points="352.22,660.6,346.8327,652.3552,348.0208,657.8859,342.4901,659.074,352.22,660.6" style="stroke:#181818;stroke-width:1;"/></g><!--link Storniert to *end*--><g class="link" data-entity-1="Storniert" data-entity-2=".end." data-source-line="23" data-uid="lnk13" id="link_Storniert_.end."><path d="M408.78,360.68 C405.11,395.23 397.79,460.33 389.3,515.47 C381.11,568.7 369.6164,626.0625 364.6264,650.3725" fill="none" id="Storniert-to-*end*" style="stroke:#181818;stroke-width:1;"/><polygon fill="#181818" points="363.42,656.25,369.148,648.2381,364.4254,651.3521,361.3114,646.6295,363.42,656.25" style="stroke:#181818;stroke-width:1;"/></g><!--SRC=[RL9BImCn4BxdLmpjJIXA5GGFWWKFnMF1IodBx6Qw3PjDIZAfjk9_Tx9zR5UzR3RppVUO9B4nRei1MuYyjoJVO2fEhLMnHpQe_OTnDQpHHhf2Aeinlh1moiGqhxnRc0F1dLhUh60oUORN49ciPNY2j-GqWQMQOKPTDOaYEgKY8nECphqZmDWJlnHSgv3Zi8TRA8yIBhKjXQ8cHy5G8AU-BtfpDoCC9HaMeqvqK86nVY2jiNCO8hrDuzlMn6Yy4tM12j4EB3P_ATfBlu2c8LiSKaH9vhgG_xRJfs4XRB4XBdPUa23OSO3BlFa8PtJ0JJTxNdC62cjlwymEL6tSiNHs6d0Nx4DEdjbDFd_9VweeTHQUBCTJUjJtqvKmViSi-zrbzc7FWFukGKXyik5E_j7fGYJIcWDsYMMjvFdKrrUcUbOEBMz7zS5FbHy0]--></g></svg>