<svg xmlns="http://www.w3.org/2000/svg" xmlns:xlink="http://www.w3.org/1999/xlink" contentStyleType="text/css" data-diagram-type="ACTIVITY" height="514px" preserveAspectRatio="none" style="width:1020px;height:514px;background:#FFFFFF;" version="1.1" viewBox="0 0 1020 514" width="1020px" zoomAndPan="magnify"><defs/><g><rect fill="none" height="20.9531" style="stroke:none;stroke-width:1;" width="987.1323" x="15" y="12.7451"/><ellipse cx="238.7007" cy="48.6982" fill="#222222" rx="10" ry="10" style="stroke:#222222;stroke-width:1;"/><rect fill="#F1F1F1" height="33.9688" rx="12.5" ry="12.5" style="stroke:#181818;stroke-width:0.5;" width="131.4746" x="172.9634" y="78.6982"/><text fill="#000000" font-family="sans-serif" font-size="12" lengthAdjust="spacing" textLength="111.4746" x="182.9634" y="99.8369">Retoure anmelden</text><rect fill="#F1F1F1" height="33.9688" rx="12.5" ry="12.5" style="stroke:#181818;stroke-width:0.5;" width="165.875" x="155.7632" y="132.667"/><text fill="#000000" font-family="sans-serif" font-size="12" lengthAdjust="spacing" textLength="145.875" x="165.7632" y="153.8057">Retourengrund erfassen</text><rect fill="#D4EDDA" height="33.9688" rx="12.5" ry="12.5" style="stroke:#181818;stroke-width:0.5;" width="193.5781" x="21" y="230.6357"/><text fill="#000000" font-family="sans-serif" font-size="12" lengthAdjust="spacing" textLength="173.5781" x="31" y="251.7744">Retourenlabel herunterladen</text><rect fill="#D4EDDA" height="33.9688" rx="12.5" ry="12.5" style="stroke:#181818;stroke-width:0.5;" width="118.2734" x="58.6523" y="284.6045"/><text fill="#000000" font-family="sans-serif" font-size="12" lengthAdjust="spacing" textLength="98.2734" x="68.6523" y="305.7432">Ware verpacken</text><rect fill="#D4EDDA" height="33.9688" rx="12.5" ry="12.5" style="stroke:#181818;stroke-width:0.5;" width="120.7051" x="57.4365" y="338.5732"/><text fill="#000000" font-family="sans-serif" font-size="12" lengthAdjust="spacing" textLength="100.7051" x="67.4365" y="359.7119">Paket versenden</text><rect fill="#D4EDDA" height="33.9688" rx="12.5" ry="12.5" style="stroke:#181818;stroke-width:0.5;" width="250.0684" x="234.5781" y="284.6045"/><text fill="#000000" font-family="sans-serif" font-size="12" lengthAdjust="spacing" textLength="230.0684" x="244.5781" y="305.7432">Ablehnungsbenachrichtigung erhalten</text><ellipse cx="238.7007" cy="491.5107" fill="none" rx="11" ry="11" style="stroke:#222222;stroke-width:1;"/><ellipse cx="238.7007" cy="491.5107" fill="#222222" rx="6" ry="6" style="stroke:#222222;stroke-width:1;"/><line style="stroke:#000000;stroke-width:1.5;" x1="15" x2="15" y1="12.7451" y2="502.5107"/><polygon fill="#F1F1F1" points="661.6821,186.6357,661.6821,186.6357,673.6821,198.6357,661.6821,210.6357,661.6821,210.6357,649.6821,198.6357,661.6821,186.6357" style="stroke:#181818;stroke-width:0.5;"/><text fill="#000000" font-family="sans-serif" font-size="11" lengthAdjust="spacing" textLength="156.0356" x="493.6465" y="196.0415">[Retoure innerhalb 14 Tage]</text><text fill="#000000" font-family="sans-serif" font-size="11" lengthAdjust="spacing" textLength="137.6987" x="673.6821" y="196.0415">[Retoure nach 14 Tagen]</text><rect fill="#F1F1F1" height="33.9688" rx="12.5" ry="12.5" style="stroke:#181818;stroke-width:0.5;" width="127.3906" x="718.8984" y="230.6357"/><text fill="#000000" font-family="sans-serif" font-size="12" lengthAdjust="spacing" textLength="107.3906" x="728.8984" y="251.7744">Retoure ablehnen</text><polygon fill="#F1F1F1" points="661.6821,436.5107,673.6821,448.5107,661.6821,460.5107,649.6821,448.5107,661.6821,436.5107" style="stroke:#181818;stroke-width:0.5;"/><line style="stroke:#000000;stroke-width:1.5;" x1="488.6465" x2="488.6465" y1="12.7451" y2="502.5107"/><rect fill="#D4EDDA" height="33.9688" rx="12.5" ry="12.5" style="stroke:#181818;stroke-width:0.5;" width="139.9824" x="856.2891" y="392.542"/><text fill="#000000" font-family="sans-serif" font-size="12" lengthAdjust="spacing" textLength="119.9824" x="866.2891" y="413.6807">Retoure empfangen</text><line style="stroke:#000000;stroke-width:1.5;" x1="850.2891" x2="850.2891" y1="12.7451" y2="502.5107"/><line style="stroke:#000000;stroke-width:1.5;" x1="1000.2715" x2="1000.2715" y1="12.7451" y2="502.5107"/><line style="stroke:#181818;stroke-width:1;" x1="238.7007" x2="238.7007" y1="58.6982" y2="78.6982"/><polygon fill="#181818" points="234.7007,68.6982,242.7007,68.6982,238.7007,78.6982" style="stroke:#181818;stroke-width:1;"/><line style="stroke:#181818;stroke-width:1;" x1="238.7007" x2="238.7007" y1="112.667" y2="132.667"/><polygon fill="#181818" points="234.7007,122.667,242.7007,122.667,238.7007,132.667" style="stroke:#181818;stroke-width:1;"/><line style="stroke:#181818;stroke-width:1;" x1="117.7891" x2="117.7891" y1="264.6045" y2="284.6045"/><polygon fill="#181818" points="113.7891,274.6045,121.7891,274.6045,117.7891,284.6045" style="stroke:#181818;stroke-width:1;"/><line style="stroke:#181818;stroke-width:1;" x1="117.7891" x2="117.7891" y1="318.5732" y2="338.5732"/><polygon fill="#181818" points="113.7891,328.5732,121.7891,328.5732,117.7891,338.5732" style="stroke:#181818;stroke-width:1;"/><line style="stroke:#181818;stroke-width:1;" x1="673.6821" x2="782.5938" y1="198.6357" y2="198.6357"/><line style="stroke:#181818;stroke-width:1;" x1="782.5938" x2="782.5938" y1="198.6357" y2="230.6357"/><polygon fill="#181818" points="778.5938,220.6357,786.5938,220.6357,782.5938,230.6357" style="stroke:#181818;stroke-width:1;"/><line style="stroke:#181818;stroke-width:1;" x1="117.7891" x2="117.7891" y1="372.542" y2="377.542"/><line style="stroke:#181818;stroke-width:1;" x1="117.7891" x2="926.2803" y1="377.542" y2="377.542"/><line style="stroke:#181818;stroke-width:1;" x1="926.2803" x2="926.2803" y1="377.542" y2="392.542"/><polygon fill="#181818" points="922.2803,382.542,930.2803,382.542,926.2803,392.542" style="stroke:#181818;stroke-width:1;"/><line style="stroke:#181818;stroke-width:1;" x1="782.5938" x2="782.5938" y1="264.6045" y2="269.6045"/><line style="stroke:#181818;stroke-width:1;" x1="782.5938" x2="359.6123" y1="269.6045" y2="269.6045"/><line style="stroke:#181818;stroke-width:1;" x1="359.6123" x2="359.6123" y1="269.6045" y2="284.6045"/><polygon fill="#181818" points="355.6123,274.6045,363.6123,274.6045,359.6123,284.6045" style="stroke:#181818;stroke-width:1;"/><line style="stroke:#181818;stroke-width:1;" x1="649.6821" x2="117.7891" y1="198.6357" y2="198.6357"/><line style="stroke:#181818;stroke-width:1;" x1="117.7891" x2="117.7891" y1="198.6357" y2="230.6357"/><polygon fill="#181818" points="113.7891,220.6357,121.7891,220.6357,117.7891,230.6357" style="stroke:#181818;stroke-width:1;"/><line style="stroke:#181818;stroke-width:1;" x1="926.2803" x2="926.2803" y1="426.5107" y2="430.5107"/><line style="stroke:#181818;stroke-width:1;" x1="926.2803" x2="631.6821" y1="430.5107" y2="430.5107"/><line style="stroke:#181818;stroke-width:1;" x1="631.6821" x2="631.6821" y1="430.5107" y2="448.5107"/><line style="stroke:#181818;stroke-width:1;" x1="631.6821" x2="649.6821" y1="448.5107" y2="448.5107"/><polygon fill="#181818" points="639.6821,444.5107,649.6821,448.5107,639.6821,452.5107" style="stroke:#181818;stroke-width:1;"/><line style="stroke:#181818;stroke-width:1;" x1="359.6123" x2="359.6123" y1="318.5732" y2="430.5107"/><line style="stroke:#181818;stroke-width:1;" x1="359.6123" x2="691.6821" y1="430.5107" y2="430.5107"/><line style="stroke:#181818;stroke-width:1;" x1="691.6821" x2="691.6821" y1="430.5107" y2="448.5107"/><line style="stroke:#181818;stroke-width:1;" x1="691.6821" x2="673.6821" y1="448.5107" y2="448.5107"/><polygon fill="#181818" points="683.6821,444.5107,673.6821,448.5107,683.6821,452.5107" style="stroke:#181818;stroke-width:1;"/><line style="stroke:#181818;stroke-width:1;" x1="238.7007" x2="238.7007" y1="166.6357" y2="171.6357"/><line style="stroke:#181818;stroke-width:1;" x1="238.7007" x2="661.6821" y1="171.6357" y2="171.6357"/><line style="stroke:#181818;stroke-width:1;" x1="661.6821" x2="661.6821" y1="171.6357" y2="186.6357"/><polygon fill="#181818" points="657.6821,176.6357,665.6821,176.6357,661.6821,186.6357" style="stroke:#181818;stroke-width:1;"/><line style="stroke:#181818;stroke-width:1;" x1="661.6821" x2="661.6821" y1="460.5107" y2="465.5107"/><line style="stroke:#181818;stroke-width:1;" x1="661.6821" x2="238.7007" y1="465.5107" y2="465.5107"/><line style="stroke:#181818;stroke-width:1;" x1="238.7007" x2="238.7007" y1="465.5107" y2="480.5107"/><polygon fill="#181818" points="234.7007,470.5107,242.7007,470.5107,238.7007,480.5107" style="stroke:#181818;stroke-width:1;"/><text fill="#000000" font-family="sans-serif" font-size="18" lengthAdjust="spacing" textLength="57.1201" x="223.2632" y="29.4531">Kunde</text><text fill="#000000" font-family="sans-serif" font-size="18" lengthAdjust="spacing" textLength="157.1396" x="590.8979" y="29.4531">Webshop-System</text><text fill="#000000" font-family="sans-serif" font-size="18" lengthAdjust="spacing" textLength="50.959" x="899.8008" y="29.4531">Lager</text><!--SRC=[RL6xJiD04Epz5IlH90KIIAcWIecWY0XI2aInzerz9v_NrjqQ5EIFvspYE3oQAtPcPsRdOksauy0DHJrwf3UuGll6Pt51B9lsmqb59Vk82wJm7EDMqqxUAnwALlRk4tIJ3O-z60nPL0wQtJr3spw0M1fu0xa_ZwGAYKa8PL8QWU60FDgskzuVew8PCbVIQarg8RHwdOMS289bdzFjXbwumjiw8vfTYQxC1iRmsSLp3ayMoKmHF4yP5jg1a-OxGiT5_HFPSGqTeHJkj3Gy9R_mZmkXwKgMQgGX5NMHLxYmSrJvplhxJgAbfjp3oidjpqtR2UsbYZb6tVHXLbsL1ZHrefE_65Uc-jlk2m00]--></g></svg>