<svg xmlns="http://www.w3.org/2000/svg" xmlns:xlink="http://www.w3.org/1999/xlink" contentStyleType="text/css" data-diagram-type="STATE" height="792px" preserveAspectRatio="none" style="width:906px;height:792px;background:#FFFFFF;" version="1.1" viewBox="0 0 906 792" width="906px" zoomAndPan="magnify"><defs/><g><g id="Erstellt"><rect fill="#F1F1F1" height="50.2656" rx="12.5" ry="12.5" style="stroke:#181818;stroke-width:0.5;" width="225.875" x="493.37" y="103"/><line style="stroke:#181818;stroke-width:0.5;" x1="493.37" x2="719.245" y1="129.2969" y2="129.2969"/><text fill="#000000" font-family="sans-serif" font-size="14" lengthAdjust="spacing" textLength="49.2666" x="581.6742" y="120.9951">Erstellt</text><text fill="#000000" font-family="sans-serif" font-size="12" lengthAdjust="spacing" textLength="205.875" x="498.37" y="145.4355">entry / bestellnummer_generieren</text></g><g id="Bezahlt"><rect fill="#D4EDDA" height="50.2656" rx="12.5" ry="12.5" style="stroke:#181818;stroke-width:0.5;" width="188.1582" x="331.22" y="230.27"/><line style="stroke:#181818;stroke-width:0.5;" x1="331.22" x2="519.3782" y1="256.5669" y2="256.5669"/><text fill="#000000" font-family="sans-serif" font-size="14" lengthAdjust="spacing" textLength="52.3975" x="399.1004" y="248.2651">Bezahlt</text><text fill="#000000" font-family="sans-serif" font-size="12" lengthAdjust="spacing" textLength="168.1582" x="336.22" y="272.7055">entry / zahlung_bestaetigen</text></g><g id="InBearbeitung"><rect fill="#F1F1F1" height="78.2031" rx="12.5" ry="12.5" style="stroke:#181818;stroke-width:0.5;" width="222.6055" x="7" y="357.53"/><line style="stroke:#181818;stroke-width:0.5;" x1="7" x2="229.6055" y1="383.8269" y2="383.8269"/><text fill="#000000" font-family="sans-serif" font-size="14" lengthAdjust="spacing" textLength="99.0664" x="68.7695" y="375.5251">InBearbeitung</text><text fill="#000000" font-family="sans-serif" font-size="12" lengthAdjust="spacing" textLength="202.6055" x="12" y="399.9655">entry / kommissionierung_starten</text><text fill="#000000" font-family="sans-serif" font-size="12" lengthAdjust="spacing" textLength="176.4961" x="12" y="413.9343">do / artikel_zusammenstellen</text><text fill="#000000" font-family="sans-serif" font-size="12" lengthAdjust="spacing" textLength="143.9238" x="12" y="427.903">exit / paket_vorbereiten</text></g><g id="Versendet"><rect fill="#D4EDDA" height="64.2344" rx="12.5" ry="12.5" style="stroke:#181818;stroke-width:0.5;" width="197.6211" x="19.49" y="512.74"/><line style="stroke:#181818;stroke-width:0.5;" x1="19.49" x2="217.1111" y1="539.0369" y2="539.0369"/><text fill="#000000" font-family="sans-serif" font-size="14" lengthAdjust="spacing" textLength="71.7158" x="82.4426" y="530.7351">Versendet</text><text fill="#000000" font-family="sans-serif" font-size="12" lengthAdjust="spacing" textLength="158.5781" x="24.49" y="555.1755">entry / tracking_aktivieren</text><text fill="#000000" font-family="sans-serif" font-size="12" lengthAdjust="spacing" textLength="177.6211" x="24.49" y="569.1443">do / lieferstatus_aktualisieren</text></g><ellipse cx="606.3" cy="16" fill="#222222" rx="10" ry="10" style="stroke:#222222;stroke-width:1;"/><g id="Storniert"><rect fill="#F1F1F1" height="50" rx="12.5" ry="12.5" style="stroke:#181818;stroke-width:0.5;" width="81.3184" x="406.64" y="371.63"/><line style="stroke:#181818;stroke-width:0.5;" x1="406.64" x2="487.9584" y1="397.9269" y2="397.9269"/><text fill="#000000" font-family="sans-serif" font-size="14" lengthAdjust="spacing" textLength="61.3184" x="416.64" y="389.6251">Storniert</text></g><g id="Zugestellt"><rect fill="#F1F1F1" height="50" rx="12.5" ry="12.5" style="stroke:#181818;stroke-width:0.5;" width="90.6289" x="188.99" y="653.97"/><line style="stroke:#181818;stroke-width:0.5;" x1="188.99" x2="279.6189" y1="680.2669" y2="680.2669"/><text fill="#000000" font-family="sans-serif" font-size="14" lengthAdjust="spacing" textLength="70.6289" x="198.99" y="671.9651">Zugestellt</text></g><ellipse cx="398.3" cy="775.97" fill="none" rx="11" ry="11" style="stroke:#222222;stroke-width:1;"/><ellipse cx="398.3" cy="775.97" fill="#222222" rx="6" ry="6" style="stroke:#222222;stroke-width:1;"/><!--link *start* to Erstellt--><g class="link" data-entity-1=".start." data-entity-2="Erstellt" data-source-line="4" data-uid="lnk3" id="link_.start._Erstellt"><path d="M606.3,26.39 C606.3,43.14 606.3,72.67 606.3,96.73" fill="none" id="*start*-to-Erstellt" style="stroke:#181818;stroke-width:1;"/><polygon fill="#181818" points="606.3,102.73,610.3,93.73,606.3,97.73,602.3,93.73,606.3,102.73" style="stroke:#181818;stroke-width:1;"/><text fill="#000000" font-family="sans-serif" font-size="13" lengthAdjust="spacing" textLength="163.5537" x="607.3" y="69.0669">Kunde legt Bestellung an</text></g><!--link Erstellt to Bezahlt--><g class="link" data-entity-1="Erstellt" data-entity-2="Bezahlt" data-source-line="25" data-uid="lnk4" id="link_Erstellt_Bezahlt"><path d="M493.24,147.12 C472.5,155.14 452.85,166.68 438.3,183.27 C427.21,195.91 424.3205,208.8119 423.9405,223.9519" fill="none" id="Erstellt-to-Bezahlt" style="stroke:#181818;stroke-width:1;"/><polygon fill="#181818" points="423.79,229.95,428.0146,221.0532,423.9155,224.9516,420.0171,220.8525,423.79,229.95" style="stroke:#181818;stroke-width:1;"/><text fill="#000000" font-family="sans-serif" font-size="13" lengthAdjust="spacing" textLength="322.8354" x="439.3" y="196.3369">zahlung_erfolgt [betrag &gt; 0] / rechnung_erstellen</text></g><!--link Erstellt to Storniert--><g class="link" data-entity-1="Erstellt" data-entity-2="Storniert" data-source-line="26" data-uid="lnk6" id="link_Erstellt_Storniert"><path d="M719.63,147.62 C737.94,155.65 754.68,167.06 766.3,183.27 C803.68,235.37 806.63,277.69 766.3,327.53 C731.75,370.24 572.3537,386.8878 494.2737,392.6578" fill="none" id="Erstellt-to-Storniert" style="stroke:#181818;stroke-width:1;"/><polygon fill="#181818" points="488.29,393.1,497.5603,396.4258,493.2764,392.7315,496.9707,388.4476,488.29,393.1" style="stroke:#181818;stroke-width:1;"/><text fill="#000000" font-family="sans-serif" font-size="13" lengthAdjust="spacing" textLength="102.2163" x="796.3" y="259.9669">kunde_storniert</text></g><!--link Bezahlt to InBearbeitung--><g class="link" data-entity-1="Bezahlt" data-entity-2="InBearbeitung" data-source-line="28" data-uid="lnk7" id="link_Bezahlt_InBearbeitung"><path d="M331.08,264.48 C261.17,272.32 173.47,286.6 146.3,310.53 C132.88,322.36 127.1582,334.8699 123.4982,351.5199" fill="none" id="Bezahlt-to-InBearbeitung" style="stroke:#181818;stroke-width:1;"/><polygon fill="#181818" points="122.21,357.38,128.049,349.4486,123.2835,352.4966,120.2355,347.7311,122.21,357.38" style="stroke:#181818;stroke-width:1;"/><text fill="#000000" font-family="sans-serif" font-size="13" lengthAdjust="spacing" textLength="265.8652" x="147.3" y="323.5969">bearbeitung_starten [artikel_verfuegbar]</text></g><!--link Bezahlt to Storniert--><g class="link" data-entity-1="Bezahlt" data-entity-2="Storniert" data-source-line="29" data-uid="lnk8" id="link_Bezahlt_Storniert"><path d="M421.66,280.94 C420.26,294.73 419.58,312.2 422.3,327.53 C424.97,342.54 428.3954,353.0303 433.6954,365.7703" fill="none" id="Bezahlt-to-Storniert" style="stroke:#181818;stroke-width:1;"/><polygon fill="#181818" points="436,371.31,436.2363,361.464,434.0795,366.6935,428.8499,364.5368,436,371.31" style="stroke:#181818;stroke-width:1;"/><text fill="#000000" font-family="sans-serif" font-size="13" lengthAdjust="spacing" textLength="338.0698" x="423.3" y="323.5969">artikel_nicht_verfuegbar / rueckerstattung_einleiten</text></g><!--link InBearbeitung to Versendet--><g class="link" data-entity-1="InBearbeitung" data-entity-2="Versendet" data-source-line="31" data-uid="lnk9" id="link_InBearbeitung_Versendet"><path d="M118.3,436.05 C118.3,459.91 118.3,484.19 118.3,506.58" fill="none" id="InBearbeitung-to-Versendet" style="stroke:#181818;stroke-width:1;"/><polygon fill="#181818" points="118.3,512.58,122.3,503.58,118.3,507.58,114.3,503.58,118.3,512.58" style="stroke:#181818;stroke-width:1;"/><text fill="#000000" font-family="sans-serif" font-size="13" lengthAdjust="spacing" textLength="270.9116" x="119.3" y="478.8069">versand_beauftragt / tracking_generieren</text></g><!--link Versendet to Zugestellt--><g class="link" data-entity-1="Versendet" data-entity-2="Zugestellt" data-source-line="33" data-uid="lnk11" id="link_Versendet_Zugestellt"><path d="M109.13,577.36 C106.59,592.56 106.55,610.39 115.3,623.97 C131.46,649.05 156.6365,661.0129 182.9265,668.2729" fill="none" id="Versendet-to-Zugestellt" style="stroke:#2E7D32;stroke-width:1;"/><polygon fill="#2E7D32" points="188.71,669.87,181.0995,663.6186,183.8904,668.5391,178.97,671.33,188.71,669.87" style="stroke:#2E7D32;stroke-width:1;"/><text fill="#000000" font-family="sans-serif" font-size="13" lengthAdjust="spacing" textLength="304.313" x="116.3" y="620.0369">zustellung_bestaetigt / kunde_benachrichtigen</text></g><!--link Zugestellt to *end*--><g class="link" data-entity-1="Zugestellt" data-entity-2=".end." data-source-line="35" data-uid="lnk13" id="link_Zugestellt_.end."><path d="M276.54,704.43 C314.5,726.43 362.2784,754.1021 383.6284,766.4721" fill="none" id="Zugestellt-to-*end*" style="stroke:#181818;stroke-width:1;"/><polygon fill="#181818" points="388.82,769.48,383.038,761.507,384.4937,766.9734,379.0274,768.4291,388.82,769.48" style="stroke:#181818;stroke-width:1;"/></g><!--link Storniert to *end*--><g class="link" data-entity-1="Storniert" data-entity-2=".end." data-source-line="36" data-uid="lnk14" id="link_Storniert_.end."><path d="M445.59,421.83 C442.51,463.31 435.41,550.64 425.3,623.97 C417.96,677.26 406.5927,734.5918 401.6227,758.8818" fill="none" id="Storniert-to-*end*" style="stroke:#181818;stroke-width:1;"/><polygon fill="#181818" points="400.42,764.76,406.1429,756.7445,401.4223,759.8615,398.3053,755.1408,400.42,764.76" style="stroke:#181818;stroke-width:1;"/></g><!--SRC=[RPDDQzmm48Rl-XL3SYii3KcXq4EW2pc47WCzP5dCs9wrXMKvIADjio7_lID_oMfoCTPyF3DwP-GxRL_GOG-UNmt9r-cAGs-KJvuMw-6FjWsSq7ZQU2g3tlzaoIa3qsCrs2Tz8RXHXoz7sEtkuS5v9cCOVi2lO6i2Gmt3daPh429QfJmZ4rmjiLU0FYM-ATXIoB9xXQzGJWWR-fvSqP0bfycHLUyhRqyNR6VS_0_NzJUgQnofYor1urcQAY8SYNMJyHxjdj2Lf5bYHcfc6Pcv9P6xeU-rztgmqcKi8Kp7Wl-OKWyIBqxTaIakmQFSq8wN_JIS_cgMX1ViY8lp81udlgpnt-GyYVYJ5Eif4oDPKzFii99HDmLshC-Jl7dasAlHT1ARr0e-XWOqsg_3M6SNro59laXDxZGOMOb3ILAkWNkuEGhJKTNQoRzSFGCzyU2Yb17LnSKIGMUBKakL6FY_N6KwBJE0mwBsMRe9r9JeZXbaMss9jRfgUPCHcmvKTPCI8v-qDTCiLDv6P6vb58f7MylUOJX56NYh_cQvLShQ7QvlwNjzTtiKs7DeQ7qYiZFpwqgB786JJYLPh5eNkn_tMsroOr_oSbMwxspv1m00]--></g></svg>