<svg xmlns="http://www.w3.org/2000/svg" xmlns:xlink="http://www.w3.org/1999/xlink" contentStyleType="text/css" data-diagram-type="CLASS" height="208px" preserveAspectRatio="none" style="width:606px;height:208px;background:#FFFFFF;" version="1.1" viewBox="0 0 606 208" width="606px" zoomAndPan="magnify"><defs/><g><!--class BestellService--><g class="entity" data-entity="BestellService" data-source-line="4" data-uid="ent0002" id="entity_BestellService"><rect fill="#F1F1F1" height="58.5938" rx="2.5" ry="2.5" style="stroke:#181818;stroke-width:0.5;" width="349.8799" x="222.96" y="7"/><text fill="#000000" font-family="sans-serif" font-size="14" lengthAdjust="spacing" textLength="99.1348" x="348.3326" y="24.9951">BestellService</text><line style="stroke:#181818;stroke-width:0.5;" x1="223.96" x2="571.8399" y1="33.2969" y2="33.2969"/><line style="stroke:#181818;stroke-width:0.5;" x1="223.96" x2="571.8399" y1="41.2969" y2="41.2969"/><text fill="#000000" font-family="sans-serif" font-size="14" lengthAdjust="spacing" textLength="337.8799" x="228.96" y="58.292">+erstelleBestellung(kunde : Kunde) : Bestellung</text></g><!--class EmailService--><g class="entity" data-entity="EmailService" data-source-line="8" data-uid="ent0003" id="entity_EmailService"><rect fill="#F1F1F1" height="58.5938" rx="2.5" ry="2.5" style="stroke:#181818;stroke-width:0.5;" width="299.8066" x="7" y="142.6"/><text fill="#000000" font-family="sans-serif" font-size="14" lengthAdjust="spacing" textLength="90.583" x="111.6118" y="160.5951">EmailService</text><line style="stroke:#181818;stroke-width:0.5;" x1="8" x2="305.8066" y1="168.8969" y2="168.8969"/><line style="stroke:#181818;stroke-width:0.5;" x1="8" x2="305.8066" y1="176.8969" y2="176.8969"/><text fill="#000000" font-family="sans-serif" font-size="14" lengthAdjust="spacing" textLength="287.8066" x="13" y="193.892">+sendeEmail(empfaenger : String) : void</text></g><!--class Bestellung--><g class="entity" data-entity="Bestellung" data-source-line="12" data-uid="ent0004" id="entity_Bestellung"><rect fill="#F1F1F1" height="58.5938" rx="2.5" ry="2.5" style="stroke:#181818;stroke-width:0.5;" width="111.8252" x="341.99" y="142.6"/><text fill="#000000" font-family="sans-serif" font-size="14" lengthAdjust="spacing" textLength="74.0264" x="360.8894" y="160.5951">Bestellung</text><line style="stroke:#181818;stroke-width:0.5;" x1="342.99" x2="452.8152" y1="168.8969" y2="168.8969"/><text fill="#000000" font-family="sans-serif" font-size="14" lengthAdjust="spacing" textLength="99.8252" x="347.99" y="185.892">-bestellNr : int</text><line style="stroke:#181818;stroke-width:0.5;" x1="342.99" x2="452.8152" y1="193.1938" y2="193.1938"/></g><!--class Kunde--><g class="entity" data-entity="Kunde" data-source-line="16" data-uid="ent0005" id="entity_Kunde"><rect fill="#F1F1F1" height="58.5938" rx="2.5" ry="2.5" style="stroke:#181818;stroke-width:0.5;" width="111.0596" x="488.37" y="142.6"/><text fill="#000000" font-family="sans-serif" font-size="14" lengthAdjust="spacing" textLength="44.4268" x="521.6864" y="160.5951">Kunde</text><line style="stroke:#181818;stroke-width:0.5;" x1="489.37" x2="598.4296" y1="168.8969" y2="168.8969"/><text fill="#000000" font-family="sans-serif" font-size="14" lengthAdjust="spacing" textLength="99.0596" x="494.37" y="185.892">-email : String</text><line style="stroke:#181818;stroke-width:0.5;" x1="489.37" x2="598.4296" y1="193.1938" y2="193.1938"/></g><!--link BestellService to EmailService--><g class="link" data-entity-1="BestellService" data-entity-2="EmailService" data-source-line="20" data-uid="lnk6" id="link_BestellService_EmailService"><path codeLine="20" d="M346.2,65.96 C305.54,88.5 254.4076,116.8409 213.7676,139.3709" fill="none" id="BestellService-to-EmailService" style="stroke:#181818;stroke-width:1;stroke-dasharray:7,7;"/><polygon fill="#181818" points="208.52,142.28,218.3308,141.4147,212.893,139.8557,214.4519,134.4179,208.52,142.28" style="stroke:#181818;stroke-width:1;"/><polygon fill="#000000" points="292.5269,106.5905,301.8627,104.7757,299.013,99.6348,292.5269,106.5905" style="stroke:#000000;stroke-width:1;"/><text fill="#000000" font-family="sans-serif" font-size="13" lengthAdjust="spacing" textLength="69.2529" x="305.9" y="108.6669">verwendet</text></g><!--link BestellService to Kunde--><g class="link" data-entity-1="BestellService" data-entity-2="Kunde" data-source-line="21" data-uid="lnk7" id="link_BestellService_Kunde"><path codeLine="21" d="M434.83,65.87 C446.3,75.1 458.83,85.54 469.9,95.6 C486.18,110.38 499.3133,123.5135 513.0733,137.9035" fill="none" id="BestellService-to-Kunde" style="stroke:#181818;stroke-width:1;stroke-dasharray:7,7;"/><polygon fill="#181818" points="517.22,142.24,513.891,132.9708,513.7645,138.6262,508.109,138.4997,517.22,142.24" style="stroke:#181818;stroke-width:1;"/><polygon fill="#000000" points="494.5785,107.553,489.9146,99.2645,485.9335,103.5888,494.5785,107.553" style="stroke:#000000;stroke-width:1;"/><text fill="#000000" font-family="sans-serif" font-size="13" lengthAdjust="spacing" textLength="69.2529" x="499.9" y="108.6669">verwendet</text></g><!--link BestellService to Bestellung--><g class="link" data-entity-1="BestellService" data-entity-2="Bestellung" data-source-line="22" data-uid="lnk8" id="link_BestellService_Bestellung"><path codeLine="22" d="M397.9,65.96 C397.9,88.5 397.9,113.75 397.9,136.28" fill="none" id="BestellService-to-Bestellung" style="stroke:#181818;stroke-width:1;"/><polygon fill="#181818" points="397.9,142.28,401.9,133.28,397.9,137.28,393.9,133.28,397.9,142.28" style="stroke:#181818;stroke-width:1;"/><polygon fill="#000000" points="402.9,109.1664,405.8389,100.1213,399.9611,100.1213,402.9,109.1664" style="stroke:#000000;stroke-width:1;"/><text fill="#000000" font-family="sans-serif" font-size="13" lengthAdjust="spacing" textLength="49.7529" x="411.9" y="108.6669">erzeugt</text></g><!--SRC=[VP3DYW8n48JlUOe-kiY8Pmy3BknX4RpC4yIPCWOpcI4_ohhikzk9Wt55l2IXw-lgwlYZjgDqiYSVVWpuTBeDiJV25-KWk-6ihQAzD1uFIckaz-l0FRiOyDqEjj4Nq59aWJxX0unfu4ww1VqAeZd1vI8cCLerEqRRWLQqIVS7Fuec_iHazjLB_MJbmNokpz2FUmchuBYzuK1M9QFJeBjYKMopGKMxMs6RchGDXSn99WXfmDqrCKzxBHRr_tGy5-wSmWMgNz6RQU4tM5NLZtbN_6yNHCNa5G00]--></g></svg>