<svg xmlns="http://www.w3.org/2000/svg" xmlns:xlink="http://www.w3.org/1999/xlink" contentStyleType="text/css" data-diagram-type="CLASS" height="294px" preserveAspectRatio="none" style="width:708px;height:294px;background:#FFFFFF;" version="1.1" viewBox="0 0 708 294" width="708px" zoomAndPan="magnify"><defs/><g><!--class A--><g class="entity" data-entity="A" data-source-line="5" data-uid="ent0002" id="entity_A"><rect fill="#F1F1F1" height="42.2969" rx="2.5" ry="2.5" style="stroke:#181818;stroke-width:0.5;" width="15.5771" x="269.2163" y="7"/><text fill="#000000" font-family="sans-serif" font-size="14" lengthAdjust="spacing" textLength="9.5771" x="272.2163" y="24.9951">A</text><line style="stroke:#181818;stroke-width:0.5;" x1="270.2163" x2="283.7934" y1="33.2969" y2="33.2969"/><line style="stroke:#181818;stroke-width:0.5;" x1="270.2163" x2="283.7934" y1="41.2969" y2="41.2969"/></g><!--class B--><g class="entity" data-entity="B" data-source-line="7" data-uid="ent0003" id="entity_B"><rect fill="#F1F1F1" height="42.2969" rx="2.5" ry="2.5" style="stroke:#181818;stroke-width:0.5;" width="15.6045" x="20.1963" y="126.3"/><text fill="#000000" font-family="sans-serif" font-size="14" lengthAdjust="spacing" textLength="9.6045" x="23.1963" y="144.2951">B</text><line style="stroke:#181818;stroke-width:0.5;" x1="21.1963" x2="34.8008" y1="152.5969" y2="152.5969"/><line style="stroke:#181818;stroke-width:0.5;" x1="21.1963" x2="34.8008" y1="160.5969" y2="160.5969"/></g><!--class C--><g class="entity" data-entity="C" data-source-line="9" data-uid="ent0004" id="entity_C"><rect fill="#F1F1F1" height="42.2969" rx="2.5" ry="2.5" style="stroke:#181818;stroke-width:0.5;" width="15.7754" x="68.1163" y="245.59"/><text fill="#000000" font-family="sans-serif" font-size="14" lengthAdjust="spacing" textLength="9.7754" x="71.1163" y="263.5851">C</text><line style="stroke:#181818;stroke-width:0.5;" x1="69.1163" x2="82.8917" y1="271.8869" y2="271.8869"/><line style="stroke:#181818;stroke-width:0.5;" x1="69.1163" x2="82.8917" y1="279.8869" y2="279.8869"/></g><!--class D--><g class="entity" data-entity="D" data-source-line="11" data-uid="ent0005" id="entity_D"><rect fill="#F1F1F1" height="42.2969" rx="2.5" ry="2.5" style="stroke:#181818;stroke-width:0.5;" width="16.7803" x="304.6163" y="126.3"/><text fill="#000000" font-family="sans-serif" font-size="14" lengthAdjust="spacing" textLength="10.7803" x="307.6163" y="144.2951">D</text><line style="stroke:#181818;stroke-width:0.5;" x1="305.6163" x2="320.3966" y1="152.5969" y2="152.5969"/><line style="stroke:#181818;stroke-width:0.5;" x1="305.6163" x2="320.3966" y1="160.5969" y2="160.5969"/></g><!--class E--><g class="entity" data-entity="E" data-source-line="13" data-uid="ent0006" id="entity_E"><rect fill="#F1F1F1" height="42.2969" rx="2.5" ry="2.5" style="stroke:#181818;stroke-width:0.5;" width="14.8457" x="639.5763" y="7"/><text fill="#000000" font-family="sans-serif" font-size="14" font-style="italic" lengthAdjust="spacing" textLength="8.8457" x="642.5763" y="24.9951">E</text><line style="stroke:#181818;stroke-width:0.5;" x1="640.5763" x2="653.422" y1="33.2969" y2="33.2969"/><line style="stroke:#181818;stroke-width:0.5;" x1="640.5763" x2="653.422" y1="41.2969" y2="41.2969"/></g><!--class F--><g class="entity" data-entity="F" data-source-line="15" data-uid="ent0007" id="entity_F"><rect fill="#F1F1F1" height="42.2969" rx="2.5" ry="2.5" style="stroke:#181818;stroke-width:0.5;" width="14.0527" x="390.9763" y="126.3"/><text fill="#000000" font-family="sans-serif" font-size="14" lengthAdjust="spacing" textLength="8.0527" x="393.9763" y="144.2951">F</text><line style="stroke:#181818;stroke-width:0.5;" x1="391.9763" x2="404.029" y1="152.5969" y2="152.5969"/><line style="stroke:#181818;stroke-width:0.5;" x1="391.9763" x2="404.029" y1="160.5969" y2="160.5969"/></g><!--class G--><g class="entity" data-entity="G" data-source-line="17" data-uid="ent0008" id="entity_G"><rect fill="#F1F1F1" height="42.2969" rx="2.5" ry="2.5" style="stroke:#181818;stroke-width:0.5;" width="16.8486" x="574.5763" y="126.3"/><text fill="#000000" font-family="sans-serif" font-size="14" lengthAdjust="spacing" textLength="10.8486" x="577.5763" y="144.2951">G</text><line style="stroke:#181818;stroke-width:0.5;" x1="575.5763" x2="590.4249" y1="152.5969" y2="152.5969"/><line style="stroke:#181818;stroke-width:0.5;" x1="575.5763" x2="590.4249" y1="160.5969" y2="160.5969"/></g><!--link A to B--><g class="link" data-entity-1="A" data-entity-2="B" data-source-line="20" data-uid="lnk9" id="link_A_B"><path codeLine="20" d="M268.9463,29.43 C229.2863,30.98 55.3263,39.97 23.0063,79.3 C12.3863,92.21 15.1963,111.65 19.7363,126.29" fill="none" id="A-B" style="stroke:#181818;stroke-width:1;"/><text fill="#000000" font-family="sans-serif" font-size="13" lengthAdjust="spacing" textLength="73.6963" x="24.0063" y="92.3669">Assoziation</text></g><!--link A to C--><g class="link" data-entity-1="A" data-entity-2="C" data-source-line="21" data-uid="lnk10" id="link_A_C"><path codeLine="21" d="M268.7963,33.01 C245.6663,44.25 179.1863,79.18 141.0063,126.3 C113.7363,159.94 120.6463,176.5 102.0063,215.59 C96.3463,227.45 92.304,235.3428 87.054,245.2128" fill="none" id="A-to-C" style="stroke:#181818;stroke-width:1;"/><polygon fill="#181818" points="84.2363,250.51,91.9943,244.4426,86.5843,246.0956,84.9313,240.6857,84.2363,250.51" style="stroke:#181818;stroke-width:1;"/><text fill="#000000" font-family="sans-serif" font-size="13" lengthAdjust="spacing" textLength="144.6123" x="142.0063" y="152.0069">gerichtete Assoziation</text></g><!--reverse link A to D--><g class="link" data-entity-1="A" data-entity-2="D" data-source-line="22" data-uid="lnk11" id="link_A_D"><path codeLine="22" d="M270.3032,61.5216 C268.0732,75.1116 268.8563,81.28 274.0063,96.3 C279.9463,113.61 294.5763,129.56 304.1363,138.63" fill="none" id="A-backto-D" style="stroke:#181818;stroke-width:1;"/><polygon fill="none" points="272.2463,49.68,267.3275,54.9531,270.3032,61.5216,275.2219,56.2485,272.2463,49.68" style="stroke:#181818;stroke-width:1;"/><text fill="#000000" font-family="sans-serif" font-size="13" lengthAdjust="spacing" textLength="79.8599" x="275.0063" y="92.3669">Aggregation</text><text fill="#000000" font-family="sans-serif" font-size="13" lengthAdjust="spacing" textLength="8.271" x="262.0366" y="69.2032">1</text><text fill="#000000" font-family="sans-serif" font-size="13" lengthAdjust="spacing" textLength="23.0356" x="273.6314" y="129.704">0..*</text></g><!--reverse link A to F--><g class="link" data-entity-1="A" data-entity-2="F" data-source-line="23" data-uid="lnk12" id="link_A_F"><path codeLine="23" d="M296.1395,37.2122 C311.9695,44.0222 336.3763,56.15 359.0063,79.3 C372.9463,93.56 383.8063,113.78 390.4863,128.29" fill="none" id="A-backto-F" style="stroke:#181818;stroke-width:1;"/><polygon fill="#181818" points="285.1163,32.47,289.0472,38.5155,296.1395,37.2122,292.2086,31.1667,285.1163,32.47" style="stroke:#181818;stroke-width:1;"/><text fill="#000000" font-family="sans-serif" font-size="13" lengthAdjust="spacing" textLength="80.6343" x="374.0063" y="92.3669">Komposition</text><text fill="#000000" font-family="sans-serif" font-size="13" lengthAdjust="spacing" textLength="8.271" x="292.9237" y="27.553">1</text><text fill="#000000" font-family="sans-serif" font-size="13" lengthAdjust="spacing" textLength="23.0356" x="360.2431" y="115.2187">1..*</text></g><!--reverse link B to C--><g class="link" data-entity-1="B" data-entity-2="C" data-source-line="24" data-uid="lnk13" id="link_B_C"><path codeLine="24" d="M21.9554,186.7462 C20.2754,200.4462 22.0563,200.77 28.0063,215.59 C36.0863,235.72 56.5263,252.34 67.9563,260.43" fill="none" id="B-backto-C" style="stroke:#181818;stroke-width:1;"/><polygon fill="none" points="24.1463,168.88,16,186.0159,27.9108,187.4765,24.1463,168.88" style="stroke:#181818;stroke-width:1;"/><text fill="#000000" font-family="sans-serif" font-size="13" lengthAdjust="spacing" textLength="68.561" x="29.0063" y="211.6569">Vererbung</text></g><!--reverse link E to G--><g class="link" data-entity-1="E" data-entity-2="G" data-source-line="25" data-uid="lnk14" id="link_E_G"><path codeLine="25" d="M630.5319,59.3294 C618.5119,81.3494 604.2563,107.49 591.7363,130.44" fill="none" id="E-backto-G" style="stroke:#181818;stroke-width:1;stroke-dasharray:7,7;"/><polygon fill="none" points="639.1563,43.53,625.2655,56.4546,635.7984,62.2042,639.1563,43.53" style="stroke:#181818;stroke-width:1;"/><text fill="#000000" font-family="sans-serif" font-size="13" lengthAdjust="spacing" textLength="80.6787" x="620.0063" y="92.3669">Realisierung</text></g><!--link A to G--><g class="link" data-entity-1="A" data-entity-2="G" data-source-line="26" data-uid="lnk15" id="link_A_G"><path codeLine="26" d="M285.0263,30.57 C311.2763,35.39 396.7163,52.3 463.0063,79.3 C506.9963,97.22 550.106,124.5338 569.346,137.2938" fill="none" id="A-to-G" style="stroke:#181818;stroke-width:1;stroke-dasharray:7,7;"/><polygon fill="#181818" points="574.3463,140.61,569.0566,132.3022,570.1794,137.8465,564.6351,138.9692,574.3463,140.61" style="stroke:#181818;stroke-width:1;"/><text fill="#000000" font-family="sans-serif" font-size="13" lengthAdjust="spacing" textLength="85.9409" x="499.0063" y="92.3669">Abh&#228;ngigkeit</text></g><!--SRC=[NK_DIiGm4BxdAOPUX8KDkzSY2wdkYkX9mNlQpgR3fab9KiIgR-ER-69EWs3m4Zw-tqoya9jqq2F4z6QHtq1TcaShufyowDw_aZDmrZPYeNHMnwWIPzevuNtdtJCj23jn1OzeqFK8FGPeS24SPcTuOq8dSWmKl8lFNzmK-AR0jncJInZEkaCu5jgfm7SP2mNRBNVLe6Bq2-b4tcNomAqr6EJZXeG9_ncgVGMUezLEoat5gznWJ41J6ZQhOPyD9pOy-77oaRAXWUiFLjUD5mmOMhvL79cKahzMmnDgIv4mhBm2AG-PLktm_UKCcGjI-W40]--></g></svg>