<svg xmlns="http://www.w3.org/2000/svg" xmlns:xlink="http://www.w3.org/1999/xlink" contentStyleType="text/css" data-diagram-type="ACTIVITY" height="929px" preserveAspectRatio="none" style="width:2203px;height:929px;background:#FFFFFF;" version="1.1" viewBox="0 0 2203 929" width="2203px" zoomAndPan="magnify"><defs/><g><rect fill="none" height="20.9531" style="stroke:none;stroke-width:1;" width="2170.3535" x="15" y="12.7451"/><ellipse cx="495.7424" cy="48.6982" fill="#222222" rx="10" ry="10" style="stroke:#222222;stroke-width:1;"/><rect fill="#F1F1F1" height="33.9688" rx="12.5" ry="12.5" style="stroke:#181818;stroke-width:0.5;" width="134.5098" x="428.4875" y="78.6982"/><text fill="#000000" font-family="sans-serif" font-size="12" lengthAdjust="spacing" textLength="114.5098" x="438.4875" y="99.8369">Produkt ausw&#228;hlen</text><rect fill="#F1F1F1" height="33.9688" rx="12.5" ry="12.5" style="stroke:#181818;stroke-width:0.5;" width="138.0781" x="426.7034" y="132.667"/><text fill="#000000" font-family="sans-serif" font-size="12" lengthAdjust="spacing" textLength="118.0781" x="436.7034" y="153.8057">In Warenkorb legen</text><rect fill="#F1F1F1" height="33.9688" rx="12.5" ry="12.5" style="stroke:#181818;stroke-width:0.5;" width="160.8594" x="225.4233" y="284.6045"/><text fill="#000000" font-family="sans-serif" font-size="12" lengthAdjust="spacing" textLength="140.8594" x="235.4233" y="305.7432">Lieferadresse eingeben</text><rect fill="#F1F1F1" height="33.9688" rx="12.5" ry="12.5" style="stroke:#181818;stroke-width:0.5;" width="139.4961" x="236.105" y="338.5732"/><text fill="#000000" font-family="sans-serif" font-size="12" lengthAdjust="spacing" textLength="119.4961" x="246.105" y="359.7119">Zahlungsart w&#228;hlen</text><rect fill="#F1F1F1" height="33.9688" rx="12.5" ry="12.5" style="stroke:#181818;stroke-width:0.5;" width="195.2656" x="21" y="773.3857"/><text fill="#000000" font-family="sans-serif" font-size="12" lengthAdjust="spacing" textLength="175.2656" x="31" y="794.5244">Versandbest&#228;tigung erhalten</text><rect fill="#F1F1F1" height="33.9688" rx="12.5" ry="12.5" style="stroke:#181818;stroke-width:0.5;" width="168.7871" x="396.2827" y="490.5107"/><text fill="#000000" font-family="sans-serif" font-size="12" lengthAdjust="spacing" textLength="148.7871" x="406.2827" y="511.6494">Fehlermeldung anzeigen</text><rect fill="#F1F1F1" height="33.9688" rx="12.5" ry="12.5" style="stroke:#181818;stroke-width:0.5;" width="205.918" x="575.0698" y="284.6045"/><text fill="#000000" font-family="sans-serif" font-size="12" lengthAdjust="spacing" textLength="185.918" x="585.0698" y="305.7432">Hinweis auf Nichtverf&#252;gbarkeit</text><ellipse cx="495.7424" cy="906.3545" fill="none" rx="11" ry="11" style="stroke:#222222;stroke-width:1;"/><ellipse cx="495.7424" cy="906.3545" fill="#222222" rx="6" ry="6" style="stroke:#222222;stroke-width:1;"/><line style="stroke:#000000;stroke-width:1.5;" x1="15" x2="15" y1="12.7451" y2="917.3545"/><rect fill="#F1F1F1" height="33.9688" rx="12.5" ry="12.5" style="stroke:#181818;stroke-width:0.5;" width="145.4316" x="1028.9561" y="186.6357"/><text fill="#000000" font-family="sans-serif" font-size="12" lengthAdjust="spacing" textLength="125.4316" x="1038.9561" y="207.7744">Verf&#252;gbarkeit pr&#252;fen</text><polygon fill="#F1F1F1" points="1101.6719,240.6045,1101.6719,240.6045,1113.6719,252.6045,1101.6719,264.6045,1101.6719,264.6045,1089.6719,252.6045,1101.6719,240.6045" style="stroke:#181818;stroke-width:0.5;"/><text fill="#000000" font-family="sans-serif" font-size="11" lengthAdjust="spacing" textLength="125.4634" x="964.2085" y="250.0103">[Alle Artikel verf&#252;gbar]</text><text fill="#000000" font-family="sans-serif" font-size="11" lengthAdjust="spacing" textLength="132.4189" x="1113.6719" y="250.0103">[Artikel nicht verf&#252;gbar]</text><rect fill="#F1F1F1" height="33.9688" rx="12.5" ry="12.5" style="stroke:#181818;stroke-width:0.5;" width="151.2207" x="802.9878" y="490.5107"/><text fill="#000000" font-family="sans-serif" font-size="12" lengthAdjust="spacing" textLength="131.2207" x="812.9878" y="511.6494">Bestellung best&#228;tigen</text><rect fill="#555555" height="6" rx="2.5" ry="2.5" style="stroke:#555555;stroke-width:1;" width="191.2244" x="790.9878" y="544.4795"/><polygon fill="#F1F1F1" points="1101.6719,851.3545,1113.6719,863.3545,1101.6719,875.3545,1089.6719,863.3545,1101.6719,851.3545" style="stroke:#181818;stroke-width:0.5;"/><line style="stroke:#000000;stroke-width:1.5;" x1="784.9878" x2="784.9878" y1="12.7451" y2="917.3545"/><rect fill="#F1F1F1" height="33.9688" rx="12.5" ry="12.5" style="stroke:#181818;stroke-width:0.5;" width="146.873" x="1311.2607" y="392.542"/><text fill="#000000" font-family="sans-serif" font-size="12" lengthAdjust="spacing" textLength="126.873" x="1321.2607" y="413.6807">Zahlung durchf&#252;hren</text><polygon fill="#F1F1F1" points="1384.6973,446.5107,1384.6973,446.5107,1396.6973,458.5107,1384.6973,470.5107,1384.6973,470.5107,1372.6973,458.5107,1384.6973,446.5107" style="stroke:#181818;stroke-width:0.5;"/><text fill="#000000" font-family="sans-serif" font-size="11" lengthAdjust="spacing" textLength="116.6064" x="1256.0908" y="455.9165">[Zahlung erfolgreich]</text><text fill="#000000" font-family="sans-serif" font-size="11" lengthAdjust="spacing" textLength="140.9966" x="1396.6973" y="455.9165">[Zahlung fehlgeschlagen]</text><polygon fill="#F1F1F1" points="1384.6973,817.3545,1396.6973,829.3545,1384.6973,841.3545,1372.6973,829.3545,1384.6973,817.3545" style="stroke:#181818;stroke-width:0.5;"/><line style="stroke:#000000;stroke-width:1.5;" x1="1251.0908" x2="1251.0908" y1="12.7451" y2="917.3545"/><rect fill="#F1F1F1" height="33.9688" rx="12.5" ry="12.5" style="stroke:#181818;stroke-width:0.5;" width="157.7773" x="1548.6938" y="570.4795"/><text fill="#000000" font-family="sans-serif" font-size="12" lengthAdjust="spacing" textLength="137.7773" x="1558.6938" y="591.6182">Ware kommissionieren</text><rect fill="#F1F1F1" height="33.9688" rx="12.5" ry="12.5" style="stroke:#181818;stroke-width:0.5;" width="118.2734" x="1568.4458" y="639.4482"/><text fill="#000000" font-family="sans-serif" font-size="12" lengthAdjust="spacing" textLength="98.2734" x="1578.4458" y="660.5869">Ware verpacken</text><line style="stroke:#000000;stroke-width:1.5;" x1="1542.6938" x2="1542.6938" y1="12.7451" y2="917.3545"/><rect fill="#F1F1F1" height="33.9688" rx="12.5" ry="12.5" style="stroke:#181818;stroke-width:0.5;" width="136.4844" x="1721.9468" y="570.4795"/><text fill="#000000" font-family="sans-serif" font-size="12" lengthAdjust="spacing" textLength="116.4844" x="1731.9468" y="591.6182">Rechnung erstellen</text><rect fill="#F1F1F1" height="33.9688" rx="12.5" ry="12.5" style="stroke:#181818;stroke-width:0.5;" width="147.4355" x="1716.4712" y="639.4482"/><text fill="#000000" font-family="sans-serif" font-size="12" lengthAdjust="spacing" textLength="127.4355" x="1726.4712" y="660.5869">Rechnung versenden</text><line style="stroke:#000000;stroke-width:1.5;" x1="1710.4712" x2="1710.4712" y1="12.7451" y2="917.3545"/><rect fill="#F1F1F1" height="33.9688" rx="12.5" ry="12.5" style="stroke:#181818;stroke-width:0.5;" width="150.8809" x="2016.6118" y="604.9639"/><text fill="#000000" font-family="sans-serif" font-size="12" lengthAdjust="spacing" textLength="130.8809" x="2026.6118" y="626.1025">Versandlabel drucken</text><rect fill="#555555" height="6" rx="2.5" ry="2.5" style="stroke:#555555;stroke-width:1;" width="305.5859" x="1873.9067" y="693.417"/><rect fill="#F1F1F1" height="33.9688" rx="12.5" ry="12.5" style="stroke:#181818;stroke-width:0.5;" width="120.7051" x="1885.9067" y="719.417"/><text fill="#000000" font-family="sans-serif" font-size="12" lengthAdjust="spacing" textLength="100.7051" x="1895.9067" y="740.5557">Paket versenden</text><line style="stroke:#000000;stroke-width:1.5;" x1="1867.9067" x2="1867.9067" y1="12.7451" y2="917.3545"/><line style="stroke:#000000;stroke-width:1.5;" x1="2183.4927" x2="2183.4927" y1="12.7451" y2="917.3545"/><line style="stroke:#181818;stroke-width:1;" x1="495.7424" x2="495.7424" y1="58.6982" y2="78.6982"/><polygon fill="#181818" points="491.7424,68.6982,499.7424,68.6982,495.7424,78.6982" style="stroke:#181818;stroke-width:1;"/><line style="stroke:#181818;stroke-width:1;" x1="495.7424" x2="495.7424" y1="112.667" y2="132.667"/><polygon fill="#181818" points="491.7424,122.667,499.7424,122.667,495.7424,132.667" style="stroke:#181818;stroke-width:1;"/><line style="stroke:#181818;stroke-width:1;" x1="305.853" x2="305.853" y1="318.5732" y2="338.5732"/><polygon fill="#181818" points="301.853,328.5732,309.853,328.5732,305.853,338.5732" style="stroke:#181818;stroke-width:1;"/><line style="stroke:#181818;stroke-width:1;" x1="878.5981" x2="878.5981" y1="524.4795" y2="544.4795"/><polygon fill="#181818" points="874.5981,534.4795,882.5981,534.4795,878.5981,544.4795" style="stroke:#181818;stroke-width:1;"/><line style="stroke:#181818;stroke-width:1;" x1="1101.6719" x2="1101.6719" y1="220.6045" y2="240.6045"/><polygon fill="#181818" points="1097.6719,230.6045,1105.6719,230.6045,1101.6719,240.6045" style="stroke:#181818;stroke-width:1;"/><line style="stroke:#181818;stroke-width:1;" x1="1384.6973" x2="1384.6973" y1="426.5107" y2="446.5107"/><polygon fill="#181818" points="1380.6973,436.5107,1388.6973,436.5107,1384.6973,446.5107" style="stroke:#181818;stroke-width:1;"/><line style="stroke:#181818;stroke-width:1;" x1="1627.5825" x2="1627.5825" y1="604.4482" y2="639.4482"/><polygon fill="#181818" points="1623.5825,629.4482,1631.5825,629.4482,1627.5825,639.4482" style="stroke:#181818;stroke-width:1;"/><line style="stroke:#181818;stroke-width:1;" x1="1790.189" x2="1790.189" y1="604.4482" y2="639.4482"/><polygon fill="#181818" points="1786.189,629.4482,1794.189,629.4482,1790.189,639.4482" style="stroke:#181818;stroke-width:1;"/><line style="stroke:#181818;stroke-width:1;" x1="2092.0522" x2="2092.0522" y1="638.9326" y2="693.417"/><polygon fill="#181818" points="2088.0522,683.417,2096.0522,683.417,2092.0522,693.417" style="stroke:#181818;stroke-width:1;"/><line style="stroke:#181818;stroke-width:1;" x1="1946.2593" x2="1946.2593" y1="699.417" y2="719.417"/><polygon fill="#181818" points="1942.2593,709.417,1950.2593,709.417,1946.2593,719.417" style="stroke:#181818;stroke-width:1;"/><line style="stroke:#181818;stroke-width:1;" x1="495.7424" x2="495.7424" y1="166.6357" y2="171.6357"/><line style="stroke:#181818;stroke-width:1;" x1="495.7424" x2="1101.6719" y1="171.6357" y2="171.6357"/><line style="stroke:#181818;stroke-width:1;" x1="1101.6719" x2="1101.6719" y1="171.6357" y2="186.6357"/><polygon fill="#181818" points="1097.6719,176.6357,1105.6719,176.6357,1101.6719,186.6357" style="stroke:#181818;stroke-width:1;"/><line style="stroke:#181818;stroke-width:1;" x1="305.853" x2="305.853" y1="372.542" y2="377.542"/><line style="stroke:#181818;stroke-width:1;" x1="305.853" x2="1384.6973" y1="377.542" y2="377.542"/><line style="stroke:#181818;stroke-width:1;" x1="1384.6973" x2="1384.6973" y1="377.542" y2="392.542"/><polygon fill="#181818" points="1380.6973,382.542,1388.6973,382.542,1384.6973,392.542" style="stroke:#181818;stroke-width:1;"/><line style="stroke:#181818;stroke-width:1;" x1="797.9878" x2="797.9878" y1="550.4795" y2="554.4795"/><line style="stroke:#181818;stroke-width:1;" x1="797.9878" x2="1627.5825" y1="554.4795" y2="554.4795"/><line style="stroke:#181818;stroke-width:1;" x1="1627.5825" x2="1627.5825" y1="554.4795" y2="570.4795"/><polygon fill="#181818" points="1623.5825,560.4795,1631.5825,560.4795,1627.5825,570.4795" style="stroke:#181818;stroke-width:1;"/><line style="stroke:#181818;stroke-width:1;" x1="882.0464" x2="882.0464" y1="550.4795" y2="554.4795"/><line style="stroke:#181818;stroke-width:1;" x1="882.0464" x2="1790.189" y1="554.4795" y2="554.4795"/><line style="stroke:#181818;stroke-width:1;" x1="1790.189" x2="1790.189" y1="554.4795" y2="570.4795"/><polygon fill="#181818" points="1786.189,560.4795,1794.189,560.4795,1790.189,570.4795" style="stroke:#181818;stroke-width:1;"/><line style="stroke:#181818;stroke-width:1;" x1="959.2085" x2="959.2085" y1="550.4795" y2="554.4795"/><line style="stroke:#181818;stroke-width:1;" x1="959.2085" x2="2092.0522" y1="554.4795" y2="554.4795"/><line style="stroke:#181818;stroke-width:1;" x1="2092.0522" x2="2092.0522" y1="554.4795" y2="604.9639"/><polygon fill="#181818" points="2088.0522,594.9639,2096.0522,594.9639,2092.0522,604.9639" style="stroke:#181818;stroke-width:1;"/><line style="stroke:#181818;stroke-width:1;" x1="1627.5825" x2="1627.5825" y1="673.417" y2="679.417"/><line style="stroke:#181818;stroke-width:1;" x1="1627.5825" x2="1880.9067" y1="679.417" y2="679.417"/><line style="stroke:#181818;stroke-width:1;" x1="1880.9067" x2="1880.9067" y1="679.417" y2="693.417"/><polygon fill="#181818" points="1876.9067,683.417,1884.9067,683.417,1880.9067,693.417" style="stroke:#181818;stroke-width:1;"/><line style="stroke:#181818;stroke-width:1;" x1="1790.189" x2="1790.189" y1="673.417" y2="679.417"/><line style="stroke:#181818;stroke-width:1;" x1="1790.189" x2="1949.7075" y1="679.417" y2="679.417"/><line style="stroke:#181818;stroke-width:1;" x1="1949.7075" x2="1949.7075" y1="679.417" y2="693.417"/><polygon fill="#181818" points="1945.7075,683.417,1953.7075,683.417,1949.7075,693.417" style="stroke:#181818;stroke-width:1;"/><line style="stroke:#181818;stroke-width:1;" x1="1946.2593" x2="1946.2593" y1="753.3857" y2="758.3857"/><line style="stroke:#181818;stroke-width:1;" x1="1946.2593" x2="118.6328" y1="758.3857" y2="758.3857"/><line style="stroke:#181818;stroke-width:1;" x1="118.6328" x2="118.6328" y1="758.3857" y2="773.3857"/><polygon fill="#181818" points="114.6328,763.3857,122.6328,763.3857,118.6328,773.3857" style="stroke:#181818;stroke-width:1;"/><line style="stroke:#181818;stroke-width:1;" x1="1372.6973" x2="878.5981" y1="458.5107" y2="458.5107"/><line style="stroke:#181818;stroke-width:1;" x1="878.5981" x2="878.5981" y1="458.5107" y2="490.5107"/><polygon fill="#181818" points="874.5981,480.5107,882.5981,480.5107,878.5981,490.5107" style="stroke:#181818;stroke-width:1;"/><line style="stroke:#181818;stroke-width:1;" x1="1396.6973" x2="1408.6973" y1="458.5107" y2="458.5107"/><line style="stroke:#181818;stroke-width:1;" x1="1408.6973" x2="1408.6973" y1="458.5107" y2="476.5107"/><line style="stroke:#181818;stroke-width:1;" x1="1408.6973" x2="480.6763" y1="476.5107" y2="476.5107"/><line style="stroke:#181818;stroke-width:1;" x1="480.6763" x2="480.6763" y1="476.5107" y2="490.5107"/><polygon fill="#181818" points="476.6763,480.5107,484.6763,480.5107,480.6763,490.5107" style="stroke:#181818;stroke-width:1;"/><line style="stroke:#181818;stroke-width:1;" x1="118.6328" x2="118.6328" y1="807.3545" y2="829.3545"/><line style="stroke:#181818;stroke-width:1;" x1="118.6328" x2="1372.6973" y1="829.3545" y2="829.3545"/><polygon fill="#181818" points="1362.6973,825.3545,1372.6973,829.3545,1362.6973,833.3545" style="stroke:#181818;stroke-width:1;"/><line style="stroke:#181818;stroke-width:1;" x1="480.6763" x2="480.6763" y1="524.4795" y2="811.3545"/><line style="stroke:#181818;stroke-width:1;" x1="480.6763" x2="1414.6973" y1="811.3545" y2="811.3545"/><line style="stroke:#181818;stroke-width:1;" x1="1414.6973" x2="1414.6973" y1="811.3545" y2="829.3545"/><line style="stroke:#181818;stroke-width:1;" x1="1414.6973" x2="1396.6973" y1="829.3545" y2="829.3545"/><polygon fill="#181818" points="1406.6973,825.3545,1396.6973,829.3545,1406.6973,833.3545" style="stroke:#181818;stroke-width:1;"/><line style="stroke:#181818;stroke-width:1;" x1="1089.6719" x2="305.853" y1="252.6045" y2="252.6045"/><line style="stroke:#181818;stroke-width:1;" x1="305.853" x2="305.853" y1="252.6045" y2="284.6045"/><polygon fill="#181818" points="301.853,274.6045,309.853,274.6045,305.853,284.6045" style="stroke:#181818;stroke-width:1;"/><line style="stroke:#181818;stroke-width:1;" x1="1113.6719" x2="1125.6719" y1="252.6045" y2="252.6045"/><line style="stroke:#181818;stroke-width:1;" x1="1125.6719" x2="1125.6719" y1="252.6045" y2="270.6045"/><line style="stroke:#181818;stroke-width:1;" x1="1125.6719" x2="678.0288" y1="270.6045" y2="270.6045"/><line style="stroke:#181818;stroke-width:1;" x1="678.0288" x2="678.0288" y1="270.6045" y2="284.6045"/><polygon fill="#181818" points="674.0288,274.6045,682.0288,274.6045,678.0288,284.6045" style="stroke:#181818;stroke-width:1;"/><line style="stroke:#181818;stroke-width:1;" x1="1384.6973" x2="1384.6973" y1="841.3545" y2="845.3545"/><line style="stroke:#181818;stroke-width:1;" x1="1384.6973" x2="1071.6719" y1="845.3545" y2="845.3545"/><line style="stroke:#181818;stroke-width:1;" x1="1071.6719" x2="1071.6719" y1="845.3545" y2="863.3545"/><line style="stroke:#181818;stroke-width:1;" x1="1071.6719" x2="1089.6719" y1="863.3545" y2="863.3545"/><polygon fill="#181818" points="1079.6719,859.3545,1089.6719,863.3545,1079.6719,867.3545" style="stroke:#181818;stroke-width:1;"/><line style="stroke:#181818;stroke-width:1;" x1="678.0288" x2="678.0288" y1="318.5732" y2="845.3545"/><line style="stroke:#181818;stroke-width:1;" x1="678.0288" x2="1131.6719" y1="845.3545" y2="845.3545"/><line style="stroke:#181818;stroke-width:1;" x1="1131.6719" x2="1131.6719" y1="845.3545" y2="863.3545"/><line style="stroke:#181818;stroke-width:1;" x1="1131.6719" x2="1113.6719" y1="863.3545" y2="863.3545"/><polygon fill="#181818" points="1123.6719,859.3545,1113.6719,863.3545,1123.6719,867.3545" style="stroke:#181818;stroke-width:1;"/><line style="stroke:#181818;stroke-width:1;" x1="1101.6719" x2="1101.6719" y1="875.3545" y2="880.3545"/><line style="stroke:#181818;stroke-width:1;" x1="1101.6719" x2="495.7424" y1="880.3545" y2="880.3545"/><line style="stroke:#181818;stroke-width:1;" x1="495.7424" x2="495.7424" y1="880.3545" y2="895.3545"/><polygon fill="#181818" points="491.7424,885.3545,499.7424,885.3545,495.7424,895.3545" style="stroke:#181818;stroke-width:1;"/><text fill="#000000" font-family="sans-serif" font-size="18" lengthAdjust="spacing" textLength="57.1201" x="371.4338" y="29.4531">Kunde</text><text fill="#000000" font-family="sans-serif" font-size="18" lengthAdjust="spacing" textLength="157.1396" x="939.4695" y="29.4531">Webshop-System</text><text fill="#000000" font-family="sans-serif" font-size="18" lengthAdjust="spacing" textLength="148.4648" x="1322.6599" y="29.4531">Zahlungssystem</text><text fill="#000000" font-family="sans-serif" font-size="18" lengthAdjust="spacing" textLength="50.959" x="1601.103" y="29.4531">Lager</text><text fill="#000000" font-family="sans-serif" font-size="18" lengthAdjust="spacing" textLength="113.8008" x="1732.2886" y="29.4531">Buchhaltung</text><text fill="#000000" font-family="sans-serif" font-size="18" lengthAdjust="spacing" textLength="74.0303" x="1988.6846" y="29.4531">Versand</text><!--SRC=[VPBDQjmm4CVlVeev9eT0pyvfSmWD3IKqq4133cDxP0dBafcHioJuSV8OkUsBTRnUVsoWlHXByv-V_lCXZGiTChOWwSsJVjcLgMzz9cl4OXNtBjHWq0jj8gL7aLtIdA9FT5V6yEZU2Rvbmuy-L3Haaf1JbZzmhFec0VQoFtnOJ-4wo-y2F25JQ28NuAaUBuSdAiJ6xkhnJHArGvR_9ZQ7pxf0RiWbwFZmQKQbCt1n2SbIW8lddLVhEqwk8G-lIyRBPGOmMm78xnqPOgoOH0X8Aw9YP6de3rhVXrhKBYmMDNc-bvEVLGfLpwNLbonFsZD7iqYzH5ypkT8UtIZoQudZPNv3Ul37b49_3n_9rHCMm4HkZZ-QV8yryN0wvMF_e8bjwqHS38vupfc3semEosQB0gpHXHbuqvVMea_wyeBzHQKDa_kZgmrq2IbOI1lxJx0EJZ1K2_HqzbZeZ2hkLrEAMMiypyiViA7qzR5rf2jtwThaUonfafEkx6OWXgolIKhhjPDXdiaMUAiAufPyDUenlDCy2hNWJ7O2pkiMTBJfFqlttOKzET7TD_1prBwURVHrDb4bnUul]--></g></svg>