<svg xmlns="http://www.w3.org/2000/svg" xmlns:xlink="http://www.w3.org/1999/xlink" contentStyleType="text/css" data-diagram-type="STATE" height="682px" preserveAspectRatio="none" style="width:492px;height:682px;background:#FFFFFF;" version="1.1" viewBox="0 0 492 682" width="492px" zoomAndPan="magnify"><defs/><g><g id="Erstellt"><rect fill="#F1F1F1" height="64.2344" rx="12.5" ry="12.5" style="stroke:#181818;stroke-width:0.5;" width="225.875" x="157.37" y="87"/><line style="stroke:#181818;stroke-width:0.5;" x1="157.37" x2="383.245" y1="113.2969" y2="113.2969"/><text fill="#000000" font-family="sans-serif" font-size="14" lengthAdjust="spacing" textLength="49.2666" x="245.6742" y="104.9951">Erstellt</text><text fill="#000000" font-family="sans-serif" font-size="12" lengthAdjust="spacing" textLength="205.875" x="162.37" y="129.4355">entry / bestellnummer_generieren</text><text fill="#000000" font-family="sans-serif" font-size="12" lengthAdjust="spacing" textLength="156.3281" x="162.37" y="143.4043">entry / kunde_informieren</text></g><g id="Bezahlt"><rect fill="#D4EDDA" height="50.2656" rx="12.5" ry="12.5" style="stroke:#181818;stroke-width:0.5;" width="188.1582" x="35.22" y="228.23"/><line style="stroke:#181818;stroke-width:0.5;" x1="35.22" x2="223.3782" y1="254.5269" y2="254.5269"/><text fill="#000000" font-family="sans-serif" font-size="14" lengthAdjust="spacing" textLength="52.3975" x="103.1004" y="246.2251">Bezahlt</text><text fill="#000000" font-family="sans-serif" font-size="12" lengthAdjust="spacing" textLength="168.1582" x="40.22" y="270.6655">entry / zahlung_bestaetigen</text></g><g id="InBearbeitung"><rect fill="#D4EDDA" height="78.2031" rx="12.5" ry="12.5" style="stroke:#181818;stroke-width:0.5;" width="222.6055" x="7" y="388.5"/><line style="stroke:#181818;stroke-width:0.5;" x1="7" x2="229.6055" y1="414.7969" y2="414.7969"/><text fill="#000000" font-family="sans-serif" font-size="14" lengthAdjust="spacing" textLength="99.0664" x="68.7695" y="406.4951">InBearbeitung</text><text fill="#000000" font-family="sans-serif" font-size="12" lengthAdjust="spacing" textLength="202.6055" x="12" y="430.9355">entry / kommissionierung_starten</text><text fill="#000000" font-family="sans-serif" font-size="12" lengthAdjust="spacing" textLength="176.4961" x="12" y="444.9043">do / artikel_zusammenstellen</text><text fill="#000000" font-family="sans-serif" font-size="12" lengthAdjust="spacing" textLength="143.9238" x="12" y="458.873">exit / paket_vorbereiten</text></g><g id="Versendet"><rect fill="#D4EDDA" height="50" rx="12.5" ry="12.5" style="stroke:#181818;stroke-width:0.5;" width="91.7158" x="168.44" y="543.7"/><line style="stroke:#181818;stroke-width:0.5;" x1="168.44" x2="260.1558" y1="569.9969" y2="569.9969"/><text fill="#000000" font-family="sans-serif" font-size="14" lengthAdjust="spacing" textLength="71.7158" x="178.44" y="561.6951">Versendet</text></g><ellipse cx="270.3" cy="16" fill="#222222" rx="10" ry="10" style="stroke:#222222;stroke-width:1;"/><g id="Storniert"><rect fill="#F1F1F1" height="50" rx="12.5" ry="12.5" style="stroke:#181818;stroke-width:0.5;" width="81.3184" x="370.64" y="308.5"/><line style="stroke:#181818;stroke-width:0.5;" x1="370.64" x2="451.9584" y1="334.7969" y2="334.7969"/><text fill="#000000" font-family="sans-serif" font-size="14" lengthAdjust="spacing" textLength="61.3184" x="380.64" y="326.4951">Storniert</text></g><ellipse cx="361.3" cy="665.7" fill="none" rx="11" ry="11" style="stroke:#222222;stroke-width:1;"/><ellipse cx="361.3" cy="665.7" fill="#222222" rx="6" ry="6" style="stroke:#222222;stroke-width:1;"/><!--link *start* to Erstellt--><g class="link" data-entity-1=".start." data-entity-2="Erstellt" data-source-line="4" data-uid="lnk3" id="link_.start._Erstellt"><path d="M270.3,26.33 C270.3,39.92 270.3,59.81 270.3,80.64" fill="none" id="*start*-to-Erstellt" style="stroke:#181818;stroke-width:1;"/><polygon fill="#181818" points="270.3,86.64,274.3,77.64,270.3,81.64,266.3,77.64,270.3,86.64" style="stroke:#181818;stroke-width:1;"/></g><!--link Erstellt to Bezahlt--><g class="link" data-entity-1="Erstellt" data-entity-2="Bezahlt" data-source-line="23" data-uid="lnk4" id="link_Erstellt_Bezahlt"><path d="M158.37,151.71 C146.14,159.49 135.26,169.18 127.3,181.23 C118.32,194.84 117.9695,207.4433 120.8695,222.1533" fill="none" id="Erstellt-to-Bezahlt" style="stroke:#181818;stroke-width:1;"/><polygon fill="#181818" points="122.03,228.04,124.2137,218.4363,121.0629,223.1344,116.3647,219.9836,122.03,228.04" style="stroke:#181818;stroke-width:1;"/><text fill="#000000" font-family="sans-serif" font-size="13" lengthAdjust="spacing" textLength="238.2212" x="128.3" y="194.2969">zahlung_erfolgt / rechnung_erstellen</text></g><!--link Erstellt to Storniert--><g class="link" data-entity-1="Erstellt" data-entity-2="Storniert" data-source-line="24" data-uid="lnk6" id="link_Erstellt_Storniert"><path d="M338.9,151.66 C351.09,159.83 362.64,169.66 371.3,181.23 C399.79,219.29 407.5798,270.0162 409.9398,302.0962" fill="none" id="Erstellt-to-Storniert" style="stroke:#181818;stroke-width:1;"/><polygon fill="#181818" points="410.38,308.08,413.7089,298.8108,410.0132,303.0935,405.7305,299.3977,410.38,308.08" style="stroke:#181818;stroke-width:1;"/><text fill="#000000" font-family="sans-serif" font-size="13" lengthAdjust="spacing" textLength="102.2163" x="382.3" y="194.2969">kunde_storniert</text></g><!--link Bezahlt to InBearbeitung--><g class="link" data-entity-1="Bezahlt" data-entity-2="InBearbeitung" data-source-line="26" data-uid="lnk7" id="link_Bezahlt_InBearbeitung"><path d="M127.75,278.68 C125.93,307.14 123.2826,348.6622 121.1426,382.1522" fill="none" id="Bezahlt-to-InBearbeitung" style="stroke:#2E7D32;stroke-width:1;"/><polygon fill="#2E7D32" points="120.76,388.14,125.3258,379.4134,121.0788,383.1502,117.3421,378.9032,120.76,388.14" style="stroke:#2E7D32;stroke-width:1;"/><text fill="#000000" font-family="sans-serif" font-size="13" lengthAdjust="spacing" textLength="172.4722" x="127.3" y="338.0669">kommissionierung_starten</text></g><!--link InBearbeitung to Versendet--><g class="link" data-entity-1="InBearbeitung" data-entity-2="Versendet" data-source-line="27" data-uid="lnk8" id="link_InBearbeitung_Versendet"><path d="M107.05,466.87 C104.69,482.38 105.01,499.86 113.3,513.7 C125.31,533.74 142.0084,544.5335 162.5784,552.7535" fill="none" id="InBearbeitung-to-Versendet" style="stroke:#2E7D32;stroke-width:1;"/><polygon fill="#2E7D32" points="168.15,554.98,161.2769,547.9259,163.507,553.1246,158.3083,555.3547,168.15,554.98" style="stroke:#2E7D32;stroke-width:1;"/><text fill="#000000" font-family="sans-serif" font-size="13" lengthAdjust="spacing" textLength="270.9116" x="114.3" y="509.7669">versand_beauftragt / tracking_generieren</text></g><!--link Versendet to *end*--><g class="link" data-entity-1="Versendet" data-entity-2=".end." data-source-line="29" data-uid="lnk10" id="link_Versendet_.end."><path d="M252.16,594.16 C285.85,615.94 327.6709,642.9631 347.1809,655.5731" fill="none" id="Versendet-to-*end*" style="stroke:#181818;stroke-width:1;"/><polygon fill="#181818" points="352.22,658.83,346.8327,650.5852,348.0208,656.1159,342.4901,657.304,352.22,658.83" style="stroke:#181818;stroke-width:1;"/></g><!--link Storniert to *end*--><g class="link" data-entity-1="Storniert" data-entity-2=".end." data-source-line="30" data-uid="lnk11" id="link_Storniert_.end."><path d="M408.78,358.91 C405.11,393.46 397.79,458.56 389.3,513.7 C381.11,566.93 369.6164,624.2925 364.6264,648.6025" fill="none" id="Storniert-to-*end*" style="stroke:#181818;stroke-width:1;"/><polygon fill="#181818" points="363.42,654.48,369.148,646.4681,364.4254,649.5821,361.3114,644.8595,363.42,654.48" style="stroke:#181818;stroke-width:1;"/></g><!--SRC=[TLBBQiCm4BphAqHoAuIMj538eT103pa7UWd1ADRQ4PQbi5gdJKh_lIixjgEGNcpjp3vcHmgLSGU5gfQ1JXRuYoQdfhOYZCnUQVzbN2aBPGDSCRbL8RmJr-mQWbNktTgSGJw9pSDMpcPlyWC3WRKaH21582SzC94g3Apy4N8C5X8SuKa-oXsqa6lg6Z0hmG4QG73tiwl6QSYCAppMNThlC7O9PxM_JBsSvLI_WDQg7TvZOxSODwxCeWO5PCgatyejGU4E375EspL1ajufSwNNrxK9mNZ7QkCexetKRdTReZtdCsagiDcv2OeDSQq1TzFXsn0N75G5b1qzCyXSii0dO03sgxDaY7hXGWm6nsiSxUbj0IoyBUCKX7plEgXNbDIkoMFSC5PtLnHwH8Y-yMmpdSEhVfvlkU9sdN-DIXEJ7kD62tdaitAQhr8r1Q5gPVC_vtTSNZyhCLP5vVo8nQZ-Wlm1]--></g></svg>