<svg xmlns="http://www.w3.org/2000/svg" xmlns:xlink="http://www.w3.org/1999/xlink" contentStyleType="text/css" data-diagram-type="CLASS" height="507px" preserveAspectRatio="none" style="width:291px;height:507px;background:#FFFFFF;" version="1.1" viewBox="0 0 291 507" width="291px" zoomAndPan="magnify"><defs/><g><!--class Firma--><g class="entity" data-entity="Firma" data-source-line="4" data-uid="ent0002" id="entity_Firma"><rect fill="#F1F1F1" height="74.8906" rx="2.5" ry="2.5" style="stroke:#181818;stroke-width:0.5;" width="112.1533" x="20.14" y="7"/><text fill="#000000" font-family="sans-serif" font-size="14" lengthAdjust="spacing" textLength="39.915" x="56.2591" y="24.9951">Firma</text><line style="stroke:#181818;stroke-width:0.5;" x1="21.14" x2="131.2933" y1="33.2969" y2="33.2969"/><text fill="#000000" font-family="sans-serif" font-size="14" lengthAdjust="spacing" textLength="98.8477" x="26.14" y="50.292">-firmenNr : int</text><text fill="#000000" font-family="sans-serif" font-size="14" lengthAdjust="spacing" textLength="100.1533" x="26.14" y="66.5889">-name : String</text><line style="stroke:#181818;stroke-width:0.5;" x1="21.14" x2="131.2933" y1="73.8906" y2="73.8906"/></g><!--class Abteilung--><g class="entity" data-entity="Abteilung" data-source-line="9" data-uid="ent0003" id="entity_Abteilung"><rect fill="#F1F1F1" height="74.8906" rx="2.5" ry="2.5" style="stroke:#181818;stroke-width:0.5;" width="138.4238" x="7" y="208.89"/><text fill="#000000" font-family="sans-serif" font-size="14" lengthAdjust="spacing" textLength="66.9785" x="42.7227" y="226.8851">Abteilung</text><line style="stroke:#181818;stroke-width:0.5;" x1="8" x2="144.4238" y1="235.1869" y2="235.1869"/><text fill="#000000" font-family="sans-serif" font-size="14" lengthAdjust="spacing" textLength="126.4238" x="13" y="252.182">-abteilungsNr : int</text><text fill="#000000" font-family="sans-serif" font-size="14" lengthAdjust="spacing" textLength="100.1533" x="13" y="268.4789">-name : String</text><line style="stroke:#181818;stroke-width:0.5;" x1="8" x2="144.4238" y1="275.7806" y2="275.7806"/></g><!--class Mitarbeiter--><g class="entity" data-entity="Mitarbeiter" data-source-line="14" data-uid="ent0004" id="entity_Mitarbeiter"><rect fill="#F1F1F1" height="74.8906" rx="2.5" ry="2.5" style="stroke:#181818;stroke-width:0.5;" width="125.6064" x="13.41" y="425.78"/><text fill="#000000" font-family="sans-serif" font-size="14" lengthAdjust="spacing" textLength="77.041" x="37.6927" y="443.7751">Mitarbeiter</text><line style="stroke:#181818;stroke-width:0.5;" x1="14.41" x2="138.0164" y1="452.0769" y2="452.0769"/><text fill="#000000" font-family="sans-serif" font-size="14" lengthAdjust="spacing" textLength="113.6064" x="19.41" y="469.072">-personalNr : int</text><text fill="#000000" font-family="sans-serif" font-size="14" lengthAdjust="spacing" textLength="100.1533" x="19.41" y="485.3689">-name : String</text><line style="stroke:#181818;stroke-width:0.5;" x1="14.41" x2="138.0164" y1="492.6706" y2="492.6706"/></g><!--reverse link Firma to Abteilung--><g class="link" data-entity-1="Firma" data-entity-2="Abteilung" data-source-line="19" data-uid="lnk5" id="link_Firma_Abteilung"><path codeLine="19" d="M76.21,94.11 C76.21,130.06 76.21,172.58 76.21,208.57" fill="none" id="Firma-backto-Abteilung" style="stroke:#181818;stroke-width:1;"/><polygon fill="#181818" points="76.21,82.11,72.21,88.11,76.21,94.11,80.21,88.11,76.21,82.11" style="stroke:#181818;stroke-width:1;"/><polygon fill="#000000" points="134.6529,125.4564,137.5918,116.4113,131.7139,116.4113,134.6529,125.4564" style="stroke:#000000;stroke-width:1;"/><text fill="#000000" font-family="sans-serif" font-size="13" lengthAdjust="spacing" textLength="76.5654" x="143.6529" y="124.9569">besteht aus</text><path d="M81.21,134.0228 L81.21,174.0228 L269.21,174.0228 L269.21,144.0228 L259.21,134.0228 L81.21,134.0228" fill="#FEFFDD" style="stroke:#181818;stroke-width:0.5;"/><path d="M259.21,134.0228 L259.21,144.0228 L269.21,144.0228 L259.21,134.0228" fill="#FEFFDD" style="stroke:#181818;stroke-width:0.5;"/><text fill="#000000" font-family="sans-serif" font-size="13" lengthAdjust="spacing" textLength="151.3408" x="87.21" y="151.0897">Komposition: Abteilung</text><text fill="#000000" font-family="sans-serif" font-size="13" lengthAdjust="spacing" textLength="167.4512" x="87.21" y="166.2225">existiert nicht ohne Firma</text><text fill="#000000" font-family="sans-serif" font-size="13" lengthAdjust="spacing" textLength="8.271" x="67.5446" y="101.951">1</text><text fill="#000000" font-family="sans-serif" font-size="13" lengthAdjust="spacing" textLength="23.0356" x="51.2362" y="197.8683">1..*</text></g><!--reverse link Abteilung to Mitarbeiter--><g class="link" data-entity-1="Abteilung" data-entity-2="Mitarbeiter" data-source-line="25" data-uid="lnk6" id="link_Abteilung_Mitarbeiter"><path codeLine="25" d="M76.21,296.28 C76.21,335.76 76.21,385.97 76.21,425.41" fill="none" id="Abteilung-backto-Mitarbeiter" style="stroke:#181818;stroke-width:1;"/><polygon fill="none" points="76.21,284.28,72.21,290.28,76.21,296.28,80.21,290.28,76.21,284.28" style="stroke:#181818;stroke-width:1;"/><polygon fill="#000000" points="169.8062,327.3464,172.7451,318.3013,166.8673,318.3013,169.8062,327.3464" style="stroke:#000000;stroke-width:1;"/><text fill="#000000" font-family="sans-serif" font-size="13" lengthAdjust="spacing" textLength="21.3027" x="178.8062" y="326.8469">hat</text><path d="M81.21,335.9128 L81.21,390.9128 L284.21,390.9128 L284.21,345.9128 L274.21,335.9128 L81.21,335.9128" fill="#FEFFDD" style="stroke:#181818;stroke-width:0.5;"/><path d="M274.21,335.9128 L274.21,345.9128 L284.21,345.9128 L274.21,335.9128" fill="#FEFFDD" style="stroke:#181818;stroke-width:0.5;"/><text fill="#000000" font-family="sans-serif" font-size="13" lengthAdjust="spacing" textLength="159.9102" x="87.21" y="352.9797">Aggregation: Mitarbeiter</text><text fill="#000000" font-family="sans-serif" font-size="13" lengthAdjust="spacing" textLength="182.4951" x="87.21" y="368.1125">kann mehreren Abteilungen</text><text fill="#000000" font-family="sans-serif" font-size="13" lengthAdjust="spacing" textLength="104.9521" x="87.21" y="383.2453">zugeordnet sein</text><text fill="#000000" font-family="sans-serif" font-size="13" lengthAdjust="spacing" textLength="23.0356" x="51.3079" y="303.8847">1..*</text><text fill="#000000" font-family="sans-serif" font-size="13" lengthAdjust="spacing" textLength="23.0356" x="51.2359" y="414.6997">1..*</text></g><!--SRC=[ZP11JyCm38Nl-HNMZfCsmRK7f5sG48BBVe7RlRNMKgUANG53_7V2EcWb9CGbYVto-Rt4Jg83P-x9_2sYh5aQ7_iOR5OwFgGNqPQE70qBfObijlF2rAFZeKcwbpFe9bm4kfVSCxq7eWqTondwdAaYKR-qb7kKSbzmRSD7k5AxsY5nB7OJoT-r_OT-4kTSGnpvoW_8bfJZt_IKTNMxelLcK_RjThrQHAceXZaw9nwDxe8c1oMbA7eg0nzJFoGJbwJLJ1K1hs8ko4ugJQ5JfvZ-9K0Fz3KcXDdcwflc2CltLDIn_pRVjMr6ovFvudwHJgnAFRgC39s3GOjs7bkaV50u6KH_ydm2]--></g></svg>