<svg xmlns="http://www.w3.org/2000/svg" xmlns:xlink="http://www.w3.org/1999/xlink" contentStyleType="text/css" data-diagram-type="STATE" height="792px" preserveAspectRatio="none" style="width:936px;height:792px;background:#FFFFFF;" version="1.1" viewBox="0 0 936 792" width="936px" zoomAndPan="magnify"><defs/><g><g id="Erstellt"><rect fill="#F1F1F1" height="50.2656" rx="12.5" ry="12.5" style="stroke:#181818;stroke-width:0.5;" width="225.875" x="444.37" y="103"/><line style="stroke:#181818;stroke-width:0.5;" x1="444.37" x2="670.245" y1="129.2969" y2="129.2969"/><text fill="#000000" font-family="sans-serif" font-size="14" lengthAdjust="spacing" textLength="49.2666" x="532.6742" y="120.9951">Erstellt</text><text fill="#000000" font-family="sans-serif" font-size="12" lengthAdjust="spacing" textLength="205.875" x="449.37" y="145.4355">entry / bestellnummer_generieren</text></g><g id="Bezahlt"><rect fill="#D4EDDA" height="50.2656" rx="12.5" ry="12.5" style="stroke:#181818;stroke-width:0.5;" width="188.1582" x="233.22" y="230.27"/><line style="stroke:#181818;stroke-width:0.5;" x1="233.22" x2="421.3782" y1="256.5669" y2="256.5669"/><text fill="#000000" font-family="sans-serif" font-size="14" lengthAdjust="spacing" textLength="52.3975" x="301.1004" y="248.2651">Bezahlt</text><text fill="#000000" font-family="sans-serif" font-size="12" lengthAdjust="spacing" textLength="168.1582" x="238.22" y="272.7055">entry / zahlung_bestaetigen</text></g><g id="InBearbeitung"><rect fill="#F1F1F1" height="78.2031" rx="12.5" ry="12.5" style="stroke:#181818;stroke-width:0.5;" width="222.6055" x="7" y="357.53"/><line style="stroke:#181818;stroke-width:0.5;" x1="7" x2="229.6055" y1="383.8269" y2="383.8269"/><text fill="#000000" font-family="sans-serif" font-size="14" lengthAdjust="spacing" textLength="99.0664" x="68.7695" y="375.5251">InBearbeitung</text><text fill="#000000" font-family="sans-serif" font-size="12" lengthAdjust="spacing" textLength="202.6055" x="12" y="399.9655">entry / kommissionierung_starten</text><text fill="#000000" font-family="sans-serif" font-size="12" lengthAdjust="spacing" textLength="176.4961" x="12" y="413.9343">do / artikel_zusammenstellen</text><text fill="#000000" font-family="sans-serif" font-size="12" lengthAdjust="spacing" textLength="143.9238" x="12" y="427.903">exit / paket_vorbereiten</text></g><g id="Versendet"><rect fill="#D4EDDA" height="64.2344" rx="12.5" ry="12.5" style="stroke:#181818;stroke-width:0.5;" width="197.6211" x="19.49" y="512.74"/><line style="stroke:#181818;stroke-width:0.5;" x1="19.49" x2="217.1111" y1="539.0369" y2="539.0369"/><text fill="#000000" font-family="sans-serif" font-size="14" lengthAdjust="spacing" textLength="71.7158" x="82.4426" y="530.7351">Versendet</text><text fill="#000000" font-family="sans-serif" font-size="12" lengthAdjust="spacing" textLength="158.5781" x="24.49" y="555.1755">entry / tracking_aktivieren</text><text fill="#000000" font-family="sans-serif" font-size="12" lengthAdjust="spacing" textLength="177.6211" x="24.49" y="569.1443">do / lieferstatus_aktualisieren</text></g><ellipse cx="557.3" cy="16" fill="#222222" rx="10" ry="10" style="stroke:#222222;stroke-width:1;"/><g id="Storniert"><rect fill="#F1F1F1" height="50" rx="12.5" ry="12.5" style="stroke:#181818;stroke-width:0.5;" width="81.3184" x="406.64" y="371.63"/><line style="stroke:#181818;stroke-width:0.5;" x1="406.64" x2="487.9584" y1="397.9269" y2="397.9269"/><text fill="#000000" font-family="sans-serif" font-size="14" lengthAdjust="spacing" textLength="61.3184" x="416.64" y="389.6251">Storniert</text></g><g id="Zugestellt"><rect fill="#F1F1F1" height="50" rx="12.5" ry="12.5" style="stroke:#181818;stroke-width:0.5;" width="90.6289" x="188.99" y="653.97"/><line style="stroke:#181818;stroke-width:0.5;" x1="188.99" x2="279.6189" y1="680.2669" y2="680.2669"/><text fill="#000000" font-family="sans-serif" font-size="14" lengthAdjust="spacing" textLength="70.6289" x="198.99" y="671.9651">Zugestellt</text></g><ellipse cx="398.3" cy="775.97" fill="none" rx="11" ry="11" style="stroke:#222222;stroke-width:1;"/><ellipse cx="398.3" cy="775.97" fill="#222222" rx="6" ry="6" style="stroke:#222222;stroke-width:1;"/><!--link *start* to Erstellt--><g class="link" data-entity-1=".start." data-entity-2="Erstellt" data-source-line="4" data-uid="lnk3" id="link_.start._Erstellt"><path d="M557.3,26.39 C557.3,43.14 557.3,72.67 557.3,96.73" fill="none" id="*start*-to-Erstellt" style="stroke:#181818;stroke-width:1;"/><polygon fill="#181818" points="557.3,102.73,561.3,93.73,557.3,97.73,553.3,93.73,557.3,102.73" style="stroke:#181818;stroke-width:1;"/><text fill="#000000" font-family="sans-serif" font-size="13" lengthAdjust="spacing" textLength="163.5537" x="558.3" y="69.0669">Kunde legt Bestellung an</text></g><!--link Erstellt to Bezahlt--><g class="link" data-entity-1="Erstellt" data-entity-2="Bezahlt" data-source-line="25" data-uid="lnk4" id="link_Erstellt_Bezahlt"><path d="M443.97,142.06 C392.62,150.48 339.9,163.63 324.3,183.27 C314.08,196.14 313.9184,208.9989 317.4384,223.9889" fill="none" id="Erstellt-to-Bezahlt" style="stroke:#181818;stroke-width:1;"/><polygon fill="#181818" points="318.81,229.83,320.6466,220.1539,317.667,224.9624,312.8585,221.9827,318.81,229.83" style="stroke:#181818;stroke-width:1;"/><text fill="#000000" font-family="sans-serif" font-size="13" lengthAdjust="spacing" textLength="436.8394" x="325.3" y="196.3369">zahlung_erfolgt [betrag == rechnungsbetrag] / rechnung_erstellen</text></g><!--link Erstellt to Storniert--><g class="link" data-entity-1="Erstellt" data-entity-2="Storniert" data-source-line="26" data-uid="lnk6" id="link_Erstellt_Storniert"><path d="M670.53,145.79 C712.77,154.51 753.6,166.85 766.3,183.27 C791.71,216.09 913.17,148.73 747.3,327.53 C712.52,365.02 567.8796,383.9265 494.1896,391.3765" fill="none" id="Erstellt-to-Storniert" style="stroke:#181818;stroke-width:1;"/><polygon fill="#181818" points="488.22,391.98,497.5767,395.0544,493.1946,391.4771,496.772,387.095,488.22,391.98" style="stroke:#181818;stroke-width:1;"/><text fill="#000000" font-family="sans-serif" font-size="13" lengthAdjust="spacing" textLength="102.2163" x="826.3" y="259.9669">kunde_storniert</text></g><!--link Bezahlt to InBearbeitung--><g class="link" data-entity-1="Bezahlt" data-entity-2="InBearbeitung" data-source-line="28" data-uid="lnk7" id="link_Bezahlt_InBearbeitung"><path d="M232.78,268.48 C182.01,277.12 126.73,290.76 111.3,310.53 C101.18,323.51 99.9598,335.3492 103.1798,351.2592" fill="none" id="Bezahlt-to-InBearbeitung" style="stroke:#181818;stroke-width:1;"/><polygon fill="#181818" points="104.37,357.14,106.5052,347.5254,103.3782,352.2394,98.6642,349.1123,104.37,357.14" style="stroke:#181818;stroke-width:1;"/><text fill="#000000" font-family="sans-serif" font-size="13" lengthAdjust="spacing" textLength="265.8652" x="112.3" y="323.5969">bearbeitung_starten [artikel_verfuegbar]</text></g><!--link Bezahlt to Storniert--><g class="link" data-entity-1="Bezahlt" data-entity-2="Storniert" data-source-line="29" data-uid="lnk8" id="link_Bezahlt_Storniert"><path d="M356.36,280.89 C366.28,289.8 377.18,300.23 386.3,310.53 C403.3,329.71 416.7676,348.5772 428.4076,366.1572" fill="none" id="Bezahlt-to-Storniert" style="stroke:#181818;stroke-width:1;"/><polygon fill="#181818" points="431.72,371.16,430.0866,361.4475,428.9596,366.991,423.4162,365.8641,431.72,371.16" style="stroke:#181818;stroke-width:1;"/><text fill="#000000" font-family="sans-serif" font-size="13" lengthAdjust="spacing" textLength="338.0698" x="400.3" y="323.5969">artikel_nicht_verfuegbar / rueckerstattung_einleiten</text></g><!--link InBearbeitung to Versendet--><g class="link" data-entity-1="InBearbeitung" data-entity-2="Versendet" data-source-line="31" data-uid="lnk9" id="link_InBearbeitung_Versendet"><path d="M118.3,436.05 C118.3,459.91 118.3,484.19 118.3,506.58" fill="none" id="InBearbeitung-to-Versendet" style="stroke:#181818;stroke-width:1;"/><polygon fill="#181818" points="118.3,512.58,122.3,503.58,118.3,507.58,114.3,503.58,118.3,512.58" style="stroke:#181818;stroke-width:1;"/><text fill="#000000" font-family="sans-serif" font-size="13" lengthAdjust="spacing" textLength="270.9116" x="119.3" y="478.8069">versand_beauftragt / tracking_generieren</text></g><!--link Versendet to Zugestellt--><g class="link" data-entity-1="Versendet" data-entity-2="Zugestellt" data-source-line="33" data-uid="lnk11" id="link_Versendet_Zugestellt"><path d="M109.13,577.36 C106.59,592.56 106.55,610.39 115.3,623.97 C131.46,649.05 156.6365,661.0129 182.9265,668.2729" fill="none" id="Versendet-to-Zugestellt" style="stroke:#2E7D32;stroke-width:1;"/><polygon fill="#2E7D32" points="188.71,669.87,181.0995,663.6186,183.8904,668.5391,178.97,671.33,188.71,669.87" style="stroke:#2E7D32;stroke-width:1;"/><text fill="#000000" font-family="sans-serif" font-size="13" lengthAdjust="spacing" textLength="304.313" x="116.3" y="620.0369">zustellung_bestaetigt / kunde_benachrichtigen</text></g><!--link Zugestellt to *end*--><g class="link" data-entity-1="Zugestellt" data-entity-2=".end." data-source-line="35" data-uid="lnk13" id="link_Zugestellt_.end."><path d="M276.54,704.43 C314.5,726.43 362.2784,754.1021 383.6284,766.4721" fill="none" id="Zugestellt-to-*end*" style="stroke:#181818;stroke-width:1;"/><polygon fill="#181818" points="388.82,769.48,383.038,761.507,384.4937,766.9734,379.0274,768.4291,388.82,769.48" style="stroke:#181818;stroke-width:1;"/></g><!--link Storniert to *end*--><g class="link" data-entity-1="Storniert" data-entity-2=".end." data-source-line="36" data-uid="lnk14" id="link_Storniert_.end."><path d="M445.59,421.83 C442.51,463.31 435.41,550.64 425.3,623.97 C417.96,677.26 406.5927,734.5918 401.6227,758.8818" fill="none" id="Storniert-to-*end*" style="stroke:#181818;stroke-width:1;"/><polygon fill="#181818" points="400.42,764.76,406.1429,756.7445,401.4223,759.8615,398.3053,755.1408,400.42,764.76" style="stroke:#181818;stroke-width:1;"/></g><!--SRC=[RPDDQzmm48Rl-XKYkHMMbgHGAAIGXHv2Ze4SkYncRC_Qmh8SHgDDiwN_lIFRikmc5sFDnpEZTqQ-C-u527hj-SsYVCbK77ghVFQqK0-lnZNw1DRZobDPyFwU9QSCZ0_Lu9xC1VKNTVXqrBlT3_sJFAErhB_hn-1gr1ORrdiShK68u9Jo38pwAiLUQV0vyO_IQmewfZVzMPSJmeM-HoeQT4W62Ptwk_3sU85snit_-hh-YdKD8pNPCZIUfQaYmW7PD1lUWziZK8c69MQaRYmZSsl9v6xeU-Ez6Pnq6Ki8arZmxrFgGUB5QJgqnILua1kwyR8VXkDlmvBm0XroSHx4G-BRDFwCv574dwHOJXiniZKtpGILZBefe6DpdkJTHewzMeCdiKcju6De06lyCenbTd4TikH9QgJJO6Kb3YLAkKRVtMd2gdNYyvFfA2MIgK1AIcouJpnGL3QIkxXdekziKIeLZO7_grVcKng9FYJnpz9SmAO4EcuWwsefrfcgvLL6R3fWrKt2Z7mqpawZKTis8dEjgb0yk5hM4C8fIi3hOQnsNUMitU7w1h_LjpT7WVqA3IulHbPeVcnvhoDmqgb41rLBiVjntTKgD_Ob3rdb-ywMVm00]--></g></svg>