<svg xmlns="http://www.w3.org/2000/svg" xmlns:xlink="http://www.w3.org/1999/xlink" contentStyleType="text/css" data-diagram-type="STATE" height="943px" preserveAspectRatio="none" style="width:475px;height:943px;background:#FFFFFF;" version="1.1" viewBox="0 0 475 943" width="475px" zoomAndPan="magnify"><defs/><g><ellipse cx="303.31" cy="16" fill="#222222" rx="10" ry="10" style="stroke:#222222;stroke-width:1;"/><g id="Erstellt"><rect fill="#F1F1F1" height="50" rx="12.5" ry="12.5" style="stroke:#181818;stroke-width:0.5;" width="69.2666" x="268.68" y="103"/><line style="stroke:#181818;stroke-width:0.5;" x1="268.68" x2="337.9466" y1="129.2969" y2="129.2969"/><text fill="#000000" font-family="sans-serif" font-size="14" lengthAdjust="spacing" textLength="49.2666" x="278.68" y="120.9951">Erstellt</text></g><g id="Bezahlt"><rect fill="#F1F1F1" height="50" rx="12.5" ry="12.5" style="stroke:#181818;stroke-width:0.5;" width="72.3975" x="192.12" y="230"/><line style="stroke:#181818;stroke-width:0.5;" x1="192.12" x2="264.5175" y1="256.2969" y2="256.2969"/><text fill="#000000" font-family="sans-serif" font-size="14" lengthAdjust="spacing" textLength="52.3975" x="202.12" y="247.9951">Bezahlt</text></g><g id="Storniert"><rect fill="#F1F1F1" height="50" rx="12.5" ry="12.5" style="stroke:#181818;stroke-width:0.5;" width="81.3184" x="337.66" y="310"/><line style="stroke:#181818;stroke-width:0.5;" x1="337.66" x2="418.9784" y1="336.2969" y2="336.2969"/><text fill="#000000" font-family="sans-serif" font-size="14" lengthAdjust="spacing" textLength="61.3184" x="347.66" y="327.9951">Storniert</text></g><g id="InBearbeitung"><rect fill="#F1F1F1" height="50" rx="12.5" ry="12.5" style="stroke:#181818;stroke-width:0.5;" width="119.0664" x="160.78" y="390"/><line style="stroke:#181818;stroke-width:0.5;" x1="160.78" x2="279.8464" y1="416.2969" y2="416.2969"/><text fill="#000000" font-family="sans-serif" font-size="14" lengthAdjust="spacing" textLength="99.0664" x="170.78" y="407.9951">InBearbeitung</text></g><g id="Versendet"><rect fill="#F1F1F1" height="50" rx="12.5" ry="12.5" style="stroke:#181818;stroke-width:0.5;" width="91.7158" x="174.46" y="517"/><line style="stroke:#181818;stroke-width:0.5;" x1="174.46" x2="266.1758" y1="543.2969" y2="543.2969"/><text fill="#000000" font-family="sans-serif" font-size="14" lengthAdjust="spacing" textLength="71.7158" x="184.46" y="534.9951">Versendet</text></g><g id="Zugestellt"><rect fill="#F1F1F1" height="50" rx="12.5" ry="12.5" style="stroke:#181818;stroke-width:0.5;" width="90.6289" x="7" y="724"/><line style="stroke:#181818;stroke-width:0.5;" x1="7" x2="97.6289" y1="750.2969" y2="750.2969"/><text fill="#000000" font-family="sans-serif" font-size="14" lengthAdjust="spacing" textLength="70.6289" x="17" y="741.9951">Zugestellt</text></g><g id="InRuecksendung"><rect fill="#F1F1F1" height="50" rx="12.5" ry="12.5" style="stroke:#181818;stroke-width:0.5;" width="136.3203" x="129.15" y="644"/><line style="stroke:#181818;stroke-width:0.5;" x1="129.15" x2="265.4703" y1="670.2969" y2="670.2969"/><text fill="#000000" font-family="sans-serif" font-size="14" lengthAdjust="spacing" textLength="116.3203" x="139.15" y="661.9951">InRuecksendung</text></g><g id="Erstattet"><rect fill="#F1F1F1" height="50" rx="12.5" ry="12.5" style="stroke:#181818;stroke-width:0.5;" width="81.0449" x="114.79" y="804"/><line style="stroke:#181818;stroke-width:0.5;" x1="114.79" x2="195.8349" y1="830.2969" y2="830.2969"/><text fill="#000000" font-family="sans-serif" font-size="14" lengthAdjust="spacing" textLength="61.0449" x="124.79" y="821.9951">Erstattet</text></g><ellipse cx="155.31" cy="926" fill="none" rx="11" ry="11" style="stroke:#222222;stroke-width:1;"/><ellipse cx="155.31" cy="926" fill="#222222" rx="6" ry="6" style="stroke:#222222;stroke-width:1;"/><!--link *start* to Erstellt--><g class="link" data-entity-1=".start." data-entity-2="Erstellt" data-source-line="4" data-uid="lnk4" id="link_.start._Erstellt"><path d="M303.31,26.38 C303.31,43.11 303.31,72.59 303.31,96.63" fill="none" id="*start*-to-Erstellt" style="stroke:#181818;stroke-width:1;"/><polygon fill="#181818" points="303.31,102.63,307.31,93.63,303.31,97.63,299.31,93.63,303.31,102.63" style="stroke:#181818;stroke-width:1;"/><text fill="#000000" font-family="sans-serif" font-size="13" lengthAdjust="spacing" textLength="163.5537" x="304.31" y="69.0669">Kunde legt Bestellung an</text></g><!--link Erstellt to Bezahlt--><g class="link" data-entity-1="Erstellt" data-entity-2="Bezahlt" data-source-line="6" data-uid="lnk6" id="link_Erstellt_Bezahlt"><path d="M268.34,146.34 C254.27,155.25 239.47,167.52 231.31,183 C223.84,197.19 222.6931,209.2998 223.8631,223.6698" fill="none" id="Erstellt-to-Bezahlt" style="stroke:#181818;stroke-width:1;"/><polygon fill="#181818" points="224.35,229.65,227.6064,220.3551,223.9442,224.6665,219.6328,221.0043,224.35,229.65" style="stroke:#181818;stroke-width:1;"/><text fill="#000000" font-family="sans-serif" font-size="13" lengthAdjust="spacing" textLength="100.7056" x="232.31" y="196.0669">zahlung_erfolgt</text></g><!--link Erstellt to Storniert--><g class="link" data-entity-1="Erstellt" data-entity-2="Storniert" data-source-line="7" data-uid="lnk8" id="link_Erstellt_Storniert"><path d="M320.84,153.42 C326.7,162.4 332.86,172.86 337.31,183 C356.09,225.78 367.0016,273.349 372.8916,303.829" fill="none" id="Erstellt-to-Storniert" style="stroke:#181818;stroke-width:1;"/><polygon fill="#181818" points="374.03,309.72,376.2498,300.1246,373.0813,304.8108,368.3951,301.6424,374.03,309.72" style="stroke:#181818;stroke-width:1;"/><text fill="#000000" font-family="sans-serif" font-size="13" lengthAdjust="spacing" textLength="66.5996" x="344.31" y="196.0669">stornieren</text></g><!--link Bezahlt to InBearbeitung--><g class="link" data-entity-1="Bezahlt" data-entity-2="InBearbeitung" data-source-line="9" data-uid="lnk10" id="link_Bezahlt_InBearbeitung"><path d="M217.16,280.49 C213.58,289.56 210.1,300.06 208.31,310 C203.44,337.19 207.2028,362.9202 212.1928,384.0802" fill="none" id="Bezahlt-to-InBearbeitung" style="stroke:#181818;stroke-width:1;"/><polygon fill="#181818" points="213.57,389.92,215.3975,380.2422,212.4224,385.0535,207.6111,382.0784,213.57,389.92" style="stroke:#181818;stroke-width:1;"/><text fill="#000000" font-family="sans-serif" font-size="13" lengthAdjust="spacing" textLength="110.9634" x="209.31" y="339.5669">kommissionieren</text></g><!--link InBearbeitung to Versendet--><g class="link" data-entity-1="InBearbeitung" data-entity-2="Versendet" data-source-line="10" data-uid="lnk12" id="link_InBearbeitung_Versendet"><path d="M220.31,440.4 C220.31,462.42 220.31,488.66 220.31,510.66" fill="none" id="InBearbeitung-to-Versendet" style="stroke:#181818;stroke-width:1;"/><polygon fill="#181818" points="220.31,516.66,224.31,507.66,220.31,511.66,216.31,507.66,220.31,516.66" style="stroke:#181818;stroke-width:1;"/><text fill="#000000" font-family="sans-serif" font-size="13" lengthAdjust="spacing" textLength="68.5356" x="221.31" y="483.0669">versenden</text></g><!--link Versendet to Zugestellt--><g class="link" data-entity-1="Versendet" data-entity-2="Zugestellt" data-source-line="12" data-uid="lnk14" id="link_Versendet_Zugestellt"><path d="M174.11,544.78 C136.39,548.94 85.12,561.33 58.31,597 C30.66,633.81 36.7606,685.2714 44.1806,717.6714" fill="none" id="Versendet-to-Zugestellt" style="stroke:#181818;stroke-width:1;"/><polygon fill="#181818" points="45.52,723.52,47.41,713.8542,44.4038,718.6462,39.6118,715.64,45.52,723.52" style="stroke:#181818;stroke-width:1;"/><text fill="#000000" font-family="sans-serif" font-size="13" lengthAdjust="spacing" textLength="139.5278" x="59.31" y="610.0669">zustellung_bestaetigt</text></g><!--link Versendet to InRuecksendung--><g class="link" data-entity-1="Versendet" data-entity-2="InRuecksendung" data-source-line="13" data-uid="lnk16" id="link_Versendet_InRuecksendung"><path d="M215.83,567.4 C211.77,589.42 206.9263,615.7592 202.8763,637.7592" fill="none" id="Versendet-to-InRuecksendung" style="stroke:#181818;stroke-width:1;"/><polygon fill="#181818" points="201.79,643.66,207.3533,635.5329,202.6952,638.7426,199.4855,634.0845,201.79,643.66" style="stroke:#181818;stroke-width:1;"/><text fill="#000000" font-family="sans-serif" font-size="13" lengthAdjust="spacing" textLength="119.4438" x="210.31" y="610.0669">retoure_anmelden</text></g><!--link InRuecksendung to Erstattet--><g class="link" data-entity-1="InRuecksendung" data-entity-2="Erstattet" data-source-line="15" data-uid="lnk18" id="link_InRuecksendung_Erstattet"><path d="M170.99,694.28 C163.48,702.85 156.26,713.1 152.31,724 C142.91,749.99 144.7645,776.1536 148.6245,797.7536" fill="none" id="InRuecksendung-to-Erstattet" style="stroke:#181818;stroke-width:1;"/><polygon fill="#181818" points="149.68,803.66,152.0344,794.0967,148.8004,798.738,144.1591,795.504,149.68,803.66" style="stroke:#181818;stroke-width:1;"/><text fill="#000000" font-family="sans-serif" font-size="13" lengthAdjust="spacing" textLength="198.7197" x="153.31" y="753.5669">rueckerstattung_durchfuehren</text></g><!--link Zugestellt to *end*--><g class="link" data-entity-1="Zugestellt" data-entity-2=".end." data-source-line="17" data-uid="lnk20" id="link_Zugestellt_.end."><path d="M60.71,774.47 C68.65,796.16 81.67,828.29 97.31,854 C112.7,879.29 132.207,900.97 143.987,913.31" fill="none" id="Zugestellt-to-*end*" style="stroke:#181818;stroke-width:1;"/><polygon fill="#181818" points="148.13,917.65,144.8088,908.378,144.6775,914.0334,139.0222,913.9021,148.13,917.65" style="stroke:#181818;stroke-width:1;"/></g><!--link Storniert to *end*--><g class="link" data-entity-1="Storniert" data-entity-2=".end." data-source-line="18" data-uid="lnk21" id="link_Storniert_.end."><path d="M378.31,360.29 C378.31,388.47 378.31,436.35 378.31,477.5 C378.31,477.5 378.31,477.5 378.31,830 C378.31,923 218.1189,926.3435 172.6789,925.4835" fill="none" id="Storniert-to-*end*" style="stroke:#181818;stroke-width:1;"/><polygon fill="#181818" points="166.68,925.37,175.6027,929.5396,171.6791,925.4646,175.7541,921.541,166.68,925.37" style="stroke:#181818;stroke-width:1;"/></g><!--link Erstattet to *end*--><g class="link" data-entity-1="Erstattet" data-entity-2=".end." data-source-line="19" data-uid="lnk22" id="link_Erstattet_.end."><path d="M155.31,854.46 C155.31,874.04 155.31,894.49 155.31,908.8" fill="none" id="Erstattet-to-*end*" style="stroke:#181818;stroke-width:1;"/><polygon fill="#181818" points="155.31,914.8,159.31,905.8,155.31,909.8,151.31,905.8,155.31,914.8" style="stroke:#181818;stroke-width:1;"/></g><!--SRC=[NL31QeGm4Btx5JaN5dhUGw523z9R5thOKYJgKuCnAPF9BlNhct5rNNj9XZVllNapOJ3kHvCULU1VY_IIgJcEDWjRfzUDlnhNgLRRW8TERNK8hvmqLMGKjNSdCq4zPrzFt-fmU55l51ZMiZggz-WQA8kELOuPZSbHkooxaqIHOzBzB90_KKfGwst7Uzg9FJa34c9OQYIlLIwSmkNGLC6mJ3ggmO-Z2S7uXRplY-8J591YYkjbgPFf1Wlf73lSjvhYkafP9LI3JOgw5nJk8w8U1Ba58R2FX5Ax4NQUy8-odaupprb8chW1Cgg9LFTjH3_l_118XEdssNQU5Tdi5kGF]--></g></svg>