<svg xmlns="http://www.w3.org/2000/svg" xmlns:xlink="http://www.w3.org/1999/xlink" contentStyleType="text/css" data-diagram-type="ACTIVITY" height="686px" preserveAspectRatio="none" style="width:1459px;height:686px;background:#FFFFFF;" version="1.1" viewBox="0 0 1459 686" width="1459px" zoomAndPan="magnify"><defs/><g><rect fill="none" height="20.9531" style="stroke:none;stroke-width:1;" width="1426.886" x="15" y="12.7451"/><ellipse cx="298.6003" cy="48.6982" fill="#222222" rx="10" ry="10" style="stroke:#222222;stroke-width:1;"/><rect fill="#F1F1F1" height="33.9688" rx="12.5" ry="12.5" style="stroke:#181818;stroke-width:0.5;" width="131.4746" x="232.863" y="78.6982"/><text fill="#000000" font-family="sans-serif" font-size="12" lengthAdjust="spacing" textLength="111.4746" x="242.863" y="99.8369">Retoure anmelden</text><rect fill="#F1F1F1" height="33.9688" rx="12.5" ry="12.5" style="stroke:#181818;stroke-width:0.5;" width="165.875" x="215.6628" y="132.667"/><text fill="#000000" font-family="sans-serif" font-size="12" lengthAdjust="spacing" textLength="145.875" x="225.6628" y="153.8057">Retourengrund erfassen</text><rect fill="#F1F1F1" height="33.9688" rx="12.5" ry="12.5" style="stroke:#181818;stroke-width:0.5;" width="193.5781" x="21" y="230.6357"/><text fill="#000000" font-family="sans-serif" font-size="12" lengthAdjust="spacing" textLength="173.5781" x="31" y="251.7744">Retourenlabel herunterladen</text><rect fill="#F1F1F1" height="33.9688" rx="12.5" ry="12.5" style="stroke:#181818;stroke-width:0.5;" width="118.2734" x="58.6523" y="284.6045"/><text fill="#000000" font-family="sans-serif" font-size="12" lengthAdjust="spacing" textLength="98.2734" x="68.6523" y="305.7432">Ware verpacken</text><rect fill="#F1F1F1" height="33.9688" rx="12.5" ry="12.5" style="stroke:#181818;stroke-width:0.5;" width="120.7051" x="57.4365" y="338.5732"/><text fill="#000000" font-family="sans-serif" font-size="12" lengthAdjust="spacing" textLength="100.7051" x="67.4365" y="359.7119">Paket versenden</text><rect fill="#F1F1F1" height="33.9688" rx="12.5" ry="12.5" style="stroke:#181818;stroke-width:0.5;" width="250.0684" x="354.3774" y="284.6045"/><text fill="#000000" font-family="sans-serif" font-size="12" lengthAdjust="spacing" textLength="230.0684" x="364.3774" y="305.7432">Ablehnungsbenachrichtigung erhalten</text><ellipse cx="298.6003" cy="663.4482" fill="none" rx="11" ry="11" style="stroke:#222222;stroke-width:1;"/><ellipse cx="298.6003" cy="663.4482" fill="#222222" rx="6" ry="6" style="stroke:#222222;stroke-width:1;"/><line style="stroke:#000000;stroke-width:1.5;" x1="15" x2="15" y1="12.7451" y2="674.4482"/><polygon fill="#F1F1F1" points="781.4814,186.6357,781.4814,186.6357,793.4814,198.6357,781.4814,210.6357,781.4814,210.6357,769.4814,198.6357,781.4814,186.6357" style="stroke:#181818;stroke-width:0.5;"/><text fill="#000000" font-family="sans-serif" font-size="11" lengthAdjust="spacing" textLength="156.0356" x="613.4458" y="196.0415">[Retoure innerhalb 14 Tage]</text><text fill="#000000" font-family="sans-serif" font-size="11" lengthAdjust="spacing" textLength="137.6987" x="793.4814" y="196.0415">[Retoure nach 14 Tagen]</text><rect fill="#F1F1F1" height="33.9688" rx="12.5" ry="12.5" style="stroke:#181818;stroke-width:0.5;" width="127.3906" x="898.5974" y="230.6357"/><text fill="#000000" font-family="sans-serif" font-size="12" lengthAdjust="spacing" textLength="107.3906" x="908.5974" y="251.7744">Retoure ablehnen</text><polygon fill="#F1F1F1" points="781.4814,608.4482,793.4814,620.4482,781.4814,632.4482,769.4814,620.4482,781.4814,608.4482" style="stroke:#181818;stroke-width:0.5;"/><line style="stroke:#000000;stroke-width:1.5;" x1="608.4458" x2="608.4458" y1="12.7451" y2="674.4482"/><rect fill="#F1F1F1" height="33.9688" rx="12.5" ry="12.5" style="stroke:#181818;stroke-width:0.5;" width="139.9824" x="1159.4456" y="392.542"/><text fill="#000000" font-family="sans-serif" font-size="12" lengthAdjust="spacing" textLength="119.9824" x="1169.4456" y="413.6807">Retoure empfangen</text><rect fill="#D4EDDA" height="33.9688" rx="12.5" ry="12.5" style="stroke:#181818;stroke-width:0.5;" width="149.7617" x="1154.5559" y="446.5107"/><text fill="#000000" font-family="sans-serif" font-size="12" lengthAdjust="spacing" textLength="129.7617" x="1164.5559" y="467.6494">Warenzustand pr&#252;fen</text><polygon fill="#F1F1F1" points="1229.4368,500.4795,1229.4368,500.4795,1241.4368,512.4795,1229.4368,524.4795,1229.4368,524.4795,1217.4368,512.4795,1229.4368,500.4795" style="stroke:#181818;stroke-width:0.5;"/><text fill="#000000" font-family="sans-serif" font-size="11" lengthAdjust="spacing" textLength="115.5054" x="1101.9314" y="509.8853">[Ware unbesch&#228;digt]</text><text fill="#000000" font-family="sans-serif" font-size="11" lengthAdjust="spacing" textLength="101.562" x="1241.4368" y="509.8853">[Ware besch&#228;digt]</text><rect fill="#D4EDDA" height="33.9688" rx="12.5" ry="12.5" style="stroke:#181818;stroke-width:0.5;" width="176.8789" x="1035.988" y="534.4795"/><text fill="#000000" font-family="sans-serif" font-size="12" lengthAdjust="spacing" textLength="156.8789" x="1045.988" y="555.6182">Ware ins Lager einbuchen</text><rect fill="#D4EDDA" height="33.9688" rx="12.5" ry="12.5" style="stroke:#181818;stroke-width:0.5;" width="203.1582" x="1232.8669" y="534.4795"/><text fill="#000000" font-family="sans-serif" font-size="12" lengthAdjust="spacing" textLength="183.1582" x="1242.8669" y="555.6182">Ware als Defekt kennzeichnen</text><polygon fill="#F1F1F1" points="1229.4368,574.4482,1241.4368,586.4482,1229.4368,598.4482,1217.4368,586.4482,1229.4368,574.4482" style="stroke:#181818;stroke-width:0.5;"/><line style="stroke:#000000;stroke-width:1.5;" x1="1029.988" x2="1029.988" y1="12.7451" y2="674.4482"/><line style="stroke:#000000;stroke-width:1.5;" x1="1440.0251" x2="1440.0251" y1="12.7451" y2="674.4482"/><line style="stroke:#181818;stroke-width:1;" x1="298.6003" x2="298.6003" y1="58.6982" y2="78.6982"/><polygon fill="#181818" points="294.6003,68.6982,302.6003,68.6982,298.6003,78.6982" style="stroke:#181818;stroke-width:1;"/><line style="stroke:#181818;stroke-width:1;" x1="298.6003" x2="298.6003" y1="112.667" y2="132.667"/><polygon fill="#181818" points="294.6003,122.667,302.6003,122.667,298.6003,132.667" style="stroke:#181818;stroke-width:1;"/><line style="stroke:#181818;stroke-width:1;" x1="117.7891" x2="117.7891" y1="264.6045" y2="284.6045"/><polygon fill="#181818" points="113.7891,274.6045,121.7891,274.6045,117.7891,284.6045" style="stroke:#181818;stroke-width:1;"/><line style="stroke:#181818;stroke-width:1;" x1="117.7891" x2="117.7891" y1="318.5732" y2="338.5732"/><polygon fill="#181818" points="113.7891,328.5732,121.7891,328.5732,117.7891,338.5732" style="stroke:#181818;stroke-width:1;"/><line style="stroke:#181818;stroke-width:1;" x1="793.4814" x2="962.2927" y1="198.6357" y2="198.6357"/><line style="stroke:#181818;stroke-width:1;" x1="962.2927" x2="962.2927" y1="198.6357" y2="230.6357"/><polygon fill="#181818" points="958.2927,220.6357,966.2927,220.6357,962.2927,230.6357" style="stroke:#181818;stroke-width:1;"/><line style="stroke:#181818;stroke-width:1;" x1="1229.4368" x2="1229.4368" y1="426.5107" y2="446.5107"/><polygon fill="#181818" points="1225.4368,436.5107,1233.4368,436.5107,1229.4368,446.5107" style="stroke:#181818;stroke-width:1;"/><line style="stroke:#181818;stroke-width:1;" x1="1217.4368" x2="1124.4275" y1="512.4795" y2="512.4795"/><line style="stroke:#181818;stroke-width:1;" x1="1124.4275" x2="1124.4275" y1="512.4795" y2="534.4795"/><polygon fill="#181818" points="1120.4275,524.4795,1128.4275,524.4795,1124.4275,534.4795" style="stroke:#181818;stroke-width:1;"/><line style="stroke:#181818;stroke-width:1;" x1="1241.4368" x2="1334.446" y1="512.4795" y2="512.4795"/><line style="stroke:#181818;stroke-width:1;" x1="1334.446" x2="1334.446" y1="512.4795" y2="534.4795"/><polygon fill="#181818" points="1330.446,524.4795,1338.446,524.4795,1334.446,534.4795" style="stroke:#181818;stroke-width:1;"/><line style="stroke:#181818;stroke-width:1;" x1="1124.4275" x2="1124.4275" y1="568.4482" y2="586.4482"/><line style="stroke:#181818;stroke-width:1;" x1="1124.4275" x2="1217.4368" y1="586.4482" y2="586.4482"/><polygon fill="#181818" points="1207.4368,582.4482,1217.4368,586.4482,1207.4368,590.4482" style="stroke:#181818;stroke-width:1;"/><line style="stroke:#181818;stroke-width:1;" x1="1334.446" x2="1334.446" y1="568.4482" y2="586.4482"/><line style="stroke:#181818;stroke-width:1;" x1="1334.446" x2="1241.4368" y1="586.4482" y2="586.4482"/><polygon fill="#181818" points="1251.4368,582.4482,1241.4368,586.4482,1251.4368,590.4482" style="stroke:#181818;stroke-width:1;"/><line style="stroke:#181818;stroke-width:1;" x1="1229.4368" x2="1229.4368" y1="480.4795" y2="500.4795"/><polygon fill="#181818" points="1225.4368,490.4795,1233.4368,490.4795,1229.4368,500.4795" style="stroke:#181818;stroke-width:1;"/><line style="stroke:#181818;stroke-width:1;" x1="117.7891" x2="117.7891" y1="372.542" y2="377.542"/><line style="stroke:#181818;stroke-width:1;" x1="117.7891" x2="1229.4368" y1="377.542" y2="377.542"/><line style="stroke:#181818;stroke-width:1;" x1="1229.4368" x2="1229.4368" y1="377.542" y2="392.542"/><polygon fill="#181818" points="1225.4368,382.542,1233.4368,382.542,1229.4368,392.542" style="stroke:#181818;stroke-width:1;"/><line style="stroke:#181818;stroke-width:1;" x1="962.2927" x2="962.2927" y1="264.6045" y2="269.6045"/><line style="stroke:#181818;stroke-width:1;" x1="962.2927" x2="479.4116" y1="269.6045" y2="269.6045"/><line style="stroke:#181818;stroke-width:1;" x1="479.4116" x2="479.4116" y1="269.6045" y2="284.6045"/><polygon fill="#181818" points="475.4116,274.6045,483.4116,274.6045,479.4116,284.6045" style="stroke:#181818;stroke-width:1;"/><line style="stroke:#181818;stroke-width:1;" x1="769.4814" x2="117.7891" y1="198.6357" y2="198.6357"/><line style="stroke:#181818;stroke-width:1;" x1="117.7891" x2="117.7891" y1="198.6357" y2="230.6357"/><polygon fill="#181818" points="113.7891,220.6357,121.7891,220.6357,117.7891,230.6357" style="stroke:#181818;stroke-width:1;"/><line style="stroke:#181818;stroke-width:1;" x1="1229.4368" x2="1229.4368" y1="598.4482" y2="602.4482"/><line style="stroke:#181818;stroke-width:1;" x1="1229.4368" x2="751.4814" y1="602.4482" y2="602.4482"/><line style="stroke:#181818;stroke-width:1;" x1="751.4814" x2="751.4814" y1="602.4482" y2="620.4482"/><line style="stroke:#181818;stroke-width:1;" x1="751.4814" x2="769.4814" y1="620.4482" y2="620.4482"/><polygon fill="#181818" points="759.4814,616.4482,769.4814,620.4482,759.4814,624.4482" style="stroke:#181818;stroke-width:1;"/><line style="stroke:#181818;stroke-width:1;" x1="479.4116" x2="479.4116" y1="318.5732" y2="602.4482"/><line style="stroke:#181818;stroke-width:1;" x1="479.4116" x2="811.4814" y1="602.4482" y2="602.4482"/><line style="stroke:#181818;stroke-width:1;" x1="811.4814" x2="811.4814" y1="602.4482" y2="620.4482"/><line style="stroke:#181818;stroke-width:1;" x1="811.4814" x2="793.4814" y1="620.4482" y2="620.4482"/><polygon fill="#181818" points="803.4814,616.4482,793.4814,620.4482,803.4814,624.4482" style="stroke:#181818;stroke-width:1;"/><line style="stroke:#181818;stroke-width:1;" x1="298.6003" x2="298.6003" y1="166.6357" y2="171.6357"/><line style="stroke:#181818;stroke-width:1;" x1="298.6003" x2="781.4814" y1="171.6357" y2="171.6357"/><line style="stroke:#181818;stroke-width:1;" x1="781.4814" x2="781.4814" y1="171.6357" y2="186.6357"/><polygon fill="#181818" points="777.4814,176.6357,785.4814,176.6357,781.4814,186.6357" style="stroke:#181818;stroke-width:1;"/><line style="stroke:#181818;stroke-width:1;" x1="781.4814" x2="781.4814" y1="632.4482" y2="637.4482"/><line style="stroke:#181818;stroke-width:1;" x1="781.4814" x2="298.6003" y1="637.4482" y2="637.4482"/><line style="stroke:#181818;stroke-width:1;" x1="298.6003" x2="298.6003" y1="637.4482" y2="652.4482"/><polygon fill="#181818" points="294.6003,642.4482,302.6003,642.4482,298.6003,652.4482" style="stroke:#181818;stroke-width:1;"/><text fill="#000000" font-family="sans-serif" font-size="18" lengthAdjust="spacing" textLength="57.1201" x="283.1628" y="29.4531">Kunde</text><text fill="#000000" font-family="sans-serif" font-size="18" lengthAdjust="spacing" textLength="157.1396" x="740.6471" y="29.4531">Webshop-System</text><text fill="#000000" font-family="sans-serif" font-size="18" lengthAdjust="spacing" textLength="50.959" x="1209.5271" y="29.4531">Lager</text><!--SRC=[XP8zJiGm48Nxd68acjq22QIje5g91a61MAGj4CNOcSHMd4da7z2kSXoEGRSNO_At11eQ5_FixysRSQWij-YnXX0FZkJqLiTKkopyA0RpviDo2GMwG0j5EmnX6-MDIf7kTSCxUoIuohg7n3brMOZeOtRpJB59dW2v9fSJtvvBN7gv2UGB8VL2joSLJDDUxWuXKjrbje3L6g8XXjNh3BBCv0qw1TSRUC6ItjOPmEmASCOxLEJ0aBX4yWu7Sz7tA9HtyYtgQYezOKMnhqaVqxNkKT1-2GIgsmAv7FMBV4DvZWEDZqdIIfRMdxwAKV_L-s2PM57GvlIPsp8EJV-cIB80WokGPPMq6KaaWvyP_n1aHt171LKH91eVoMh34uLpMsGJQqx4gCqyHXxd-7S7Y_oe7CsunRotGpbn6HJrGFb59jfI2Z0iAlOlHliGc_OR]--></g></svg>