<svg xmlns="http://www.w3.org/2000/svg" xmlns:xlink="http://www.w3.org/1999/xlink" contentStyleType="text/css" data-diagram-type="ACTIVITY" height="244px" preserveAspectRatio="none" style="width:177px;height:244px;background:#FFFFFF;" version="1.1" viewBox="0 0 177 244" width="177px" zoomAndPan="magnify"><defs/><g><ellipse cx="88.7754" cy="20" fill="#222222" rx="10" ry="10" style="stroke:#222222;stroke-width:1;"/><rect fill="#F1F1F1" height="33.9688" rx="12.5" ry="12.5" style="stroke:#181818;stroke-width:0.5;" width="155.5508" x="11" y="50"/><text fill="#000000" font-family="sans-serif" font-size="12" lengthAdjust="spacing" textLength="135.5508" x="21" y="71.1387">Kundendaten erfassen</text><rect fill="#F1F1F1" height="33.9688" rx="12.5" ry="12.5" style="stroke:#181818;stroke-width:0.5;" width="131.2227" x="23.1641" y="103.9688"/><text fill="#000000" font-family="sans-serif" font-size="12" lengthAdjust="spacing" textLength="111.2227" x="33.1641" y="125.1074">Adresse validieren</text><rect fill="#F1F1F1" height="33.9688" rx="12.5" ry="12.5" style="stroke:#181818;stroke-width:0.5;" width="145.9766" x="15.7871" y="157.9375"/><text fill="#000000" font-family="sans-serif" font-size="12" lengthAdjust="spacing" textLength="125.9766" x="25.7871" y="179.0762">Bestellung speichern</text><ellipse cx="88.7754" cy="222.9063" fill="none" rx="11" ry="11" style="stroke:#222222;stroke-width:1;"/><ellipse cx="88.7754" cy="222.9063" fill="#222222" rx="6" ry="6" style="stroke:#222222;stroke-width:1;"/><line style="stroke:#181818;stroke-width:1;" x1="88.7754" x2="88.7754" y1="30" y2="50"/><polygon fill="#181818" points="84.7754,40,92.7754,40,88.7754,50" style="stroke:#181818;stroke-width:1;"/><line style="stroke:#181818;stroke-width:1;" x1="88.7754" x2="88.7754" y1="83.9688" y2="103.9688"/><polygon fill="#181818" points="84.7754,93.9688,92.7754,93.9688,88.7754,103.9688" style="stroke:#181818;stroke-width:1;"/><line style="stroke:#181818;stroke-width:1;" x1="88.7754" x2="88.7754" y1="137.9375" y2="157.9375"/><polygon fill="#181818" points="84.7754,147.9375,92.7754,147.9375,88.7754,157.9375" style="stroke:#181818;stroke-width:1;"/><line style="stroke:#181818;stroke-width:1;" x1="88.7754" x2="88.7754" y1="191.9063" y2="211.9063"/><polygon fill="#181818" points="84.7754,201.9063,92.7754,201.9063,88.7754,211.9063" style="stroke:#181818;stroke-width:1;"/><!--SRC=[JOsn3i9034Ft-uhx1EOobGqnyWNXpgKHQLebEL3vUauii5YMdotxWtKZeoLxx8AknYNQ8ib_PAQwlbZlUI9n_94Yv3v6tznQu5nMlV8R-P0yo28DbwOLMYcW6JRrClIOXh4QkirF4guC-uOdU42azHlVm6M6zTXZtJu0]--></g></svg>