<svg xmlns="http://www.w3.org/2000/svg" xmlns:xlink="http://www.w3.org/1999/xlink" contentStyleType="text/css" data-diagram-type="STATE" height="778px" preserveAspectRatio="none" style="width:904px;height:778px;background:#FFFFFF;" version="1.1" viewBox="0 0 904 778" width="904px" zoomAndPan="magnify"><defs/><g><g id="Erstellt"><rect fill="#F1F1F1" height="50.2656" rx="12.5" ry="12.5" style="stroke:#181818;stroke-width:0.5;" width="225.875" x="491.37" y="103"/><line style="stroke:#181818;stroke-width:0.5;" x1="491.37" x2="717.245" y1="129.2969" y2="129.2969"/><text fill="#000000" font-family="sans-serif" font-size="14" lengthAdjust="spacing" textLength="49.2666" x="579.6742" y="120.9951">Erstellt</text><text fill="#000000" font-family="sans-serif" font-size="12" lengthAdjust="spacing" textLength="205.875" x="496.37" y="145.4355">entry / bestellnummer_generieren</text></g><g id="InBearbeitung"><rect fill="#F1F1F1" height="78.2031" rx="12.5" ry="12.5" style="stroke:#181818;stroke-width:0.5;" width="222.6055" x="7" y="357.27"/><line style="stroke:#181818;stroke-width:0.5;" x1="7" x2="229.6055" y1="383.5669" y2="383.5669"/><text fill="#000000" font-family="sans-serif" font-size="14" lengthAdjust="spacing" textLength="99.0664" x="68.7695" y="375.2651">InBearbeitung</text><text fill="#000000" font-family="sans-serif" font-size="12" lengthAdjust="spacing" textLength="202.6055" x="12" y="399.7055">entry / kommissionierung_starten</text><text fill="#000000" font-family="sans-serif" font-size="12" lengthAdjust="spacing" textLength="176.4961" x="12" y="413.6743">do / artikel_zusammenstellen</text><text fill="#000000" font-family="sans-serif" font-size="12" lengthAdjust="spacing" textLength="143.9238" x="12" y="427.643">exit / paket_vorbereiten</text></g><ellipse cx="604.3" cy="16" fill="#222222" rx="10" ry="10" style="stroke:#222222;stroke-width:1;"/><g id="Bezahlt"><rect fill="#F1F1F1" height="50" rx="12.5" ry="12.5" style="stroke:#181818;stroke-width:0.5;" width="72.3975" x="387.1" y="230.27"/><line style="stroke:#181818;stroke-width:0.5;" x1="387.1" x2="459.4975" y1="256.5669" y2="256.5669"/><text fill="#000000" font-family="sans-serif" font-size="14" lengthAdjust="spacing" textLength="52.3975" x="397.1" y="248.2651">Bezahlt</text></g><g id="Storniert"><rect fill="#F1F1F1" height="50" rx="12.5" ry="12.5" style="stroke:#181818;stroke-width:0.5;" width="81.3184" x="382.64" y="371.37"/><line style="stroke:#181818;stroke-width:0.5;" x1="382.64" x2="463.9584" y1="397.6669" y2="397.6669"/><text fill="#000000" font-family="sans-serif" font-size="14" lengthAdjust="spacing" textLength="61.3184" x="392.64" y="389.3651">Storniert</text></g><g id="Versendet"><rect fill="#F1F1F1" height="50" rx="12.5" ry="12.5" style="stroke:#181818;stroke-width:0.5;" width="91.7158" x="114.44" y="512.47"/><line style="stroke:#181818;stroke-width:0.5;" x1="114.44" x2="206.1558" y1="538.7669" y2="538.7669"/><text fill="#000000" font-family="sans-serif" font-size="14" lengthAdjust="spacing" textLength="71.7158" x="124.44" y="530.4651">Versendet</text></g><g id="Zugestellt"><rect fill="#F1F1F1" height="50" rx="12.5" ry="12.5" style="stroke:#181818;stroke-width:0.5;" width="90.6289" x="245.99" y="639.47"/><line style="stroke:#181818;stroke-width:0.5;" x1="245.99" x2="336.6189" y1="665.7669" y2="665.7669"/><text fill="#000000" font-family="sans-serif" font-size="14" lengthAdjust="spacing" textLength="70.6289" x="255.99" y="657.4651">Zugestellt</text></g><ellipse cx="373.3" cy="761.47" fill="none" rx="11" ry="11" style="stroke:#222222;stroke-width:1;"/><ellipse cx="373.3" cy="761.47" fill="#222222" rx="6" ry="6" style="stroke:#222222;stroke-width:1;"/><!--link *start* to Erstellt--><g class="link" data-entity-1=".start." data-entity-2="Erstellt" data-source-line="4" data-uid="lnk3" id="link_.start._Erstellt"><path d="M604.3,26.39 C604.3,43.14 604.3,72.67 604.3,96.73" fill="none" id="*start*-to-Erstellt" style="stroke:#181818;stroke-width:1;"/><polygon fill="#181818" points="604.3,102.73,608.3,93.73,604.3,97.73,600.3,93.73,604.3,102.73" style="stroke:#181818;stroke-width:1;"/><text fill="#000000" font-family="sans-serif" font-size="13" lengthAdjust="spacing" textLength="163.5537" x="605.3" y="69.0669">Kunde legt Bestellung an</text></g><!--link Erstellt to Bezahlt--><g class="link" data-entity-1="Erstellt" data-entity-2="Bezahlt" data-source-line="16" data-uid="lnk5" id="link_Erstellt_Bezahlt"><path d="M491.24,147.12 C470.51,155.14 450.85,166.68 436.3,183.27 C425.23,195.89 422.3448,208.752 421.9548,223.862" fill="none" id="Erstellt-to-Bezahlt" style="stroke:#2E7D32;stroke-width:1;"/><polygon fill="#2E7D32" points="421.8,229.86,426.0309,220.9662,421.929,224.8617,418.0336,220.7598,421.8,229.86" style="stroke:#2E7D32;stroke-width:1;"/><text fill="#000000" font-family="sans-serif" font-size="13" lengthAdjust="spacing" textLength="322.8354" x="437.3" y="196.3369">zahlung_erfolgt [betrag &gt; 0] / rechnung_erstellen</text></g><!--link Erstellt to Storniert--><g class="link" data-entity-1="Erstellt" data-entity-2="Storniert" data-source-line="17" data-uid="lnk7" id="link_Erstellt_Storniert"><path d="M717.63,147.62 C735.94,155.65 752.68,167.06 764.3,183.27 C801.61,235.27 804.88,277.78 764.3,327.27 C726.74,373.07 552.3598,388.3207 470.2098,393.1107" fill="none" id="Erstellt-to-Storniert" style="stroke:#181818;stroke-width:1;"/><polygon fill="#181818" points="464.22,393.46,473.4376,396.9293,469.2115,393.169,472.9719,388.9429,464.22,393.46" style="stroke:#181818;stroke-width:1;"/><text fill="#000000" font-family="sans-serif" font-size="13" lengthAdjust="spacing" textLength="102.2163" x="794.3" y="259.8369">kunde_storniert</text></g><!--link Bezahlt to InBearbeitung--><g class="link" data-entity-1="Bezahlt" data-entity-2="InBearbeitung" data-source-line="19" data-uid="lnk8" id="link_Bezahlt_InBearbeitung"><path d="M386.74,258.8 C319.66,264.16 180.59,278.83 145.3,310.27 C131.99,322.12 126.4074,334.6248 122.9574,351.2748" fill="none" id="Bezahlt-to-InBearbeitung" style="stroke:#2E7D32;stroke-width:1;"/><polygon fill="#2E7D32" points="121.74,357.15,127.4829,349.1488,122.7545,352.254,119.6493,347.5256,121.74,357.15" style="stroke:#2E7D32;stroke-width:1;"/><text fill="#000000" font-family="sans-serif" font-size="13" lengthAdjust="spacing" textLength="265.8652" x="146.3" y="323.3369">bearbeitung_starten [artikel_verfuegbar]</text></g><!--link Bezahlt to Storniert--><g class="link" data-entity-1="Bezahlt" data-entity-2="Storniert" data-source-line="20" data-uid="lnk9" id="link_Bezahlt_Storniert"><path d="M421.66,280.72 C421.11,289.97 420.57,300.6 420.3,310.27 C419.73,330.81 420.3288,348.1397 421.2988,365.1697" fill="none" id="Bezahlt-to-Storniert" style="stroke:#2E7D32;stroke-width:1;"/><polygon fill="#2E7D32" points="421.64,371.16,425.1217,361.9471,421.3557,366.1681,417.1347,362.402,421.64,371.16" style="stroke:#2E7D32;stroke-width:1;"/><text fill="#000000" font-family="sans-serif" font-size="13" lengthAdjust="spacing" textLength="338.0698" x="421.3" y="323.3369">artikel_nicht_verfuegbar / rueckerstattung_einleiten</text></g><!--link InBearbeitung to Versendet--><g class="link" data-entity-1="InBearbeitung" data-entity-2="Versendet" data-source-line="22" data-uid="lnk11" id="link_InBearbeitung_Versendet"><path d="M116.86,435.9 C117.36,450.79 119.28,467.75 124.3,482.47 C127.87,492.92 130.5306,498.3706 136.7206,507.1806" fill="none" id="InBearbeitung-to-Versendet" style="stroke:#181818;stroke-width:1;"/><polygon fill="#181818" points="140.17,512.09,138.2689,502.4264,137.2955,507.9989,131.723,507.0255,140.17,512.09" style="stroke:#181818;stroke-width:1;"/><text fill="#000000" font-family="sans-serif" font-size="13" lengthAdjust="spacing" textLength="270.9116" x="125.3" y="478.5369">versand_beauftragt / tracking_generieren</text></g><!--link Versendet to Zugestellt--><g class="link" data-entity-1="Versendet" data-entity-2="Zugestellt" data-source-line="24" data-uid="lnk13" id="link_Versendet_Zugestellt"><path d="M185.87,562.87 C208.95,584.89 238.3988,612.9883 261.4588,634.9883" fill="none" id="Versendet-to-Zugestellt" style="stroke:#181818;stroke-width:1;"/><polygon fill="#181818" points="265.8,639.13,262.0493,630.0233,262.1823,635.6786,256.527,635.8116,265.8,639.13" style="stroke:#181818;stroke-width:1;"/><text fill="#000000" font-family="sans-serif" font-size="13" lengthAdjust="spacing" textLength="139.5278" x="235.3" y="605.5369">zustellung_bestaetigt</text></g><!--link Zugestellt to *end*--><g class="link" data-entity-1="Zugestellt" data-entity-2=".end." data-source-line="25" data-uid="lnk15" id="link_Zugestellt_.end."><path d="M312.42,689.93 C330.26,710.61 350.8093,734.4182 362.5493,748.0182" fill="none" id="Zugestellt-to-*end*" style="stroke:#181818;stroke-width:1;"/><polygon fill="#181818" points="366.47,752.56,363.6169,743.1335,363.2028,748.7751,357.5611,748.361,366.47,752.56" style="stroke:#181818;stroke-width:1;"/></g><!--link Storniert to *end*--><g class="link" data-entity-1="Storniert" data-entity-2=".end." data-source-line="26" data-uid="lnk16" id="link_Storniert_.end."><path d="M419.94,421.76 C410.07,493.47 382.2184,695.7161 375.5284,744.3061" fill="none" id="Storniert-to-*end*" style="stroke:#181818;stroke-width:1;"/><polygon fill="#181818" points="374.71,750.25,379.9002,741.8797,375.392,745.2967,371.9749,740.7885,374.71,750.25" style="stroke:#181818;stroke-width:1;"/></g><!--SRC=[RPAnQiD038RtUmgHReNGa0w53e46EeIEWGuDmSYsOXy-dyETBcrI-kxLsN7ij5biBEd_f5-MhxJTeyCQF1yDoTFfZ4Djb1yo9URDfxO5xD1u6cKoWzw_i6ZImBJA6hlM9uAPsjnlOJfTmAlpJCOmFCDRi3c1eO9XIMqq216jKfwH2IPzxGJG3y9l1MCAMNP7U82qGzXGr-IIWYmvJOwi-hdmLdP9w5BIB8rQw5Ma9Lz71dpLrBNsNZTMg99AXEbOyFybUIFrajGLcUGKFCf4jXtkPZbzQHR17YlYvD18nack6_pYSxgvczDJ_ZZVoWwNTCAoDH_VSHXokyR87ZSfiSC25Z3R2jDHLjekt_SVY09QS-EYduYgujyGL-U8KdsNgzP_Xq-7htuZiEcz7sIiG4MARdkRDkxVYwpEIXv9eur0MHKj8BUDI5lJhKXTpnCzlKiXYPN858f7coSoPTZ5nSH5opkJUot6Dw86LMHyX88k1oP_y7oRIRmn9DO5gr59LCXvgy7DEV8B]--></g></svg>