<svg xmlns="http://www.w3.org/2000/svg" xmlns:xlink="http://www.w3.org/1999/xlink" contentStyleType="text/css" data-diagram-type="STATE" height="496px" preserveAspectRatio="none" style="width:485px;height:496px;background:#FFFFFF;" version="1.1" viewBox="0 0 485 496" width="485px" zoomAndPan="magnify"><defs/><g><ellipse cx="178.98" cy="16" fill="#222222" rx="10" ry="10" style="stroke:#222222;stroke-width:1;"/><g id="Wartet"><rect fill="#F1F1F1" height="50" rx="12.5" ry="12.5" style="stroke:#181818;stroke-width:0.5;" width="67.7695" x="145.1" y="103"/><line style="stroke:#181818;stroke-width:0.5;" x1="145.1" x2="212.8695" y1="129.2969" y2="129.2969"/><text fill="#000000" font-family="sans-serif" font-size="14" lengthAdjust="spacing" textLength="47.7695" x="155.1" y="120.9951">Wartet</text></g><g id="Aktiv"><rect fill="#F1F1F1" height="50" rx="12.5" ry="12.5" style="stroke:#181818;stroke-width:0.5;" width="55.3486" x="151.31" y="230"/><line style="stroke:#181818;stroke-width:0.5;" x1="151.31" x2="206.6586" y1="256.2969" y2="256.2969"/><text fill="#000000" font-family="sans-serif" font-size="14" lengthAdjust="spacing" textLength="35.3486" x="161.31" y="247.9951">Aktiv</text></g><g id="Pausiert"><rect fill="#F1F1F1" height="50" rx="12.5" ry="12.5" style="stroke:#181818;stroke-width:0.5;" width="76.9365" x="25.51" y="357"/><line style="stroke:#181818;stroke-width:0.5;" x1="25.51" x2="102.4465" y1="383.2969" y2="383.2969"/><text fill="#000000" font-family="sans-serif" font-size="14" lengthAdjust="spacing" textLength="56.9365" x="35.51" y="374.9951">Pausiert</text></g><g id="Abgeschlossen"><rect fill="#F1F1F1" height="50" rx="12.5" ry="12.5" style="stroke:#181818;stroke-width:0.5;" width="124.3574" x="175.8" y="357"/><line style="stroke:#181818;stroke-width:0.5;" x1="175.8" x2="300.1574" y1="383.2969" y2="383.2969"/><text fill="#000000" font-family="sans-serif" font-size="14" lengthAdjust="spacing" textLength="104.3574" x="185.8" y="374.9951">Abgeschlossen</text></g><g id="Abgebrochen"><rect fill="#F1F1F1" height="50" rx="12.5" ry="12.5" style="stroke:#181818;stroke-width:0.5;" width="113.2285" x="345.37" y="357"/><line style="stroke:#181818;stroke-width:0.5;" x1="345.37" x2="458.5985" y1="383.2969" y2="383.2969"/><text fill="#000000" font-family="sans-serif" font-size="14" lengthAdjust="spacing" textLength="93.2285" x="355.37" y="374.9951">Abgebrochen</text></g><ellipse cx="313.98" cy="479" fill="none" rx="11" ry="11" style="stroke:#222222;stroke-width:1;"/><ellipse cx="313.98" cy="479" fill="#222222" rx="6" ry="6" style="stroke:#222222;stroke-width:1;"/><!--link *start* to Wartet--><g class="link" data-entity-1=".start." data-entity-2="Wartet" data-source-line="4" data-uid="lnk4" id="link_.start._Wartet"><path d="M178.98,26.38 C178.98,43.11 178.98,72.59 178.98,96.63" fill="none" id="*start*-to-Wartet" style="stroke:#181818;stroke-width:1;"/><polygon fill="#181818" points="178.98,102.63,182.98,93.63,178.98,97.63,174.98,93.63,178.98,102.63" style="stroke:#181818;stroke-width:1;"/><text fill="#000000" font-family="sans-serif" font-size="13" lengthAdjust="spacing" textLength="30.2783" x="179.98" y="69.0669">start</text></g><!--link Wartet to Aktiv--><g class="link" data-entity-1="Wartet" data-entity-2="Aktiv" data-source-line="6" data-uid="lnk6" id="link_Wartet_Aktiv"><path d="M178.98,153.4 C178.98,175.42 178.98,201.66 178.98,223.66" fill="none" id="Wartet-to-Aktiv" style="stroke:#181818;stroke-width:1;"/><polygon fill="#181818" points="178.98,229.66,182.98,220.66,178.98,224.66,174.98,220.66,178.98,229.66" style="stroke:#181818;stroke-width:1;"/><text fill="#000000" font-family="sans-serif" font-size="13" lengthAdjust="spacing" textLength="65.0889" x="179.98" y="196.0669">aktivieren</text></g><!--link Aktiv to Pausiert--><g class="link" data-entity-1="Aktiv" data-entity-2="Pausiert" data-source-line="7" data-uid="lnk8" id="link_Aktiv_Pausiert"><path d="M150.99,256.09 C113.36,257.91 47.66,267.43 16.98,310 C6,325.23 13.1644,338.6516 27.5244,352.5216" fill="none" id="Aktiv-to-Pausiert" style="stroke:#181818;stroke-width:1;"/><polygon fill="#181818" points="31.84,356.69,28.1455,347.5604,28.2436,353.2164,22.5876,353.3145,31.84,356.69" style="stroke:#181818;stroke-width:1;"/><text fill="#000000" font-family="sans-serif" font-size="13" lengthAdjust="spacing" textLength="64.4224" x="17.98" y="323.0669">pausieren</text></g><!--link Pausiert to Aktiv--><g class="link" data-entity-1="Pausiert" data-entity-2="Aktiv" data-source-line="8" data-uid="lnk9" id="link_Pausiert_Aktiv"><path d="M86.37,356.66 C106.62,334.66 132.2075,306.8354 152.4675,284.8154" fill="none" id="Pausiert-to-Aktiv" style="stroke:#181818;stroke-width:1;"/><polygon fill="#181818" points="156.53,280.4,147.4926,284.3148,153.1446,284.0795,153.3798,289.7315,156.53,280.4" style="stroke:#181818;stroke-width:1;"/><text fill="#000000" font-family="sans-serif" font-size="13" lengthAdjust="spacing" textLength="65.9014" x="129.98" y="323.0669">fortsetzen</text></g><!--link Aktiv to Abgeschlossen--><g class="link" data-entity-1="Aktiv" data-entity-2="Abgeschlossen" data-source-line="10" data-uid="lnk11" id="link_Aktiv_Abgeschlossen"><path d="M190.5,280.4 C200.89,302.42 213.5498,329.2337 223.9298,351.2337" fill="none" id="Aktiv-to-Abgeschlossen" style="stroke:#181818;stroke-width:1;"/><polygon fill="#181818" points="226.49,356.66,226.2672,346.8137,224.3565,352.1381,219.0321,350.2273,226.49,356.66" style="stroke:#181818;stroke-width:1;"/><text fill="#000000" font-family="sans-serif" font-size="13" lengthAdjust="spacing" textLength="133.5547" x="213.98" y="323.0669">erfolgreich_beenden</text></g><!--link Aktiv to Abgebrochen--><g class="link" data-entity-1="Aktiv" data-entity-2="Abgebrochen" data-source-line="11" data-uid="lnk13" id="link_Aktiv_Abgebrochen"><path d="M207.12,258.59 C244.48,263.27 310.96,276.06 355.98,310 C371.93,322.02 381.2339,335.9448 388.9639,351.3848" fill="none" id="Aktiv-to-Abgebrochen" style="stroke:#181818;stroke-width:1;"/><polygon fill="#181818" points="391.65,356.75,391.1977,346.9115,389.4116,352.279,384.0441,350.4929,391.65,356.75" style="stroke:#181818;stroke-width:1;"/><text fill="#000000" font-family="sans-serif" font-size="13" lengthAdjust="spacing" textLength="104.8252" x="372.98" y="323.0669">fehler_auftreten</text></g><!--link Abgeschlossen to *end*--><g class="link" data-entity-1="Abgeschlossen" data-entity-2=".end." data-source-line="13" data-uid="lnk15" id="link_Abgeschlossen_.end."><path d="M257.55,407.46 C273.91,427.92 292.5431,451.1938 303.5531,464.9638" fill="none" id="Abgeschlossen-to-*end*" style="stroke:#181818;stroke-width:1;"/><polygon fill="#181818" points="307.3,469.65,304.8038,460.1227,304.1776,465.7448,298.5555,465.1186,307.3,469.65" style="stroke:#181818;stroke-width:1;"/></g><!--link Abgebrochen to *end*--><g class="link" data-entity-1="Abgebrochen" data-entity-2=".end." data-source-line="14" data-uid="lnk16" id="link_Abgebrochen_.end."><path d="M379.32,407.46 C359.97,428.36 337.4273,452.6882 324.9873,466.1182" fill="none" id="Abgebrochen-to-*end*" style="stroke:#181818;stroke-width:1;"/><polygon fill="#181818" points="320.91,470.52,329.9605,466.6355,324.3077,466.8519,324.0914,461.1991,320.91,470.52" style="stroke:#181818;stroke-width:1;"/></g><!--SRC=[LO-nRW8n44HxVuLh92Jg54XNfej4GO4Yj6V6PmjZezszHE7himQK78szEszcBCivroinNRpeJu6Td8FEb-BadoGwjUzS9n-f21Oa518Pr3BZh7WFhUxo3NxZ3gjFlrvl_PvOeVxDUcroxhbtD9mrVncXVcSmgdj87NxGBARrvFKn6luJb_7OM0LwCxx83-C42Qaq4LHpWMCh4oE7T1o1UdfvhRj7RY7TlH6fW8yqHsNelVUbhIViVswPUcg_]--></g></svg>