<svg xmlns="http://www.w3.org/2000/svg" xmlns:xlink="http://www.w3.org/1999/xlink" contentStyleType="text/css" data-diagram-type="STATE" height="823px" preserveAspectRatio="none" style="width:613px;height:823px;background:#FFFFFF;" version="1.1" viewBox="0 0 613 823" width="613px" zoomAndPan="magnify"><defs/><g><g id="Erstellt"><rect fill="#F1F1F1" height="64.2344" rx="12.5" ry="12.5" style="stroke:#181818;stroke-width:0.5;" width="225.875" x="277.96" y="87"/><line style="stroke:#181818;stroke-width:0.5;" x1="277.96" x2="503.835" y1="113.2969" y2="113.2969"/><text fill="#000000" font-family="sans-serif" font-size="14" lengthAdjust="spacing" textLength="49.2666" x="366.2642" y="104.9951">Erstellt</text><text fill="#000000" font-family="sans-serif" font-size="12" lengthAdjust="spacing" textLength="205.875" x="282.96" y="129.4355">entry / bestellnummer_generieren</text><text fill="#000000" font-family="sans-serif" font-size="12" lengthAdjust="spacing" textLength="156.3281" x="282.96" y="143.4043">entry / kunde_informieren</text></g><g id="Bezahlt"><rect fill="#F1F1F1" height="50.2656" rx="12.5" ry="12.5" style="stroke:#181818;stroke-width:0.5;" width="188.1582" x="155.82" y="228.24"/><line style="stroke:#181818;stroke-width:0.5;" x1="155.82" x2="343.9782" y1="254.5369" y2="254.5369"/><text fill="#000000" font-family="sans-serif" font-size="14" lengthAdjust="spacing" textLength="52.3975" x="223.7004" y="246.2351">Bezahlt</text><text fill="#000000" font-family="sans-serif" font-size="12" lengthAdjust="spacing" textLength="168.1582" x="160.82" y="270.6755">entry / zahlung_bestaetigen</text></g><g id="InBearbeitung"><rect fill="#F1F1F1" height="78.2031" rx="12.5" ry="12.5" style="stroke:#181818;stroke-width:0.5;" width="222.6055" x="127.59" y="388.5"/><line style="stroke:#181818;stroke-width:0.5;" x1="127.59" x2="350.1955" y1="414.7969" y2="414.7969"/><text fill="#000000" font-family="sans-serif" font-size="14" lengthAdjust="spacing" textLength="99.0664" x="189.3595" y="406.4951">InBearbeitung</text><text fill="#000000" font-family="sans-serif" font-size="12" lengthAdjust="spacing" textLength="202.6055" x="132.59" y="430.9355">entry / kommissionierung_starten</text><text fill="#000000" font-family="sans-serif" font-size="12" lengthAdjust="spacing" textLength="176.4961" x="132.59" y="444.9043">do / artikel_zusammenstellen</text><text fill="#000000" font-family="sans-serif" font-size="12" lengthAdjust="spacing" textLength="143.9238" x="132.59" y="458.873">exit / paket_vorbereiten</text></g><g id="Versendet"><rect fill="#D4EDDA" height="64.2344" rx="12.5" ry="12.5" style="stroke:#181818;stroke-width:0.5;" width="197.6211" x="138.08" y="543.71"/><line style="stroke:#181818;stroke-width:0.5;" x1="138.08" x2="335.7011" y1="570.0069" y2="570.0069"/><text fill="#000000" font-family="sans-serif" font-size="14" lengthAdjust="spacing" textLength="71.7158" x="201.0326" y="561.7051">Versendet</text><text fill="#000000" font-family="sans-serif" font-size="12" lengthAdjust="spacing" textLength="158.5781" x="143.08" y="586.1455">entry / tracking_aktivieren</text><text fill="#000000" font-family="sans-serif" font-size="12" lengthAdjust="spacing" textLength="177.6211" x="143.08" y="600.1143">do / lieferstatus_aktualisieren</text></g><g id="Zugestellt"><rect fill="#D4EDDA" height="50" rx="12.5" ry="12.5" style="stroke:#181818;stroke-width:0.5;" width="90.6289" x="82.58" y="684.94"/><line style="stroke:#181818;stroke-width:0.5;" x1="82.58" x2="173.2089" y1="711.2369" y2="711.2369"/><text fill="#000000" font-family="sans-serif" font-size="14" lengthAdjust="spacing" textLength="70.6289" x="92.58" y="702.9351">Zugestellt</text></g><g id="InRuecksendung"><rect fill="#D4EDDA" height="50" rx="12.5" ry="12.5" style="stroke:#181818;stroke-width:0.5;" width="136.3203" x="306.73" y="684.94"/><line style="stroke:#181818;stroke-width:0.5;" x1="306.73" x2="443.0503" y1="711.2369" y2="711.2369"/><text fill="#000000" font-family="sans-serif" font-size="14" lengthAdjust="spacing" textLength="116.3203" x="316.73" y="702.9351">InRuecksendung</text></g><ellipse cx="390.89" cy="16" fill="#222222" rx="10" ry="10" style="stroke:#222222;stroke-width:1;"/><g id="Storniert"><rect fill="#F1F1F1" height="50" rx="12.5" ry="12.5" style="stroke:#181818;stroke-width:0.5;" width="81.3184" x="491.24" y="308.5"/><line style="stroke:#181818;stroke-width:0.5;" x1="491.24" x2="572.5584" y1="334.7969" y2="334.7969"/><text fill="#000000" font-family="sans-serif" font-size="14" lengthAdjust="spacing" textLength="61.3184" x="501.24" y="326.4951">Storniert</text></g><ellipse cx="378.89" cy="806.94" fill="none" rx="11" ry="11" style="stroke:#222222;stroke-width:1;"/><ellipse cx="378.89" cy="806.94" fill="#222222" rx="6" ry="6" style="stroke:#222222;stroke-width:1;"/><!--link *start* to Erstellt--><g class="link" data-entity-1=".start." data-entity-2="Erstellt" data-source-line="4" data-uid="lnk3" id="link_.start._Erstellt"><path d="M390.89,26.33 C390.89,39.93 390.89,59.82 390.89,80.65" fill="none" id="*start*-to-Erstellt" style="stroke:#181818;stroke-width:1;"/><polygon fill="#181818" points="390.89,86.65,394.89,77.65,390.89,81.65,386.89,77.65,390.89,86.65" style="stroke:#181818;stroke-width:1;"/></g><!--link Erstellt to Bezahlt--><g class="link" data-entity-1="Erstellt" data-entity-2="Bezahlt" data-source-line="29" data-uid="lnk4" id="link_Erstellt_Bezahlt"><path d="M278.96,151.72 C266.73,159.5 255.85,169.18 247.89,181.24 C238.91,194.85 238.5602,207.4432 241.4602,222.1632" fill="none" id="Erstellt-to-Bezahlt" style="stroke:#181818;stroke-width:1;"/><polygon fill="#181818" points="242.62,228.05,244.8049,218.4466,241.6535,223.1443,236.9558,219.9929,242.62,228.05" style="stroke:#181818;stroke-width:1;"/><text fill="#000000" font-family="sans-serif" font-size="13" lengthAdjust="spacing" textLength="238.2212" x="248.89" y="194.3069">zahlung_erfolgt / rechnung_erstellen</text></g><!--link Erstellt to Storniert--><g class="link" data-entity-1="Erstellt" data-entity-2="Storniert" data-source-line="30" data-uid="lnk6" id="link_Erstellt_Storniert"><path d="M459.5,151.66 C471.69,159.84 483.24,169.67 491.89,181.24 C520.38,219.29 528.1697,270.0262 530.5297,302.0962" fill="none" id="Erstellt-to-Storniert" style="stroke:#181818;stroke-width:1;"/><polygon fill="#181818" points="530.97,308.08,534.2987,298.8107,530.603,303.0935,526.3203,299.3978,530.97,308.08" style="stroke:#181818;stroke-width:1;"/><text fill="#000000" font-family="sans-serif" font-size="13" lengthAdjust="spacing" textLength="102.2163" x="502.89" y="194.3069">kunde_storniert</text></g><!--link Bezahlt to InBearbeitung--><g class="link" data-entity-1="Bezahlt" data-entity-2="InBearbeitung" data-source-line="32" data-uid="lnk7" id="link_Bezahlt_InBearbeitung"><path d="M248.34,278.68 C246.52,307.15 243.8727,348.6722 241.7327,382.1522" fill="none" id="Bezahlt-to-InBearbeitung" style="stroke:#181818;stroke-width:1;"/><polygon fill="#181818" points="241.35,388.14,245.916,379.4135,241.6689,383.1502,237.9322,378.9032,241.35,388.14" style="stroke:#181818;stroke-width:1;"/><text fill="#000000" font-family="sans-serif" font-size="13" lengthAdjust="spacing" textLength="172.4722" x="247.89" y="338.0669">kommissionierung_starten</text></g><!--link InBearbeitung to Versendet--><g class="link" data-entity-1="InBearbeitung" data-entity-2="Versendet" data-source-line="33" data-uid="lnk8" id="link_InBearbeitung_Versendet"><path d="M235.27,467.13 C234.26,481.71 233.52,498.47 233.89,513.71 C234.13,523.37 234.2785,527.8976 234.7585,537.4376" fill="none" id="InBearbeitung-to-Versendet" style="stroke:#181818;stroke-width:1;"/><polygon fill="#181818" points="235.06,543.43,238.6027,534.2404,234.8087,538.4363,230.6128,534.6424,235.06,543.43" style="stroke:#181818;stroke-width:1;"/><text fill="#000000" font-family="sans-serif" font-size="13" lengthAdjust="spacing" textLength="270.9116" x="234.89" y="509.7769">versand_beauftragt / tracking_generieren</text></g><!--link Versendet to Zugestellt--><g class="link" data-entity-1="Versendet" data-entity-2="Zugestellt" data-source-line="35" data-uid="lnk9" id="link_Versendet_Zugestellt"><path d="M137.78,593.74 C90.05,604.11 40.1,619.04 25.89,637.94 C6,664.42 40.9408,682.764 76.6708,694.734" fill="none" id="Versendet-to-Zugestellt" style="stroke:#2E7D32;stroke-width:1;"/><polygon fill="#2E7D32" points="82.36,696.64,75.0968,689.9882,77.619,695.0517,72.5555,697.5739,82.36,696.64" style="stroke:#2E7D32;stroke-width:1;"/><text fill="#000000" font-family="sans-serif" font-size="13" lengthAdjust="spacing" textLength="304.313" x="26.89" y="651.0069">zustellung_bestaetigt / kunde_benachrichtigen</text></g><!--link Versendet to InRuecksendung--><g class="link" data-entity-1="Versendet" data-entity-2="InRuecksendung" data-source-line="36" data-uid="lnk10" id="link_Versendet_InRuecksendung"><path d="M298.96,608.31 C312.13,616.78 325.25,626.74 335.89,637.94 C348.68,651.4 356.1767,664.3835 362.8367,679.1035" fill="none" id="Versendet-to-InRuecksendung" style="stroke:#2E7D32;stroke-width:1;"/><polygon fill="#2E7D32" points="365.31,684.57,365.2444,674.7214,363.2489,680.0146,357.9557,678.0191,365.31,684.57" style="stroke:#2E7D32;stroke-width:1;"/><text fill="#000000" font-family="sans-serif" font-size="13" lengthAdjust="spacing" textLength="132.5518" x="349.89" y="651.0069">retoure_angemeldet</text></g><!--link Zugestellt to *end*--><g class="link" data-entity-1="Zugestellt" data-entity-2=".end." data-source-line="38" data-uid="lnk12" id="link_Zugestellt_.end."><path d="M173.64,728.25 C233.88,751.05 330.3586,787.5659 362.9586,799.9059" fill="none" id="Zugestellt-to-*end*" style="stroke:#181818;stroke-width:1;"/><polygon fill="#181818" points="368.57,802.03,361.5689,795.1029,363.8938,800.2599,358.7368,802.5848,368.57,802.03" style="stroke:#181818;stroke-width:1;"/></g><!--link Storniert to *end*--><g class="link" data-entity-1="Storniert" data-entity-2=".end." data-source-line="39" data-uid="lnk13" id="link_Storniert_.end."><path d="M531.89,358.95 C531.89,391.93 531.89,452.5 531.89,504.21 C531.89,504.21 531.89,504.21 531.89,710.94 C531.89,777.85 430.9144,798.3953 395.8344,803.6253" fill="none" id="Storniert-to-*end*" style="stroke:#181818;stroke-width:1;"/><polygon fill="#181818" points="389.9,804.51,399.3914,807.1392,394.8453,803.7727,398.2118,799.2266,389.9,804.51" style="stroke:#181818;stroke-width:1;"/></g><!--SRC=[TLF1Ikqm4DtdAuBkX8kYmWCN3nHSk5LmeKYPsqxRq3IHP7BLA-_VtoIzRTABRafovfoPoPcf7vHv1mUZzFIbaRzErHH6BNoEzD3O3sKwsOBsM4Hg3TxV4cksWV2XjkP9xL5UYDUpDxdP_9NtpXDgJK9u0a9vCWCd4lmIbTz2vikDH4FkIvxBBIR8X754LtLeq2bqQ7vc3y4qM2dJMZTEj7zBsJlSGt-eUZYdelCvPudtOBegrWOarQtoF9Wx1BT5HSn9sLP8ohb6YlxiE2hlbJNSNIp1EHsbrnnB6ijy3ge1TRKF7jW0anxy8nq_5R7W7GQaQcSvuZYsQlmPdKVsPx9WkSdJvXgR1bBZ6SrDauEQnzrLC93QpUwNpDIhLjWonhM2ZzG0MldZ8Ro43elfv-lSHNRvCM0zn1BPvX9Q16BPWxXjUPhp5D6rLdVH78TrRoPeDdAbVIBhuc2YUjeaFoD2p8aZyTZyNyUw9aPfQTkEps0QtZC8BRkScbpSBdPTPDNczVGI_pHNbs-ShB2FtnlISRMujFmJMpHGz_nZzzC-_vBnoECRzeniS5Y1wN14pG8XYhBnIVoZYspT0VaF]--></g></svg>