<svg xmlns="http://www.w3.org/2000/svg" xmlns:xlink="http://www.w3.org/1999/xlink" contentStyleType="text/css" data-diagram-type="ACTIVITY" height="929px" preserveAspectRatio="none" style="width:2401px;height:929px;background:#FFFFFF;" version="1.1" viewBox="0 0 2401 929" width="2401px" zoomAndPan="magnify"><defs/><g><rect fill="none" height="20.9531" style="stroke:none;stroke-width:1;" width="2368.2983" x="15" y="12.7451"/><ellipse cx="532.2734" cy="48.6982" fill="#222222" rx="10" ry="10" style="stroke:#222222;stroke-width:1;"/><rect fill="#F1F1F1" height="33.9688" rx="12.5" ry="12.5" style="stroke:#181818;stroke-width:0.5;" width="131.4746" x="466.5361" y="78.6982"/><text fill="#000000" font-family="sans-serif" font-size="12" lengthAdjust="spacing" textLength="111.4746" x="476.5361" y="99.8369">Retoure anmelden</text><rect fill="#F1F1F1" height="33.9688" rx="12.5" ry="12.5" style="stroke:#181818;stroke-width:0.5;" width="165.875" x="449.3359" y="132.667"/><text fill="#000000" font-family="sans-serif" font-size="12" lengthAdjust="spacing" textLength="145.875" x="459.3359" y="153.8057">Retourengrund erfassen</text><rect fill="#F1F1F1" height="33.9688" rx="12.5" ry="12.5" style="stroke:#181818;stroke-width:0.5;" width="193.5781" x="215.3936" y="230.6357"/><text fill="#000000" font-family="sans-serif" font-size="12" lengthAdjust="spacing" textLength="173.5781" x="225.3936" y="251.7744">Retourenlabel herunterladen</text><rect fill="#F1F1F1" height="33.9688" rx="12.5" ry="12.5" style="stroke:#181818;stroke-width:0.5;" width="118.2734" x="253.0459" y="284.6045"/><text fill="#000000" font-family="sans-serif" font-size="12" lengthAdjust="spacing" textLength="98.2734" x="263.0459" y="305.7432">Ware verpacken</text><rect fill="#F1F1F1" height="33.9688" rx="12.5" ry="12.5" style="stroke:#181818;stroke-width:0.5;" width="120.7051" x="251.8301" y="338.5732"/><text fill="#000000" font-family="sans-serif" font-size="12" lengthAdjust="spacing" textLength="100.7051" x="261.8301" y="359.7119">Paket versenden</text><rect fill="#D4EDDA" height="33.9688" rx="12.5" ry="12.5" style="stroke:#181818;stroke-width:0.5;" width="215.2285" x="21" y="773.3857"/><text fill="#000000" font-family="sans-serif" font-size="12" lengthAdjust="spacing" textLength="195.2285" x="31" y="794.5244">Erstattungsbest&#228;tigung erhalten</text><rect fill="#D4EDDA" height="33.9688" rx="12.5" ry="12.5" style="stroke:#181818;stroke-width:0.5;" width="178.3789" x="406.5615" y="598.4482"/><text fill="#000000" font-family="sans-serif" font-size="12" lengthAdjust="spacing" textLength="158.3789" x="416.5615" y="619.5869">Hinweis auf Besch&#228;digung</text><rect fill="#F1F1F1" height="33.9688" rx="12.5" ry="12.5" style="stroke:#181818;stroke-width:0.5;" width="250.0684" x="625.2109" y="284.6045"/><text fill="#000000" font-family="sans-serif" font-size="12" lengthAdjust="spacing" textLength="230.0684" x="635.2109" y="305.7432">Ablehnungsbenachrichtigung erhalten</text><ellipse cx="532.2734" cy="906.3545" fill="none" rx="11" ry="11" style="stroke:#222222;stroke-width:1;"/><ellipse cx="532.2734" cy="906.3545" fill="#222222" rx="6" ry="6" style="stroke:#222222;stroke-width:1;"/><line style="stroke:#000000;stroke-width:1.5;" x1="15" x2="15" y1="12.7451" y2="917.3545"/><polygon fill="#F1F1F1" points="1307.6426,186.6357,1307.6426,186.6357,1319.6426,198.6357,1307.6426,210.6357,1307.6426,210.6357,1295.6426,198.6357,1307.6426,186.6357" style="stroke:#181818;stroke-width:0.5;"/><text fill="#000000" font-family="sans-serif" font-size="11" lengthAdjust="spacing" textLength="156.0356" x="1139.6069" y="196.0415">[Retoure innerhalb 14 Tage]</text><text fill="#000000" font-family="sans-serif" font-size="11" lengthAdjust="spacing" textLength="137.6987" x="1319.6426" y="196.0415">[Retoure nach 14 Tagen]</text><rect fill="#D4EDDA" height="33.9688" rx="12.5" ry="12.5" style="stroke:#181818;stroke-width:0.5;" width="238.2617" x="897.2793" y="658.9326"/><text fill="#000000" font-family="sans-serif" font-size="12" lengthAdjust="spacing" textLength="218.2617" x="907.2793" y="680.0713">Bestellung als retourniert markieren</text><rect fill="#555555" height="6" rx="2.5" ry="2.5" style="stroke:#555555;stroke-width:1;" width="264.2617" x="885.2793" y="747.3857"/><rect fill="#F1F1F1" height="33.9688" rx="12.5" ry="12.5" style="stroke:#181818;stroke-width:0.5;" width="127.3906" x="1464.0381" y="230.6357"/><text fill="#000000" font-family="sans-serif" font-size="12" lengthAdjust="spacing" textLength="107.3906" x="1474.0381" y="251.7744">Retoure ablehnen</text><polygon fill="#F1F1F1" points="1307.6426,851.3545,1319.6426,863.3545,1307.6426,875.3545,1295.6426,863.3545,1307.6426,851.3545" style="stroke:#181818;stroke-width:0.5;"/><line style="stroke:#000000;stroke-width:1.5;" x1="879.2793" x2="879.2793" y1="12.7451" y2="917.3545"/><rect fill="#F1F1F1" height="33.9688" rx="12.5" ry="12.5" style="stroke:#181818;stroke-width:0.5;" width="139.9824" x="1815.4453" y="392.542"/><text fill="#000000" font-family="sans-serif" font-size="12" lengthAdjust="spacing" textLength="119.9824" x="1825.4453" y="413.6807">Retoure empfangen</text><rect fill="#F1F1F1" height="33.9688" rx="12.5" ry="12.5" style="stroke:#181818;stroke-width:0.5;" width="149.7617" x="1810.5557" y="446.5107"/><text fill="#000000" font-family="sans-serif" font-size="12" lengthAdjust="spacing" textLength="129.7617" x="1820.5557" y="467.6494">Warenzustand pr&#252;fen</text><polygon fill="#F1F1F1" points="1885.4365,500.4795,1885.4365,500.4795,1897.4365,512.4795,1885.4365,524.4795,1885.4365,524.4795,1873.4365,512.4795,1885.4365,500.4795" style="stroke:#181818;stroke-width:0.5;"/><text fill="#000000" font-family="sans-serif" font-size="11" lengthAdjust="spacing" textLength="115.5054" x="1757.9312" y="509.8853">[Ware unbesch&#228;digt]</text><text fill="#000000" font-family="sans-serif" font-size="11" lengthAdjust="spacing" textLength="101.562" x="1897.4365" y="509.8853">[Ware besch&#228;digt]</text><rect fill="#F1F1F1" height="33.9688" rx="12.5" ry="12.5" style="stroke:#181818;stroke-width:0.5;" width="176.8789" x="1613.4287" y="544.4795"/><text fill="#000000" font-family="sans-serif" font-size="12" lengthAdjust="spacing" textLength="156.8789" x="1623.4287" y="565.6182">Ware ins Lager einbuchen</text><rect fill="#555555" height="6" rx="2.5" ry="2.5" style="stroke:#555555;stroke-width:1;" width="345.9971" x="1601.4287" y="598.4482"/><rect fill="#F1F1F1" height="33.9688" rx="12.5" ry="12.5" style="stroke:#181818;stroke-width:0.5;" width="203.1582" x="1967.4258" y="544.4795"/><text fill="#000000" font-family="sans-serif" font-size="12" lengthAdjust="spacing" textLength="183.1582" x="1977.4258" y="565.6182">Ware als Defekt kennzeichnen</text><polygon fill="#F1F1F1" points="1885.4365,817.3545,1897.4365,829.3545,1885.4365,841.3545,1873.4365,829.3545,1885.4365,817.3545" style="stroke:#181818;stroke-width:0.5;"/><line style="stroke:#000000;stroke-width:1.5;" x1="1595.4287" x2="1595.4287" y1="12.7451" y2="917.3545"/><rect fill="#D4EDDA" height="33.9688" rx="12.5" ry="12.5" style="stroke:#181818;stroke-width:0.5;" width="196.8535" x="2180.584" y="624.4482"/><text fill="#000000" font-family="sans-serif" font-size="12" lengthAdjust="spacing" textLength="176.8535" x="2190.584" y="645.5869">Erstattungsbetrag berechnen</text><rect fill="#D4EDDA" height="33.9688" rx="12.5" ry="12.5" style="stroke:#181818;stroke-width:0.5;" width="146.4629" x="2205.7793" y="693.417"/><text fill="#000000" font-family="sans-serif" font-size="12" lengthAdjust="spacing" textLength="126.4629" x="2215.7793" y="714.5557">Geld zur&#252;ckerstatten</text><line style="stroke:#000000;stroke-width:1.5;" x1="2174.584" x2="2174.584" y1="12.7451" y2="917.3545"/><line style="stroke:#000000;stroke-width:1.5;" x1="2381.4375" x2="2381.4375" y1="12.7451" y2="917.3545"/><line style="stroke:#181818;stroke-width:1;" x1="532.2734" x2="532.2734" y1="58.6982" y2="78.6982"/><polygon fill="#181818" points="528.2734,68.6982,536.2734,68.6982,532.2734,78.6982" style="stroke:#181818;stroke-width:1;"/><line style="stroke:#181818;stroke-width:1;" x1="532.2734" x2="532.2734" y1="112.667" y2="132.667"/><polygon fill="#181818" points="528.2734,122.667,536.2734,122.667,532.2734,132.667" style="stroke:#181818;stroke-width:1;"/><line style="stroke:#181818;stroke-width:1;" x1="312.1826" x2="312.1826" y1="264.6045" y2="284.6045"/><polygon fill="#181818" points="308.1826,274.6045,316.1826,274.6045,312.1826,284.6045" style="stroke:#181818;stroke-width:1;"/><line style="stroke:#181818;stroke-width:1;" x1="312.1826" x2="312.1826" y1="318.5732" y2="338.5732"/><polygon fill="#181818" points="308.1826,328.5732,316.1826,328.5732,312.1826,338.5732" style="stroke:#181818;stroke-width:1;"/><line style="stroke:#181818;stroke-width:1;" x1="1016.4102" x2="1016.4102" y1="692.9014" y2="747.3857"/><polygon fill="#181818" points="1012.4102,737.3857,1020.4102,737.3857,1016.4102,747.3857" style="stroke:#181818;stroke-width:1;"/><line style="stroke:#181818;stroke-width:1;" x1="1319.6426" x2="1527.7334" y1="198.6357" y2="198.6357"/><line style="stroke:#181818;stroke-width:1;" x1="1527.7334" x2="1527.7334" y1="198.6357" y2="230.6357"/><polygon fill="#181818" points="1523.7334,220.6357,1531.7334,220.6357,1527.7334,230.6357" style="stroke:#181818;stroke-width:1;"/><line style="stroke:#181818;stroke-width:1;" x1="1885.4365" x2="1885.4365" y1="426.5107" y2="446.5107"/><polygon fill="#181818" points="1881.4365,436.5107,1889.4365,436.5107,1885.4365,446.5107" style="stroke:#181818;stroke-width:1;"/><line style="stroke:#181818;stroke-width:1;" x1="1701.8682" x2="1701.8682" y1="578.4482" y2="598.4482"/><polygon fill="#181818" points="1697.8682,588.4482,1705.8682,588.4482,1701.8682,598.4482" style="stroke:#181818;stroke-width:1;"/><line style="stroke:#181818;stroke-width:1;" x1="1873.4365" x2="1701.8682" y1="512.4795" y2="512.4795"/><line style="stroke:#181818;stroke-width:1;" x1="1701.8682" x2="1701.8682" y1="512.4795" y2="544.4795"/><polygon fill="#181818" points="1697.8682,534.4795,1705.8682,534.4795,1701.8682,544.4795" style="stroke:#181818;stroke-width:1;"/><line style="stroke:#181818;stroke-width:1;" x1="1897.4365" x2="2069.0049" y1="512.4795" y2="512.4795"/><line style="stroke:#181818;stroke-width:1;" x1="2069.0049" x2="2069.0049" y1="512.4795" y2="544.4795"/><polygon fill="#181818" points="2065.0049,534.4795,2073.0049,534.4795,2069.0049,544.4795" style="stroke:#181818;stroke-width:1;"/><line style="stroke:#181818;stroke-width:1;" x1="1885.4365" x2="1885.4365" y1="480.4795" y2="500.4795"/><polygon fill="#181818" points="1881.4365,490.4795,1889.4365,490.4795,1885.4365,500.4795" style="stroke:#181818;stroke-width:1;"/><line style="stroke:#181818;stroke-width:1;" x1="2279.0107" x2="2279.0107" y1="658.417" y2="693.417"/><polygon fill="#181818" points="2275.0107,683.417,2283.0107,683.417,2279.0107,693.417" style="stroke:#181818;stroke-width:1;"/><line style="stroke:#181818;stroke-width:1;" x1="312.1826" x2="312.1826" y1="372.542" y2="377.542"/><line style="stroke:#181818;stroke-width:1;" x1="312.1826" x2="1885.4365" y1="377.542" y2="377.542"/><line style="stroke:#181818;stroke-width:1;" x1="1885.4365" x2="1885.4365" y1="377.542" y2="392.542"/><polygon fill="#181818" points="1881.4365,382.542,1889.4365,382.542,1885.4365,392.542" style="stroke:#181818;stroke-width:1;"/><line style="stroke:#181818;stroke-width:1;" x1="1608.4287" x2="1608.4287" y1="604.4482" y2="608.4482"/><line style="stroke:#181818;stroke-width:1;" x1="1608.4287" x2="2279.0107" y1="608.4482" y2="608.4482"/><line style="stroke:#181818;stroke-width:1;" x1="2279.0107" x2="2279.0107" y1="608.4482" y2="624.4482"/><polygon fill="#181818" points="2275.0107,614.4482,2283.0107,614.4482,2279.0107,624.4482" style="stroke:#181818;stroke-width:1;"/><line style="stroke:#181818;stroke-width:1;" x1="1814.2949" x2="1814.2949" y1="604.4482" y2="608.4482"/><line style="stroke:#181818;stroke-width:1;" x1="1814.2949" x2="1016.4102" y1="608.4482" y2="608.4482"/><line style="stroke:#181818;stroke-width:1;" x1="1016.4102" x2="1016.4102" y1="608.4482" y2="658.9326"/><polygon fill="#181818" points="1012.4102,648.9326,1020.4102,648.9326,1016.4102,658.9326" style="stroke:#181818;stroke-width:1;"/><line style="stroke:#181818;stroke-width:1;" x1="2279.0107" x2="2279.0107" y1="727.3857" y2="733.3857"/><line style="stroke:#181818;stroke-width:1;" x1="2279.0107" x2="892.2793" y1="733.3857" y2="733.3857"/><line style="stroke:#181818;stroke-width:1;" x1="892.2793" x2="892.2793" y1="733.3857" y2="747.3857"/><polygon fill="#181818" points="888.2793,737.3857,896.2793,737.3857,892.2793,747.3857" style="stroke:#181818;stroke-width:1;"/><line style="stroke:#181818;stroke-width:1;" x1="903.9834" x2="903.9834" y1="753.3857" y2="758.3857"/><line style="stroke:#181818;stroke-width:1;" x1="903.9834" x2="128.6143" y1="758.3857" y2="758.3857"/><line style="stroke:#181818;stroke-width:1;" x1="128.6143" x2="128.6143" y1="758.3857" y2="773.3857"/><polygon fill="#181818" points="124.6143,763.3857,132.6143,763.3857,128.6143,773.3857" style="stroke:#181818;stroke-width:1;"/><line style="stroke:#181818;stroke-width:1;" x1="2069.0049" x2="2069.0049" y1="578.4482" y2="583.4482"/><line style="stroke:#181818;stroke-width:1;" x1="2069.0049" x2="495.751" y1="583.4482" y2="583.4482"/><line style="stroke:#181818;stroke-width:1;" x1="495.751" x2="495.751" y1="583.4482" y2="598.4482"/><polygon fill="#181818" points="491.751,588.4482,499.751,588.4482,495.751,598.4482" style="stroke:#181818;stroke-width:1;"/><line style="stroke:#181818;stroke-width:1;" x1="128.6143" x2="128.6143" y1="807.3545" y2="829.3545"/><line style="stroke:#181818;stroke-width:1;" x1="128.6143" x2="1873.4365" y1="829.3545" y2="829.3545"/><polygon fill="#181818" points="1863.4365,825.3545,1873.4365,829.3545,1863.4365,833.3545" style="stroke:#181818;stroke-width:1;"/><line style="stroke:#181818;stroke-width:1;" x1="495.751" x2="495.751" y1="632.417" y2="811.3545"/><line style="stroke:#181818;stroke-width:1;" x1="495.751" x2="1915.4365" y1="811.3545" y2="811.3545"/><line style="stroke:#181818;stroke-width:1;" x1="1915.4365" x2="1915.4365" y1="811.3545" y2="829.3545"/><line style="stroke:#181818;stroke-width:1;" x1="1915.4365" x2="1897.4365" y1="829.3545" y2="829.3545"/><polygon fill="#181818" points="1907.4365,825.3545,1897.4365,829.3545,1907.4365,833.3545" style="stroke:#181818;stroke-width:1;"/><line style="stroke:#181818;stroke-width:1;" x1="1527.7334" x2="1527.7334" y1="264.6045" y2="269.6045"/><line style="stroke:#181818;stroke-width:1;" x1="1527.7334" x2="750.2451" y1="269.6045" y2="269.6045"/><line style="stroke:#181818;stroke-width:1;" x1="750.2451" x2="750.2451" y1="269.6045" y2="284.6045"/><polygon fill="#181818" points="746.2451,274.6045,754.2451,274.6045,750.2451,284.6045" style="stroke:#181818;stroke-width:1;"/><line style="stroke:#181818;stroke-width:1;" x1="1295.6426" x2="312.1826" y1="198.6357" y2="198.6357"/><line style="stroke:#181818;stroke-width:1;" x1="312.1826" x2="312.1826" y1="198.6357" y2="230.6357"/><polygon fill="#181818" points="308.1826,220.6357,316.1826,220.6357,312.1826,230.6357" style="stroke:#181818;stroke-width:1;"/><line style="stroke:#181818;stroke-width:1;" x1="1885.4365" x2="1885.4365" y1="841.3545" y2="845.3545"/><line style="stroke:#181818;stroke-width:1;" x1="1885.4365" x2="1277.6426" y1="845.3545" y2="845.3545"/><line style="stroke:#181818;stroke-width:1;" x1="1277.6426" x2="1277.6426" y1="845.3545" y2="863.3545"/><line style="stroke:#181818;stroke-width:1;" x1="1277.6426" x2="1295.6426" y1="863.3545" y2="863.3545"/><polygon fill="#181818" points="1285.6426,859.3545,1295.6426,863.3545,1285.6426,867.3545" style="stroke:#181818;stroke-width:1;"/><line style="stroke:#181818;stroke-width:1;" x1="750.2451" x2="750.2451" y1="318.5732" y2="845.3545"/><line style="stroke:#181818;stroke-width:1;" x1="750.2451" x2="1337.6426" y1="845.3545" y2="845.3545"/><line style="stroke:#181818;stroke-width:1;" x1="1337.6426" x2="1337.6426" y1="845.3545" y2="863.3545"/><line style="stroke:#181818;stroke-width:1;" x1="1337.6426" x2="1319.6426" y1="863.3545" y2="863.3545"/><polygon fill="#181818" points="1329.6426,859.3545,1319.6426,863.3545,1329.6426,867.3545" style="stroke:#181818;stroke-width:1;"/><line style="stroke:#181818;stroke-width:1;" x1="532.2734" x2="532.2734" y1="166.6357" y2="171.6357"/><line style="stroke:#181818;stroke-width:1;" x1="532.2734" x2="1307.6426" y1="171.6357" y2="171.6357"/><line style="stroke:#181818;stroke-width:1;" x1="1307.6426" x2="1307.6426" y1="171.6357" y2="186.6357"/><polygon fill="#181818" points="1303.6426,176.6357,1311.6426,176.6357,1307.6426,186.6357" style="stroke:#181818;stroke-width:1;"/><line style="stroke:#181818;stroke-width:1;" x1="1307.6426" x2="1307.6426" y1="875.3545" y2="880.3545"/><line style="stroke:#181818;stroke-width:1;" x1="1307.6426" x2="532.2734" y1="880.3545" y2="880.3545"/><line style="stroke:#181818;stroke-width:1;" x1="532.2734" x2="532.2734" y1="880.3545" y2="895.3545"/><polygon fill="#181818" points="528.2734,885.3545,536.2734,885.3545,532.2734,895.3545" style="stroke:#181818;stroke-width:1;"/><text fill="#000000" font-family="sans-serif" font-size="18" lengthAdjust="spacing" textLength="57.1201" x="418.5796" y="29.4531">Kunde</text><text fill="#000000" font-family="sans-serif" font-size="18" lengthAdjust="spacing" textLength="157.1396" x="1158.7842" y="29.4531">Webshop-System</text><text fill="#000000" font-family="sans-serif" font-size="18" lengthAdjust="spacing" textLength="50.959" x="1859.5269" y="29.4531">Lager</text><text fill="#000000" font-family="sans-serif" font-size="18" lengthAdjust="spacing" textLength="113.8008" x="2221.1104" y="29.4531">Buchhaltung</text><!--SRC=[TLEzRjmm3Dxz50Iw94E15iYKJ3cqQ8DqA9806OeEj4rRWcNQaAW4EVXnyXZTxiLA_-ZivDh544Zf-oCT6iizUcmXo8iZ_NfRI6nT5jQEmR9xjbn3XIxGfbCu3E5Qz4qUXMwAZk_jdk1JDjn6Bcd8Wg2NxFAEf8kU0BabLn9V7KjSUxq9v2j56Xl38-N1TFt7-vSWr0wPhU3i7CGGmzcl16IPoHjqENo-W0UiwVTv1f1O0Oxm3dDoO4XPXBp3YLpxZwWeJ-HxB9gbz1CRah6cEfPhmm-5zbj0eBQlaEiD3E-ZsbGJlJ_ygUR66z4JL-ISGc4EhwMjPLARL5WECF40MSvZOMO8WAhppNHG8Jkjgr-9N0zBxKDvGMM9br-zqilO2Jc9nnfoybGOJZZhrM-QFkoZwbJNyxCj6M2DbXFb-q6yXTgHLfrJLj2b03_5mvQyG8k-qKD2rZHNA-k8_cCWoE5LR3tYJXDU198kNehoDCXrJYdKKTCNggWHqFdodkmca7-9-6xvcMm0Z1NiZWGgOsBdqbRPeY5j0cDXqlhnl7-daQshdpjA2ZPxUZsLP-iZeFvzviJ-J1-aw_y2]--></g></svg>