<svg xmlns="http://www.w3.org/2000/svg" xmlns:xlink="http://www.w3.org/1999/xlink" contentStyleType="text/css" data-diagram-type="STATE" height="480px" preserveAspectRatio="none" style="width:140px;height:480px;background:#FFFFFF;" version="1.1" viewBox="0 0 140 480" width="140px" zoomAndPan="magnify"><defs/><g><ellipse cx="52.86" cy="16" fill="#222222" rx="10" ry="10" style="stroke:#222222;stroke-width:1;"/><g id="Neu"><rect fill="#F1F1F1" height="50" rx="12.5" ry="12.5" style="stroke:#181818;stroke-width:0.5;" width="50" x="27.86" y="87"/><line style="stroke:#181818;stroke-width:0.5;" x1="27.86" x2="77.86" y1="113.2969" y2="113.2969"/><text fill="#000000" font-family="sans-serif" font-size="14" lengthAdjust="spacing" textLength="27.959" x="38.8805" y="104.9951">Neu</text></g><g id="Bezahlt"><rect fill="#F1F1F1" height="50" rx="12.5" ry="12.5" style="stroke:#181818;stroke-width:0.5;" width="72.3975" x="16.66" y="214"/><line style="stroke:#181818;stroke-width:0.5;" x1="16.66" x2="89.0575" y1="240.2969" y2="240.2969"/><text fill="#000000" font-family="sans-serif" font-size="14" lengthAdjust="spacing" textLength="52.3975" x="26.66" y="231.9951">Bezahlt</text></g><g id="Versendet"><rect fill="#F1F1F1" height="50" rx="12.5" ry="12.5" style="stroke:#181818;stroke-width:0.5;" width="91.7158" x="7" y="341"/><line style="stroke:#181818;stroke-width:0.5;" x1="7" x2="98.7158" y1="367.2969" y2="367.2969"/><text fill="#000000" font-family="sans-serif" font-size="14" lengthAdjust="spacing" textLength="71.7158" x="17" y="358.9951">Versendet</text></g><ellipse cx="52.86" cy="463" fill="none" rx="11" ry="11" style="stroke:#222222;stroke-width:1;"/><ellipse cx="52.86" cy="463" fill="#222222" rx="6" ry="6" style="stroke:#222222;stroke-width:1;"/><!--link *start* to Neu--><g class="link" data-entity-1=".start." data-entity-2="Neu" data-source-line="4" data-uid="lnk4" id="link_.start._Neu"><path d="M52.86,26.36 C52.86,40.29 52.86,60.95 52.86,80.65" fill="none" id="*start*-to-Neu" style="stroke:#181818;stroke-width:1;"/><polygon fill="#181818" points="52.86,86.65,56.86,77.65,52.86,81.65,48.86,77.65,52.86,86.65" style="stroke:#181818;stroke-width:1;"/></g><!--link Neu to Bezahlt--><g class="link" data-entity-1="Neu" data-entity-2="Bezahlt" data-source-line="5" data-uid="lnk6" id="link_Neu_Bezahlt"><path d="M52.86,137.4 C52.86,159.42 52.86,185.66 52.86,207.66" fill="none" id="Neu-to-Bezahlt" style="stroke:#181818;stroke-width:1;"/><polygon fill="#181818" points="52.86,213.66,56.86,204.66,52.86,208.66,48.86,204.66,52.86,213.66" style="stroke:#181818;stroke-width:1;"/><text fill="#000000" font-family="sans-serif" font-size="13" lengthAdjust="spacing" textLength="69.272" x="53.86" y="180.0669">bezahlen()</text></g><!--link Bezahlt to Versendet--><g class="link" data-entity-1="Bezahlt" data-entity-2="Versendet" data-source-line="6" data-uid="lnk8" id="link_Bezahlt_Versendet"><path d="M52.86,264.4 C52.86,286.42 52.86,312.66 52.86,334.66" fill="none" id="Bezahlt-to-Versendet" style="stroke:#181818;stroke-width:1;"/><polygon fill="#181818" points="52.86,340.66,56.86,331.66,52.86,335.66,48.86,331.66,52.86,340.66" style="stroke:#181818;stroke-width:1;"/><text fill="#000000" font-family="sans-serif" font-size="13" lengthAdjust="spacing" textLength="78.6792" x="53.86" y="307.0669">versenden()</text></g><!--link Versendet to *end*--><g class="link" data-entity-1="Versendet" data-entity-2=".end." data-source-line="7" data-uid="lnk10" id="link_Versendet_.end."><path d="M52.86,391.46 C52.86,411.04 52.86,431.49 52.86,445.8" fill="none" id="Versendet-to-*end*" style="stroke:#181818;stroke-width:1;"/><polygon fill="#181818" points="52.86,451.8,56.86,442.8,52.86,446.8,48.86,442.8,52.86,451.8" style="stroke:#181818;stroke-width:1;"/></g><!--SRC=[AyxEp2j8B4hCLIWkgSn91P95cSabfRavNCK8cOp4bFpopBnqXRJ4dE9K99dadCJYOiSIe9waqf9Kp-JylE3CgbG50wvehLW5NLqx1R_KKYuW1hETKgiICt9A5AmKai2ir3mDJIwO84X1M6fHSMfUIYf8IHcK3LA340Uf0XeD0000]--></g></svg>