<svg xmlns="http://www.w3.org/2000/svg" xmlns:xlink="http://www.w3.org/1999/xlink" contentStyleType="text/css" data-diagram-type="ACTIVITY" height="190px" preserveAspectRatio="none" style="width:124px;height:190px;background:#FFFFFF;" version="1.1" viewBox="0 0 124 190" width="124px" zoomAndPan="magnify"><defs/><g><ellipse cx="62.3994" cy="20" fill="#222222" rx="10" ry="10" style="stroke:#222222;stroke-width:1;"/><rect fill="#F1F1F1" height="33.9688" rx="12.5" ry="12.5" style="stroke:#181818;stroke-width:0.5;" width="92.8145" x="15.9922" y="50"/><text fill="#000000" font-family="sans-serif" font-size="12" lengthAdjust="spacing" textLength="72.8145" x="25.9922" y="71.1387">Erste Aktion</text><rect fill="#F1F1F1" height="33.9688" rx="12.5" ry="12.5" style="stroke:#181818;stroke-width:0.5;" width="102.7988" x="11" y="103.9688"/><text fill="#000000" font-family="sans-serif" font-size="12" lengthAdjust="spacing" textLength="82.7988" x="21" y="125.1074">Zweite Aktion</text><ellipse cx="62.3994" cy="168.9375" fill="none" rx="11" ry="11" style="stroke:#222222;stroke-width:1;"/><ellipse cx="62.3994" cy="168.9375" fill="#222222" rx="6" ry="6" style="stroke:#222222;stroke-width:1;"/><line style="stroke:#181818;stroke-width:1;" x1="62.3994" x2="62.3994" y1="30" y2="50"/><polygon fill="#181818" points="58.3994,40,66.3994,40,62.3994,50" style="stroke:#181818;stroke-width:1;"/><line style="stroke:#181818;stroke-width:1;" x1="62.3994" x2="62.3994" y1="83.9688" y2="103.9688"/><polygon fill="#181818" points="58.3994,93.9688,66.3994,93.9688,62.3994,103.9688" style="stroke:#181818;stroke-width:1;"/><line style="stroke:#181818;stroke-width:1;" x1="62.3994" x2="62.3994" y1="137.9375" y2="157.9375"/><polygon fill="#181818" points="58.3994,147.9375,66.3994,147.9375,62.3994,157.9375" style="stroke:#181818;stroke-width:1;"/><!--SRC=[JOix3eCm40Lxdy97I0qLHOhKT7GRPmah_9FVGoYS7hhGZ3GQ3LRBLPea3_wYNcmMkANey2-BVCfk-UjdYT1R2L60WTVptgYlKF9eX_g70wNHTSy6gXzMMiczwwPTxUPWgIS0]--></g></svg>