<svg xmlns="http://www.w3.org/2000/svg" xmlns:xlink="http://www.w3.org/1999/xlink" contentStyleType="text/css" data-diagram-type="ACTIVITY" height="514px" preserveAspectRatio="none" style="width:836px;height:514px;background:#FFFFFF;" version="1.1" viewBox="0 0 836 514" width="836px" zoomAndPan="magnify"><defs/><g><rect fill="none" height="20.9531" style="stroke:none;stroke-width:1;" width="803.2388" x="15" y="12.7451"/><ellipse cx="191.0171" cy="48.6982" fill="#222222" rx="10" ry="10" style="stroke:#222222;stroke-width:1;"/><rect fill="#F1F1F1" height="33.9688" rx="12.5" ry="12.5" style="stroke:#181818;stroke-width:0.5;" width="134.5098" x="123.7622" y="78.6982"/><text fill="#000000" font-family="sans-serif" font-size="12" lengthAdjust="spacing" textLength="114.5098" x="133.7622" y="99.8369">Produkt ausw&#228;hlen</text><rect fill="#F1F1F1" height="33.9688" rx="12.5" ry="12.5" style="stroke:#181818;stroke-width:0.5;" width="138.0781" x="121.978" y="132.667"/><text fill="#000000" font-family="sans-serif" font-size="12" lengthAdjust="spacing" textLength="118.0781" x="131.978" y="153.8057">In Warenkorb legen</text><rect fill="#F1F1F1" height="33.9688" rx="12.5" ry="12.5" style="stroke:#181818;stroke-width:0.5;" width="151.2207" x="21" y="338.5732"/><text fill="#000000" font-family="sans-serif" font-size="12" lengthAdjust="spacing" textLength="131.2207" x="31" y="359.7119">Bestellung best&#228;tigen</text><rect fill="#F1F1F1" height="33.9688" rx="12.5" ry="12.5" style="stroke:#181818;stroke-width:0.5;" width="179.8496" x="195.499" y="284.6045"/><text fill="#000000" font-family="sans-serif" font-size="12" lengthAdjust="spacing" textLength="159.8496" x="205.499" y="305.7432">Benachrichtigung erhalten</text><ellipse cx="191.0171" cy="491.5107" fill="none" rx="11" ry="11" style="stroke:#222222;stroke-width:1;"/><ellipse cx="191.0171" cy="491.5107" fill="#222222" rx="6" ry="6" style="stroke:#222222;stroke-width:1;"/><line style="stroke:#000000;stroke-width:1.5;" x1="15" x2="15" y1="12.7451" y2="502.5107"/><rect fill="#F1F1F1" height="33.9688" rx="12.5" ry="12.5" style="stroke:#181818;stroke-width:0.5;" width="145.4316" x="465.5728" y="186.6357"/><text fill="#000000" font-family="sans-serif" font-size="12" lengthAdjust="spacing" textLength="125.4316" x="475.5728" y="207.7744">Verf&#252;gbarkeit pr&#252;fen</text><polygon fill="#F1F1F1" points="538.2886,240.6045,538.2886,240.6045,550.2886,252.6045,538.2886,264.6045,538.2886,264.6045,526.2886,252.6045,538.2886,240.6045" style="stroke:#181818;stroke-width:0.5;"/><text fill="#000000" font-family="sans-serif" font-size="11" lengthAdjust="spacing" textLength="62.4551" x="463.8335" y="250.0103">[verf&#252;gbar]</text><text fill="#000000" font-family="sans-serif" font-size="11" lengthAdjust="spacing" textLength="93.312" x="550.2886" y="250.0103">[nicht verf&#252;gbar]</text><rect fill="#F1F1F1" height="33.9688" rx="12.5" ry="12.5" style="stroke:#181818;stroke-width:0.5;" width="117.0664" x="385.3486" y="284.6045"/><text fill="#000000" font-family="sans-serif" font-size="12" lengthAdjust="spacing" textLength="97.0664" x="395.3486" y="305.7432">Preis berechnen</text><polygon fill="#F1F1F1" points="538.2886,436.5107,550.2886,448.5107,538.2886,460.5107,526.2886,448.5107,538.2886,436.5107" style="stroke:#181818;stroke-width:0.5;"/><line style="stroke:#000000;stroke-width:1.5;" x1="379.3486" x2="379.3486" y1="12.7451" y2="502.5107"/><rect fill="#F1F1F1" height="33.9688" rx="12.5" ry="12.5" style="stroke:#181818;stroke-width:0.5;" width="157.7773" x="654.6006" y="392.542"/><text fill="#000000" font-family="sans-serif" font-size="12" lengthAdjust="spacing" textLength="137.7773" x="664.6006" y="413.6807">Ware kommissionieren</text><line style="stroke:#000000;stroke-width:1.5;" x1="648.6006" x2="648.6006" y1="12.7451" y2="502.5107"/><line style="stroke:#000000;stroke-width:1.5;" x1="816.3779" x2="816.3779" y1="12.7451" y2="502.5107"/><line style="stroke:#181818;stroke-width:1;" x1="191.0171" x2="191.0171" y1="58.6982" y2="78.6982"/><polygon fill="#181818" points="187.0171,68.6982,195.0171,68.6982,191.0171,78.6982" style="stroke:#181818;stroke-width:1;"/><line style="stroke:#181818;stroke-width:1;" x1="191.0171" x2="191.0171" y1="112.667" y2="132.667"/><polygon fill="#181818" points="187.0171,122.667,195.0171,122.667,191.0171,132.667" style="stroke:#181818;stroke-width:1;"/><line style="stroke:#181818;stroke-width:1;" x1="526.2886" x2="443.8818" y1="252.6045" y2="252.6045"/><line style="stroke:#181818;stroke-width:1;" x1="443.8818" x2="443.8818" y1="252.6045" y2="284.6045"/><polygon fill="#181818" points="439.8818,274.6045,447.8818,274.6045,443.8818,284.6045" style="stroke:#181818;stroke-width:1;"/><line style="stroke:#181818;stroke-width:1;" x1="538.2886" x2="538.2886" y1="220.6045" y2="240.6045"/><polygon fill="#181818" points="534.2886,230.6045,542.2886,230.6045,538.2886,240.6045" style="stroke:#181818;stroke-width:1;"/><line style="stroke:#181818;stroke-width:1;" x1="191.0171" x2="191.0171" y1="166.6357" y2="171.6357"/><line style="stroke:#181818;stroke-width:1;" x1="191.0171" x2="538.2886" y1="171.6357" y2="171.6357"/><line style="stroke:#181818;stroke-width:1;" x1="538.2886" x2="538.2886" y1="171.6357" y2="186.6357"/><polygon fill="#181818" points="534.2886,176.6357,542.2886,176.6357,538.2886,186.6357" style="stroke:#181818;stroke-width:1;"/><line style="stroke:#181818;stroke-width:1;" x1="443.8818" x2="443.8818" y1="318.5732" y2="323.5732"/><line style="stroke:#181818;stroke-width:1;" x1="443.8818" x2="96.6104" y1="323.5732" y2="323.5732"/><line style="stroke:#181818;stroke-width:1;" x1="96.6104" x2="96.6104" y1="323.5732" y2="338.5732"/><polygon fill="#181818" points="92.6104,328.5732,100.6104,328.5732,96.6104,338.5732" style="stroke:#181818;stroke-width:1;"/><line style="stroke:#181818;stroke-width:1;" x1="96.6104" x2="96.6104" y1="372.542" y2="377.542"/><line style="stroke:#181818;stroke-width:1;" x1="96.6104" x2="733.4893" y1="377.542" y2="377.542"/><line style="stroke:#181818;stroke-width:1;" x1="733.4893" x2="733.4893" y1="377.542" y2="392.542"/><polygon fill="#181818" points="729.4893,382.542,737.4893,382.542,733.4893,392.542" style="stroke:#181818;stroke-width:1;"/><line style="stroke:#181818;stroke-width:1;" x1="550.2886" x2="562.2886" y1="252.6045" y2="252.6045"/><line style="stroke:#181818;stroke-width:1;" x1="562.2886" x2="562.2886" y1="252.6045" y2="270.6045"/><line style="stroke:#181818;stroke-width:1;" x1="562.2886" x2="285.4238" y1="270.6045" y2="270.6045"/><line style="stroke:#181818;stroke-width:1;" x1="285.4238" x2="285.4238" y1="270.6045" y2="284.6045"/><polygon fill="#181818" points="281.4238,274.6045,289.4238,274.6045,285.4238,284.6045" style="stroke:#181818;stroke-width:1;"/><line style="stroke:#181818;stroke-width:1;" x1="733.4893" x2="733.4893" y1="426.5107" y2="430.5107"/><line style="stroke:#181818;stroke-width:1;" x1="733.4893" x2="508.2886" y1="430.5107" y2="430.5107"/><line style="stroke:#181818;stroke-width:1;" x1="508.2886" x2="508.2886" y1="430.5107" y2="448.5107"/><line style="stroke:#181818;stroke-width:1;" x1="508.2886" x2="526.2886" y1="448.5107" y2="448.5107"/><polygon fill="#181818" points="516.2886,444.5107,526.2886,448.5107,516.2886,452.5107" style="stroke:#181818;stroke-width:1;"/><line style="stroke:#181818;stroke-width:1;" x1="285.4238" x2="285.4238" y1="318.5732" y2="430.5107"/><line style="stroke:#181818;stroke-width:1;" x1="285.4238" x2="568.2886" y1="430.5107" y2="430.5107"/><line style="stroke:#181818;stroke-width:1;" x1="568.2886" x2="568.2886" y1="430.5107" y2="448.5107"/><line style="stroke:#181818;stroke-width:1;" x1="568.2886" x2="550.2886" y1="448.5107" y2="448.5107"/><polygon fill="#181818" points="560.2886,444.5107,550.2886,448.5107,560.2886,452.5107" style="stroke:#181818;stroke-width:1;"/><line style="stroke:#181818;stroke-width:1;" x1="538.2886" x2="538.2886" y1="460.5107" y2="465.5107"/><line style="stroke:#181818;stroke-width:1;" x1="538.2886" x2="191.0171" y1="465.5107" y2="465.5107"/><line style="stroke:#181818;stroke-width:1;" x1="191.0171" x2="191.0171" y1="465.5107" y2="480.5107"/><polygon fill="#181818" points="187.0171,470.5107,195.0171,470.5107,191.0171,480.5107" style="stroke:#181818;stroke-width:1;"/><text fill="#000000" font-family="sans-serif" font-size="18" lengthAdjust="spacing" textLength="57.1201" x="168.6143" y="29.4531">Kunde</text><text fill="#000000" font-family="sans-serif" font-size="18" lengthAdjust="spacing" textLength="157.1396" x="435.4048" y="29.4531">Webshop-System</text><text fill="#000000" font-family="sans-serif" font-size="18" lengthAdjust="spacing" textLength="50.959" x="707.0098" y="29.4531">Lager</text><!--SRC=[NP0zRiCm38LtdO9ZCXJed4xj5hH3WG39K7IGRTeYB5C6IJL8uUFa6DbyiSf1_nU1qFlu7adjYKSlVW2rKyJo2jMMX-ZqHmc-IKVY3beV5NyfTVIgzrPwgcouhHFlw1tXrasFcHkSd9eNSvjdIKtk3NpMutmE4VdERROC1o_8VP8A8dRBvtJ0IaCQRtOdDHmcjzcZjFEbgxpqI0QZp9Ts8Qc5rHei8CFgvUqRUbqxW9A7f52XO1rueG6-9Yhg0nRl67DPg2hbV3RgFg4dtw5SeMKqwDCma2ebfk9L42pxbpocEXZyI_sJmBuEib3KBJaemKUxEd13RRbB6Zy0]--></g></svg>