<svg xmlns="http://www.w3.org/2000/svg" xmlns:xlink="http://www.w3.org/1999/xlink" contentStyleType="text/css" data-diagram-type="STATE" height="778px" preserveAspectRatio="none" style="width:932px;height:778px;background:#FFFFFF;" version="1.1" viewBox="0 0 932 778" width="932px" zoomAndPan="magnify"><defs/><g><g id="Erstellt"><rect fill="#F1F1F1" height="50.2656" rx="12.5" ry="12.5" style="stroke:#181818;stroke-width:0.5;" width="225.875" x="442.37" y="103"/><line style="stroke:#181818;stroke-width:0.5;" x1="442.37" x2="668.245" y1="129.2969" y2="129.2969"/><text fill="#000000" font-family="sans-serif" font-size="14" lengthAdjust="spacing" textLength="49.2666" x="530.6742" y="120.9951">Erstellt</text><text fill="#000000" font-family="sans-serif" font-size="12" lengthAdjust="spacing" textLength="205.875" x="447.37" y="145.4355">entry / bestellnummer_generieren</text></g><g id="InBearbeitung"><rect fill="#F1F1F1" height="78.2031" rx="12.5" ry="12.5" style="stroke:#181818;stroke-width:0.5;" width="222.6055" x="7" y="357.27"/><line style="stroke:#181818;stroke-width:0.5;" x1="7" x2="229.6055" y1="383.5669" y2="383.5669"/><text fill="#000000" font-family="sans-serif" font-size="14" lengthAdjust="spacing" textLength="99.0664" x="68.7695" y="375.2651">InBearbeitung</text><text fill="#000000" font-family="sans-serif" font-size="12" lengthAdjust="spacing" textLength="202.6055" x="12" y="399.7055">entry / kommissionierung_starten</text><text fill="#000000" font-family="sans-serif" font-size="12" lengthAdjust="spacing" textLength="176.4961" x="12" y="413.6743">do / artikel_zusammenstellen</text><text fill="#000000" font-family="sans-serif" font-size="12" lengthAdjust="spacing" textLength="143.9238" x="12" y="427.643">exit / paket_vorbereiten</text></g><ellipse cx="555.3" cy="16" fill="#222222" rx="10" ry="10" style="stroke:#222222;stroke-width:1;"/><g id="Bezahlt"><rect fill="#F1F1F1" height="50" rx="12.5" ry="12.5" style="stroke:#181818;stroke-width:0.5;" width="72.3975" x="289.1" y="230.27"/><line style="stroke:#181818;stroke-width:0.5;" x1="289.1" x2="361.4975" y1="256.5669" y2="256.5669"/><text fill="#000000" font-family="sans-serif" font-size="14" lengthAdjust="spacing" textLength="52.3975" x="299.1" y="248.2651">Bezahlt</text></g><g id="Storniert"><rect fill="#F1F1F1" height="50" rx="12.5" ry="12.5" style="stroke:#181818;stroke-width:0.5;" width="81.3184" x="382.64" y="371.37"/><line style="stroke:#181818;stroke-width:0.5;" x1="382.64" x2="463.9584" y1="397.6669" y2="397.6669"/><text fill="#000000" font-family="sans-serif" font-size="14" lengthAdjust="spacing" textLength="61.3184" x="392.64" y="389.3651">Storniert</text></g><g id="Versendet"><rect fill="#F1F1F1" height="50" rx="12.5" ry="12.5" style="stroke:#181818;stroke-width:0.5;" width="91.7158" x="114.44" y="512.47"/><line style="stroke:#181818;stroke-width:0.5;" x1="114.44" x2="206.1558" y1="538.7669" y2="538.7669"/><text fill="#000000" font-family="sans-serif" font-size="14" lengthAdjust="spacing" textLength="71.7158" x="124.44" y="530.4651">Versendet</text></g><g id="Zugestellt"><rect fill="#F1F1F1" height="50" rx="12.5" ry="12.5" style="stroke:#181818;stroke-width:0.5;" width="90.6289" x="245.99" y="639.47"/><line style="stroke:#181818;stroke-width:0.5;" x1="245.99" x2="336.6189" y1="665.7669" y2="665.7669"/><text fill="#000000" font-family="sans-serif" font-size="14" lengthAdjust="spacing" textLength="70.6289" x="255.99" y="657.4651">Zugestellt</text></g><ellipse cx="373.3" cy="761.47" fill="none" rx="11" ry="11" style="stroke:#222222;stroke-width:1;"/><ellipse cx="373.3" cy="761.47" fill="#222222" rx="6" ry="6" style="stroke:#222222;stroke-width:1;"/><!--link *start* to Erstellt--><g class="link" data-entity-1=".start." data-entity-2="Erstellt" data-source-line="4" data-uid="lnk3" id="link_.start._Erstellt"><path d="M555.3,26.39 C555.3,43.14 555.3,72.67 555.3,96.73" fill="none" id="*start*-to-Erstellt" style="stroke:#181818;stroke-width:1;"/><polygon fill="#181818" points="555.3,102.73,559.3,93.73,555.3,97.73,551.3,93.73,555.3,102.73" style="stroke:#181818;stroke-width:1;"/><text fill="#000000" font-family="sans-serif" font-size="13" lengthAdjust="spacing" textLength="163.5537" x="556.3" y="69.0669">Kunde legt Bestellung an</text></g><!--link Erstellt to Bezahlt--><g class="link" data-entity-1="Erstellt" data-entity-2="Bezahlt" data-source-line="16" data-uid="lnk5" id="link_Erstellt_Bezahlt"><path d="M441.97,142.06 C390.62,150.48 337.9,163.63 322.3,183.27 C312.02,196.21 311.9289,209.2235 315.5089,224.2435" fill="none" id="Erstellt-to-Bezahlt" style="stroke:#2E7D32;stroke-width:1;"/><polygon fill="#2E7D32" points="316.9,230.08,318.7043,220.3978,315.7407,225.2162,310.9223,222.2527,316.9,230.08" style="stroke:#2E7D32;stroke-width:1;"/><text fill="#000000" font-family="sans-serif" font-size="13" lengthAdjust="spacing" textLength="436.8394" x="323.3" y="196.3369">zahlung_erfolgt [betrag == rechnungsbetrag] / rechnung_erstellen</text></g><!--link Erstellt to Storniert--><g class="link" data-entity-1="Erstellt" data-entity-2="Storniert" data-source-line="17" data-uid="lnk7" id="link_Erstellt_Storniert"><path d="M668.53,145.79 C710.77,154.51 751.6,166.85 764.3,183.27 C790.39,216.98 909.5,153.45 742.3,327.27 C704.32,366.75 547.4771,384.936 470.2471,391.706" fill="none" id="Erstellt-to-Storniert" style="stroke:#181818;stroke-width:1;"/><polygon fill="#181818" points="464.27,392.23,473.5849,395.4288,469.2509,391.7934,472.8863,387.4594,464.27,392.23" style="stroke:#181818;stroke-width:1;"/><text fill="#000000" font-family="sans-serif" font-size="13" lengthAdjust="spacing" textLength="102.2163" x="822.3" y="259.8369">kunde_storniert</text></g><!--link Bezahlt to InBearbeitung--><g class="link" data-entity-1="Bezahlt" data-entity-2="InBearbeitung" data-source-line="19" data-uid="lnk8" id="link_Bezahlt_InBearbeitung"><path d="M288.85,260.03 C233.2,266.6 131.19,282.24 109.3,310.27 C99.15,323.27 98.1619,335.1411 101.8019,351.0511" fill="none" id="Bezahlt-to-InBearbeitung" style="stroke:#2E7D32;stroke-width:1;"/><polygon fill="#2E7D32" points="103.14,356.9,105.032,347.2346,102.0249,352.0259,97.2335,349.0188,103.14,356.9" style="stroke:#2E7D32;stroke-width:1;"/><text fill="#000000" font-family="sans-serif" font-size="13" lengthAdjust="spacing" textLength="265.8652" x="110.3" y="323.3369">bearbeitung_starten [artikel_verfuegbar]</text></g><!--link Bezahlt to Storniert--><g class="link" data-entity-1="Bezahlt" data-entity-2="Storniert" data-source-line="20" data-uid="lnk9" id="link_Bezahlt_Storniert"><path d="M356.44,280.56 C366.19,289.21 376.45,299.49 384.3,310.27 C397.99,329.05 406.4515,347.7789 413.1115,365.6189" fill="none" id="Bezahlt-to-Storniert" style="stroke:#2E7D32;stroke-width:1;"/><polygon fill="#2E7D32" points="415.21,371.24,415.8097,361.4094,413.4613,366.5558,408.3149,364.2074,415.21,371.24" style="stroke:#2E7D32;stroke-width:1;"/><text fill="#000000" font-family="sans-serif" font-size="13" lengthAdjust="spacing" textLength="338.0698" x="395.3" y="323.3369">artikel_nicht_verfuegbar / rueckerstattung_einleiten</text></g><!--link InBearbeitung to Versendet--><g class="link" data-entity-1="InBearbeitung" data-entity-2="Versendet" data-source-line="22" data-uid="lnk11" id="link_InBearbeitung_Versendet"><path d="M116.86,435.9 C117.36,450.79 119.28,467.75 124.3,482.47 C127.87,492.92 130.5306,498.3706 136.7206,507.1806" fill="none" id="InBearbeitung-to-Versendet" style="stroke:#181818;stroke-width:1;"/><polygon fill="#181818" points="140.17,512.09,138.2689,502.4264,137.2955,507.9989,131.723,507.0255,140.17,512.09" style="stroke:#181818;stroke-width:1;"/><text fill="#000000" font-family="sans-serif" font-size="13" lengthAdjust="spacing" textLength="270.9116" x="125.3" y="478.5369">versand_beauftragt / tracking_generieren</text></g><!--link Versendet to Zugestellt--><g class="link" data-entity-1="Versendet" data-entity-2="Zugestellt" data-source-line="24" data-uid="lnk13" id="link_Versendet_Zugestellt"><path d="M185.87,562.87 C208.95,584.89 238.3988,612.9883 261.4588,634.9883" fill="none" id="Versendet-to-Zugestellt" style="stroke:#181818;stroke-width:1;"/><polygon fill="#181818" points="265.8,639.13,262.0493,630.0233,262.1823,635.6786,256.527,635.8116,265.8,639.13" style="stroke:#181818;stroke-width:1;"/><text fill="#000000" font-family="sans-serif" font-size="13" lengthAdjust="spacing" textLength="139.5278" x="235.3" y="605.5369">zustellung_bestaetigt</text></g><!--link Zugestellt to *end*--><g class="link" data-entity-1="Zugestellt" data-entity-2=".end." data-source-line="25" data-uid="lnk15" id="link_Zugestellt_.end."><path d="M312.42,689.93 C330.26,710.61 350.8093,734.4182 362.5493,748.0182" fill="none" id="Zugestellt-to-*end*" style="stroke:#181818;stroke-width:1;"/><polygon fill="#181818" points="366.47,752.56,363.6169,743.1335,363.2028,748.7751,357.5611,748.361,366.47,752.56" style="stroke:#181818;stroke-width:1;"/></g><!--link Storniert to *end*--><g class="link" data-entity-1="Storniert" data-entity-2=".end." data-source-line="26" data-uid="lnk16" id="link_Storniert_.end."><path d="M419.94,421.76 C410.07,493.47 382.2184,695.7161 375.5284,744.3061" fill="none" id="Storniert-to-*end*" style="stroke:#181818;stroke-width:1;"/><polygon fill="#181818" points="374.71,750.25,379.9002,741.8797,375.392,745.2967,371.9749,740.7885,374.71,750.25" style="stroke:#181818;stroke-width:1;"/></g><!--SRC=[RP9DIyD048Rl-ok6UXEAKW-2KC62X-AnuC4GmYIPfaiscx8xMst5_-visZIfzfAG-NZcVIVZQsstwB01ptj3ydIwuD0OvOVC1ilsKziArcWyZJA5GUzVM7homBGiMhlI1u9xbTocC9q-mwlpJCOmFC5Ri2M1eOfXGLqq216jKfwH2IPzxGJG3utV2iOKikpsS0Vv4M53qv3BAhBaD3cowkVCMze5eSj9impge1UHZdmP6V1rspJQUzrQeKeg4wPZmVzlALkfbwIkoMI7u54KsKxSrNBwqYmDMwo9irqh6IUve_2ppsboCwF7yc6MoWuNTC1DPpw-enXowzR87fESs645ypauAZPMSluOIcL47vBoNiumGBWhRbsq5ybr_3bYyXHHgXzweUIlbtpuwXS4IR-AdQWCLENeqkkqyVo-oUfYmwFMQ2DGKKSBoDqWqjOSDwOkzKHFxr98OYKoXUBHbfce3EkubBXtUHToljNuPDJG5HaVeQBplSaFFPrg5ayEYNN5QbGIE-JQrU3c5Fa5]--></g></svg>